<?xml version="1.0" encoding="UTF-8" standalone="no"?>
<!DOCTYPE svg PUBLIC "-//W3C//DTD SVG 1.1//EN" "http://www.w3.org/Graphics/SVG/1.1/DTD/svg11.dtd">
<svg xmlns="http://www.w3.org/2000/svg" xmlns:xlink="http://www.w3.org/1999/xlink" version="1.1" width="453.543pt" height="255.118pt" viewBox="0 0 453.543 255.118">
<g enable-background="new">
<g>
<path transform="matrix(1,0,0,-1,0,255.118)" d="M 0 0 L 453.543 0 L 453.543 255.118 L 0 255.118 Z " fill="#ffffff"/>
<path transform="matrix(1,0,0,-1,0,236.772)" d="M 9.96277 -9.96277 L 9.96277 96.94736 L 443.58638 96.94736 L 443.58638 -9.96277 Z M 443.58638 96.94736 " fill="#bbdefb"/>
<symbol id="font_0_d">
<path d="M .21150002 0 L .36900003 0 L .36900003 .623 L .58050009 .623 L .58050009 .74300006 L 0 .74300006 L 0 .623 L .21150002 .623 L .21150002 0 Z "/>
</symbol>
<symbol id="font_0_17">
<path d="M .088000018 .637 C .14050001 .637 .18500002 .6775 .18500002 .7285 C .18500002 .77650007 .15150002 .8115 .09750001 .8115 C .0465 .8115 0 .77000007 0 .72 C 0 .671 .0385 .637 .088000018 .637 M .019499999 0 L .172 0 L .172 .5565 L .019499999 .5565 L .019499999 0 Z "/>
</symbol>
<symbol id="font_0_21">
<path d="M .21750002 0 C .2895 0 .3625 .028 .39000003 .052500003 L .37 .13800001 C .3525 .127 .3095 .116000007 .2835 .116000007 C .23300003 .116000007 .22000002 .125 .22000002 .231 L .22000002 .4605 L .3695 .4605 L .3695 .56500008 L .22000002 .56500008 L .22000002 .69200006 L .128 .69200006 C .1145 .65550008 .10100001 .61750009 .09150001 .595 C .07750001 .56350007 .049000004 .55600008 0 .54200008 L 0 .4605 L .0675 .4605 L .0675 .1665 C .0675 .047000003 .1155 0 .21750002 0 Z "/>
</symbol>
<symbol id="font_0_19">
<path d="M 0 0 L .153 0 L .153 .81250008 L 0 .81250008 L 0 0 Z "/>
</symbol>
<symbol id="font_0_13">
<path d="M .2655 0 C .352 0 .43600006 .026 .473 .056 L .44750006 .13900002 C .42050005 .12450001 .3495 .11050001 .302 .11050001 C .216 .11050001 .15750002 .148 .1515 .2515 L .4845 .2515 C .4885 .276 .49 .3115 .49 .3525 C .4875 .51600006 .38300003 .573 .26749999 .572 C .096 .57100006 0 .45000003 0 .288 C 0 .10750001 .09400001 0 .2655 0 M .2625 .47050003 C .334 .47050003 .35300005 .4145 .348 .334 L .1535 .334 C .164 .437 .205 .47050003 .2625 .47050003 Z "/>
</symbol>
<symbol id="font_0_2">
<path d="M .16450002 0 L .21350001 .15750002 L .49000005 .15750002 L .5395 0 L .7065 0 L .43800003 .74950006 L .26900003 .74950006 L 0 0 L .16450002 0 M .32850004 .526 L .35200004 .61200007 L .37500004 .526 L .455 .26900003 L .24800001 .26900003 L .32850004 .526 Z "/>
</symbol>
<symbol id="font_0_20">
<path d="M .000500001 .043500004 C .029500004 .024 .110000018 0 .19550002 0 C .33 0 .41550002 .058500004 .41550002 .16900002 C .41550002 .259 .35200004 .3005 .23250002 .3495 C .17850001 .372 .1465 .3845 .14700002 .4225 C .14700002 .45200003 .17550002 .468 .24000001 .468 C .29250003 .468 .34950004 .447 .36850003 .4305 L .38500003 .54 C .36350004 .55250009 .30300004 .572 .22100002 .572 C .10000001 .572 .0020000004 .52050009 .001000002 .4165 C 0 .329 .051000004 .2775 .15950002 .2345 C .22000003 .21050002 .26700003 .19150001 .26700003 .15650001 C .26700003 .12250001 .23900002 .105000007 .17850001 .106000009 C .106500018 .10650001 .033000005 .1385 .017500002 .15100001 L .000500001 .043500004 Z "/>
</symbol>
<symbol id="font_0_6">
<path d="M 0 0 L .15799999 0 L .15799999 .74300006 L 0 .74300006 L 0 0 Z "/>
</symbol>
<symbol id="font_0_1b">
<path d="M 0 0 L .15200001 0 L .15200001 .40100003 C .185 .42850004 .2295 .44250003 .2595 .44300003 C .3255 .446 .34300003 .41450004 .34300003 .328 L .34300003 0 L .496 0 L .496 .34950004 C .496 .51100006 .44300003 .56750008 .32700003 .565 C .2535 .56350007 .1785 .526 .141 .49400003 L .1385 .5565 L 0 .5565 L 0 0 Z "/>
</symbol>
<symbol id="font_0_16">
<path d="M 0 0 L .1525 0 L .1525 .40100003 C .18650002 .43 .23250002 .44200004 .2605 .44250003 C .323 .44450004 .34550003 .41550002 .34550003 .328 L .34550003 0 L .499 0 L .499 .34550003 C .499 .5 .44450004 .568 .3235 .565 C .254 .56350007 .18450001 .53050008 .146 .5 L .1525 .595 L .1525 .81250008 L 0 .81250008 L 0 0 Z "/>
</symbol>
<symbol id="font_0_a">
<path d="M 0 0 L .157 0 L .157 .23050002 C .17400003 .23050002 .1985 .22950001 .24100003 .22950001 C .43400005 .22950001 .538 .32700003 .538 .497 C .538 .68050006 .43400005 .75100007 .26250003 .75100007 C .19150001 .75100007 .12850002 .74300006 .063499998 .74300006 L 0 .74300006 L 0 0 M .157 .34750004 L .157 .634 C .1805 .63850006 .20950002 .6405 .23550001 .64100006 C .3345 .64400008 .38400004 .592 .38400004 .49750004 C .38400004 .377 .31800003 .34300003 .238 .34300003 C .20850003 .34300003 .18200001 .3445 .157 .34750004 Z "/>
</symbol>
<symbol id="font_0_1f">
<path d="M 0 0 L .1525 0 L .1525 .37250004 C .17500001 .395 .21450001 .42350004 .277 .42350004 C .316 .42350004 .333 .41550002 .34250004 .41000004 L .34250004 .55850008 C .3345 .563 .316 .565 .296 .565 C .2265 .565 .1615 .523 .14 .47750003 L .132 .5565 L 0 .5565 L 0 0 Z "/>
</symbol>
<symbol id="font_0_1c">
<path d="M .26700003 0 C .42550005 0 .5395 .09600001 .5415 .275 C .5445 .43400003 .47250007 .572 .277 .572 C .11950001 .572 .0050000029 .4765 .0020000004 .298 C 0 .1385 .07200001 0 .26700003 0 M .27100004 .10650001 C .19050002 .10700001 .16000001 .19150001 .16000001 .294 C .16000001 .405 .19350001 .46600003 .27400003 .4655 C .35400004 .465 .38450004 .3825 .38450004 .2815 C .38450004 .1675 .35050003 .105500008 .27100004 .10650001 Z "/>
</symbol>
<symbol id="font_0_11">
<path d="M 0 .2805 C 0 .120500009 .086500007 0 .2595 0 C .3305 0 .40100003 .0165 .43350003 .0485 L .411 .142 C .38700003 .1295 .3405 .117000009 .29000003 .117000009 C .212 .117000009 .1495 .17150001 .1525 .2965 C .156 .41300003 .22550002 .4535 .29050002 .4535 C .345 .4535 .38050003 .44300003 .40550003 .428 L .42450003 .54450008 C .4065 .55700007 .35000003 .572 .277 .572 C .08849999 .572 0 .4445 0 .2805 Z "/>
</symbol>
<symbol id="font_0_12">
<path d="M .2195 0 C .30900003 0 .35750003 .039 .3835 .065000008 L .3835 .008 L .5235 .008 L .5235 .8205001 L .3725 .8205001 L .3725 .60700008 L .374 .55850008 C .3515 .5655 .3195 .572 .28100003 .572 C .111499998 .572 0 .45200003 0 .267 C 0 .086500007 .101500008 0 .2195 0 M .158 .2775 C .1585 .402 .2125 .465 .285 .465 C .3235 .465 .35500003 .46 .3725 .4465 L .3725 .14950001 C .352 .134 .3105 .116000007 .2685 .116000007 C .199 .116000007 .1565 .16200002 .158 .2775 Z "/>
</symbol>
<symbol id="font_0_15">
<path d="M .252 .44099999 C .4065 .44099999 .49350003 .508 .49350003 .63 C .49350003 .656 .48900006 .68 .4805 .701 L .581 .701 L .581 .81100007 L .51600006 .81100007 C .47300003 .81100007 .4365 .79300007 .41650004 .777 C .37500004 .8035 .319 .81700006 .25300003 .8165 C .11050001 .8155 .0165 .7505 .0165 .6255 C .0165 .55200007 .0555 .4975 .11950001 .4675 C .0585 .4385 .039000006 .393 .038000004 .35500003 C .0375 .32050003 .052500003 .2955 .08850001 .2805 C .0365 .2595 0 .22049999 0 .16749999 C 0 .06099999 .0845 .0014999807 .26000003 .00049999359 C .41450004 0 .55500009 .069499988 .55500009 .2035 C .55500009 .282 .5115 .356 .33900003 .356 L .2385 .356 C .1885 .356 .17050001 .366 .17050001 .399 C .17050001 .41500003 .179 .43300004 .19500001 .445 C .213 .442 .23250002 .44099999 .252 .44099999 M .254 .5265 C .1885 .5265 .164 .5725 .164 .6285 C .164 .7045 .20150002 .725 .25750003 .725 C .32050003 .725 .3515 .6915 .3515 .627 C .3515 .54700008 .3125 .5265 .254 .5265 M .1465 .1925 C .1465 .22299999 .15750002 .243 .17 .257 C .17850001 .256 .187 .2555 .19700001 .2555 L .28950004 .2555 C .39000003 .2555 .40850003 .222 .40850003 .17199999 C .40850003 .11399999 .34600003 .08899999 .2675 .08899999 C .17400001 .08899999 .1465 .13549999 .1465 .1925 Z "/>
</symbol>
<use xlink:href="#font_0_d" transform="matrix(24.7871,0,0,-24.7871,14.270741,131.466)" fill="#212121"/>
<use xlink:href="#font_0_17" transform="matrix(24.7871,0,0,-24.7871,30.692196,131.466)" fill="#212121"/>
<use xlink:href="#font_0_21" transform="matrix(24.7871,0,0,-24.7871,37.694555,131.6643)" fill="#212121"/>
<use xlink:href="#font_0_19" transform="matrix(24.7871,0,0,-24.7871,49.88981,131.466)" fill="#212121"/>
<use xlink:href="#font_0_13" transform="matrix(24.7871,0,0,-24.7871,56.706266,131.6643)" fill="#212121"/>
<use xlink:href="#font_0_2" transform="matrix(24.7871,0,0,-24.7871,73.21447,131.466)" fill="#212121"/>
<use xlink:href="#font_0_20" transform="matrix(24.7871,0,0,-24.7871,91.81719,131.6643)" fill="#212121"/>
<use xlink:href="#font_0_6" transform="matrix(24.7871,0,0,-24.7871,108.697208,131.466)" fill="#212121"/>
<use xlink:href="#font_0_21" transform="matrix(24.7871,0,0,-24.7871,115.699558,131.6643)" fill="#212121"/>
<use xlink:href="#font_0_6" transform="matrix(24.7871,0,0,-24.7871,131.60048,131.466)" fill="#212121"/>
<use xlink:href="#font_0_20" transform="matrix(24.7871,0,0,-24.7871,139.03662,131.6643)" fill="#212121"/>
<use xlink:href="#font_0_6" transform="matrix(24.7871,0,0,-24.7871,155.91664,131.466)" fill="#212121"/>
<use xlink:href="#font_0_1b" transform="matrix(24.7871,0,0,-24.7871,164.13358,131.466)" fill="#212121"/>
<use xlink:href="#font_0_21" transform="matrix(24.7871,0,0,-24.7871,182.22817,131.6643)" fill="#212121"/>
<use xlink:href="#font_0_16" transform="matrix(24.7871,0,0,-24.7871,194.41103,131.466)" fill="#212121"/>
<use xlink:href="#font_0_13" transform="matrix(24.7871,0,0,-24.7871,209.66748,131.6643)" fill="#212121"/>
<use xlink:href="#font_0_a" transform="matrix(24.7871,0,0,-24.7871,228.295,131.466)" fill="#212121"/>
<use xlink:href="#font_0_1f" transform="matrix(24.7871,0,0,-24.7871,243.8861,131.466)" fill="#212121"/>
<use xlink:href="#font_0_1c" transform="matrix(24.7871,0,0,-24.7871,253.61504,131.6643)" fill="#212121"/>
<use xlink:href="#font_0_11" transform="matrix(24.7871,0,0,-24.7871,268.62364,131.6643)" fill="#212121"/>
<use xlink:href="#font_0_13" transform="matrix(24.7871,0,0,-24.7871,281.1535,131.6643)" fill="#212121"/>
<use xlink:href="#font_0_13" transform="matrix(24.7871,0,0,-24.7871,295.53004,131.6643)" fill="#212121"/>
<use xlink:href="#font_0_12" transform="matrix(24.7871,0,0,-24.7871,309.8694,131.6643)" fill="#212121"/>
<use xlink:href="#font_0_17" transform="matrix(24.7871,0,0,-24.7871,326.328,131.466)" fill="#212121"/>
<use xlink:href="#font_0_1b" transform="matrix(24.7871,0,0,-24.7871,334.5449,131.466)" fill="#212121"/>
<use xlink:href="#font_0_15" transform="matrix(24.7871,0,0,-24.7871,349.65263,137.72475)" fill="#212121"/>
<use xlink:href="#font_0_20" transform="matrix(24.7871,0,0,-24.7871,365.51637,131.6643)" fill="#212121"/>
<symbol id="font_1_2">
<path d="M .512 .128 C .49400003 .11800001 .47900004 .105000007 .46100004 .095000009 C .42000003 .072000008 .37600006 .065000008 .329 .065000008 C .17300001 .065000008 .089 .224 .089 .367 C .089 .49900005 .16300002 .671 .324 .671 C .366 .671 .407 .66400006 .44500006 .644 C .46100004 .63600006 .47600008 .625 .49200005 .616 L .507 .70100006 C .45200003 .722 .39200003 .736 .33200003 .736 C .13000001 .736 0 .556 0 .367 C 0 .191 .120000008 0 .32200004 0 C .38500006 0 .43800003 .011000001 .49500007 .042000005 L .51000007 .051000004 C .51600006 .055 .51800009 .057000005 .51800009 .063 C .51800009 .08500001 .5130001 .106000009 .512 .128 Z "/>
</symbol>
<symbol id="font_1_27">
<path d="M .202 .472 C .07900001 .45900003 0 .34800003 0 .23300001 C 0 .142 .049 .045 .154 .010000001 C .17400001 .0030000006 .19500001 0 .21700001 0 C .335 0 .432 .105000007 .432 .23200003 C .432 .344 .35500003 .472 .214 .472 L .202 .472 M .074 .22600001 C .073 .23200003 .073 .23800002 .073 .24400002 C .073 .327 .126 .41 .216 .41 C .30600003 .41 .358 .329 .358 .24100001 C .358 .16400002 .31800003 .065000008 .21700001 .065000008 C .134 .065000008 .083000008 .134 .074 .22600001 Z "/>
</symbol>
<symbol id="font_1_25">
<path d="M .074 .38200004 L .074 .44900004 L 0 .44900004 L 0 0 L .078999999 0 L .078999999 .229 C .078999999 .29200004 .09 .39300005 .17800002 .39300005 C .20600002 .39300005 .237 .38700003 .25700004 .36500005 C .27500005 .34400005 .278 .31700004 .278 .29000003 C .278 .27700005 .277 .26500003 .277 .25300003 L .277 0 L .356 0 L .356 .23900001 C .356 .256 .357 .27400003 .357 .29200004 C .357 .36500005 .34000004 .45500005 .221 .45500005 C .16000001 .45500005 .113000009 .42700006 .074 .38200004 Z "/>
</symbol>
<symbol id="font_1_1b">
<path d="M .073 .44400005 L 0 .44400005 L 0 .38400004 L .073 .38400004 L .073 0 L .14900002 0 L .14900002 .38400004 L .25800003 .38400004 L .25800003 .44400005 L .14600002 .44400005 L .14600002 .55600008 C .14600002 .56600007 .14500001 .57600006 .14500001 .587 C .14500001 .64000007 .18300002 .679 .23500003 .679 C .267 .679 .29 .67 .317 .6610001 L .317 .72 C .317 .74100008 .252 .74100008 .23800002 .74100008 C .13300002 .74100008 .073 .646 .073 .54800006 L .073 .44400005 Z "/>
</symbol>
<symbol id="font_1_18">
<path d="M .366 .119 C .321 .088 .276 .062000004 .21800001 .062000004 C .16000001 .062000004 .10700001 .098000008 .083000008 .15600002 C .072 .18100001 .069000009 .20700002 .066 .23400001 L .375 .23400001 C .375 .299 .365 .37 .321 .42000003 C .29 .455 .24500002 .472 .19900002 .472 C .072 .472 0 .345 0 .23200003 L 0 .22700002 C .0020000004 .113000009 .088 0 .21300002 0 C .264 0 .316 .016 .357 .042000005 C .365 .048000006 .372 .050000006 .372 .060000004 C .372 .079 .367 .099 .366 .119 M .073 .29 C .087 .349 .135 .41 .19900002 .41 L .202 .41 C .273 .41 .304 .349 .32 .29 L .073 .29 Z "/>
</symbol>
<symbol id="font_1_30">
<path d="M .071 .36300005 L .071 .44900004 L 0 .44900004 L 0 0 L .076 0 L .076 .20300001 C .076 .27000005 .098 .34600003 .187 .37600003 C .20500002 .38300003 .22500003 .38600005 .24400002 .38600005 L .24400002 .45500005 C .17300001 .45500005 .11800001 .42100004 .071 .36300005 Z "/>
</symbol>
<symbol id="font_1_14">
<path d="M .37 .120000008 C .32400004 .089 .28 .065000008 .21700001 .065000008 C .12300001 .065000008 .07400001 .14900002 .07400001 .23600002 C .07400001 .322 .12200001 .407 .22300002 .407 C .252 .407 .28100003 .402 .30800004 .391 C .326 .382 .342 .37100003 .35900004 .361 C .363 .377 .365 .393 .36800004 .409 C .36900003 .412 .37 .417 .37 .42200003 C .37 .45700003 .243 .472 .21800003 .472 C .088 .472 .0050000029 .36200003 0 .24500002 L 0 .23500002 C 0 .122 .076000008 0 .215 0 C .26500003 0 .31800003 .014 .36100004 .041 C .367 .046000005 .37600003 .049000004 .37600003 .059000005 C .37600003 .078 .37100003 .1 .37 .120000008 Z "/>
</symbol>
<symbol id="font_1_5">
<path d="M 0 .69100007 L 0 0 L .081999998 0 L .081999998 .31500004 L .38700003 .31500004 L .38700003 .37700004 L .081999998 .37700004 L .081999998 .62600007 L .42900006 .62600007 L .42900006 .69100007 L 0 .69100007 Z "/>
</symbol>
<symbol id="font_1_12">
<path d="M .036 .36 C .091000009 .39200003 .125 .412 .19100002 .412 L .19600001 .412 C .252 .405 .273 .349 .273 .29500003 L .273 .26 C .169 .26 0 .23600002 0 .125 C 0 .066 .038000004 0 .109 0 C .16600001 0 .23000002 .011000001 .27600003 .047000003 L .27600003 .011000001 L .35200004 .011000001 L .35200004 .292 C .35200004 .386 .296 .472 .18900001 .472 C .14 .472 .09200001 .462 .049000004 .439 C .042000005 .43600003 .030000002 .432 .030000002 .421 C .030000002 .40100003 .034999998 .38 .036 .36 M .273 .20800002 L .273 .15200001 C .273 .085 .224 .062000004 .16100002 .062000004 C .125 .062000004 .069 .079 .069 .128 C .069 .17800002 .149 .19500001 .186 .20000002 C .215 .20500002 .24400002 .20800002 .273 .20800002 Z "/>
</symbol>
<symbol id="font_1_13">
<path d="M 0 .741 L 0 .011000001 L .079 .011000001 L .079 .055000005 C .11900001 .021000002 .16 0 .215 0 C .32900004 0 .39400003 .128 .39400003 .23400001 C .39400003 .321 .35300002 .46600003 .23300001 .46600003 C .178 .46600003 .11900001 .446 .076 .409 L .076 .741 L 0 .741 M .31900005 .21700002 C .31300003 .13900002 .263 .061000006 .17500001 .061000006 C .136 .061000006 .079 .094000007 .079 .134 L .079 .343 C .08100001 .356 .09600001 .368 .10500001 .375 C .127 .394 .155 .404 .18300003 .404 C .277 .404 .32000003 .314 .32000003 .23900002 C .32000003 .23200003 .32000003 .22400002 .31900005 .21700002 Z "/>
</symbol>
<symbol id="font_1_37">
<path d="M 0 .455 L 0 .12900001 C 0 .096 .0009999946 .062000004 .022 .033000005 C .041999997 .0060000007 .074 0 .106000009 0 C .16700001 0 .23600002 .019000002 .28000004 .060000004 L .28000004 .011000001 L .356 .011000001 L .356 .455 L .277 .455 L .277 .17800002 C .277 .096 .228 .057000005 .149 .057000005 C .111 .057000005 .078999999 .069000009 .078999999 .123 L .078999999 .455 L 0 .455 Z "/>
</symbol>
<symbol id="font_1_23">
<path d="M 0 .73 L 0 0 L .076 0 L .076 .73 L 0 .73 Z "/>
</symbol>
<symbol id="font_1_31">
<path d="M .011000002 .115 C .0090000019 .098000008 .005999999 .082 .0030000006 .065000008 C .0020000004 .061000006 0 .055000005 0 .050000006 C 0 .025000003 .104 .0060000007 .11500001 .0040000008 C .13200002 .0010000002 .15 0 .16800002 0 C .244 0 .329 .033000005 .329 .13800001 C .329 .202 .281 .25300003 .223 .271 C .17300001 .287 .07700001 .282 .07700001 .351 C .07700001 .39000003 .111 .412 .15400002 .412 C .187 .412 .22200002 .40800003 .254 .395 C .27 .389 .285 .379 .301 .373 L .313 .44 C .265 .462 .21900001 .472 .16700001 .472 C .09 .472 .0030000006 .43800003 .0030000006 .342 C .0030000006 .28100003 .049000004 .23700002 .103 .21700002 C .15 .20100002 .257 .20600002 .257 .13100001 C .257 .079 .20600002 .064 .16100002 .064 C .10200001 .064 .064 .087000008 .011000002 .115 Z "/>
</symbol>
<symbol id="font_1_c">
<path d="M 0 .69400009 L 0 0 L .082 0 L .082 .28800003 L .26700003 .28800003 C .37700004 .29700003 .48000003 .37900005 .48000003 .49200005 L .48000003 .50100007 C .47500003 .60700008 .37600003 .68200007 .27400003 .693 C .259 .69400009 .24400002 .69400009 .23000002 .69400009 L 0 .69400009 M .07900001 .34700004 L .07900001 .637 L .23500002 .637 C .314 .632 .39800004 .587 .39800004 .49200005 C .39800004 .43400005 .36200003 .38400004 .307 .36200003 C .27 .34700004 .23200003 .34700004 .19300002 .34700004 L .07900001 .34700004 Z "/>
</symbol>
<symbol id="font_1_34">
<path d="M .086 .582 L .086 .455 L 0 .455 L 0 .395 L .083000008 .395 L .083000008 .125 C .083000008 .075 .097 0 .164 0 C .21700001 0 .26700003 .015000001 .31300003 .039 L .29700003 .099 C .266 .079 .24400002 .065000008 .207 .065000008 C .161 .065000008 .157 .119 .157 .15300001 L .157 .395 L .296 .395 L .296 .455 L .157 .455 L .157 .582 L .086 .582 Z "/>
</symbol>
<symbol id="font_1_21">
<path d="M .0069999995 .44400005 L .0069999995 0 L .083 0 L .083 .44400005 L .0069999995 .44400005 M 0 .68000009 L 0 .591 L .08900001 .591 L .08900001 .68000009 L 0 .68000009 Z "/>
</symbol>
<symbol id="font_1_16">
<path d="M 0 .208 L 0 .125 L .025000006 .125 L 0 0 L .04200001 0 L .082 .124000009 L .082 .208 L 0 .208 Z "/>
</symbol>
<symbol id="font_1_36">
<path d="M .042999999 .45800004 C .058 .527 .089999999 .61100009 .18 .61100009 C .26400004 .61100009 .32400004 .54100009 .32400004 .45800004 C .32400004 .34700004 .22000003 .27300004 .14900002 .20500002 C .127 .184 .105 .162 .083 .14 L .017 .074 C .009999998 .067 .007999998 .063 .007999998 .053000004 L .007999998 0 L .404 0 L .404 .071 L .080000009 .07 C .134 .120000008 .18400002 .17300001 .23900002 .22100002 C .314 .28500004 .404 .35200004 .404 .46400006 C .404 .57800009 .31800003 .67 .20300001 .6750001 L .194 .6750001 C .11000001 .6750001 .041 .633 .004999999 .53300008 C .0029999987 .52800008 0 .521 0 .51600006 C .0009999983 .50900009 .007999998 .503 .011999998 .49800004 C .022 .48500005 .031000004 .46900005 .042999999 .45800004 Z "/>
</symbol>
<symbol id="font_1_3c">
<path d="M .19200002 .6970001 C .001000002 .68000009 0 .432 0 .342 C 0 .24700001 .008000001 .134 .068 .065000008 C .10200001 .026000003 .15 0 .20300001 0 C .407 0 .41 .26200003 .41 .35000003 L .41 .35700003 C .41 .455 .40100003 .57000008 .33200003 .64400008 C .3 .67700007 .254 .6980001 .207 .6980001 C .202 .6980001 .19700001 .6970001 .19200002 .6970001 M .074 .30400003 C .073 .312 .073 .32000003 .073 .328 L .073 .33900003 C .073 .462 .075 .63400009 .20600002 .63400009 C .32500003 .63400009 .336 .474 .336 .35300002 L .336 .32700003 C .336 .23300001 .33200003 .10100001 .237 .069000009 C .22600003 .065000008 .21500002 .06300001 .20500002 .06300001 C .10800001 .06300001 .083000008 .183 .076000008 .26500003 C .075 .278 .076000008 .291 .074 .30400003 Z "/>
</symbol>
<symbol id="font_1_35">
<path d="M .050000006 .533 C .072000008 .566 .082 .589 .113 .608 C .139 .625 .17200002 .63600006 .204 .63600006 C .25900004 .63600006 .305 .6 .305 .543 C .305 .48000003 .25700004 .42400003 .19800002 .41200004 C .174 .40600003 .14700002 .40700004 .123 .40500004 L .123 .34300003 L .18200001 .34300003 C .20500002 .34300003 .22700003 .34300003 .24900002 .33300004 C .30100004 .31100003 .32400004 .256 .32400004 .202 C .32400004 .133 .28100003 .062000008 .20000002 .062000008 C .123 .062000008 .055 .10300001 .009999998 .164 L .009 .164 C .0059999974 .146 0 .126 0 .10700001 L 0 .10300001 C .004999999 .08900001 .024999999 .072000008 .038000004 .061000006 C .082 .024000003 .13499999 .0040000008 .192 0 L .20500002 0 C .314 0 .41300003 .08800001 .41300003 .201 C .41300003 .26700003 .37300004 .32400004 .31700004 .35600005 C .30300004 .36300005 .28900004 .36800004 .275 .374 C .34000004 .404 .38500003 .47600005 .38500003 .545 C .38500003 .642 .28800003 .69600006 .20500002 .69600006 C .136 .69600006 .056 .661 .02 .59900006 C .018 .596 .015000001 .593 .015000001 .589 L .015000001 .588 C .015000001 .579 .038000004 .55 .050000006 .533 Z "/>
</symbol>
<use xlink:href="#font_1_2" transform="matrix(10.9091,0,0,-10.9091,24.457,159.2192)" fill="#212121"/>
<use xlink:href="#font_1_27" transform="matrix(10.9091,0,0,-10.9091,31.013369,159.11009)" fill="#212121"/>
<use xlink:href="#font_1_25" transform="matrix(10.9091,0,0,-10.9091,36.9261,158.9901)" fill="#212121"/>
<use xlink:href="#font_1_1b" transform="matrix(10.9091,0,0,-10.9091,41.955198,158.9901)" fill="#212121"/>
<use xlink:href="#font_1_18" transform="matrix(10.9091,0,0,-10.9091,45.369749,159.11009)" fill="#212121"/>
<use xlink:href="#font_1_30" transform="matrix(10.9091,0,0,-10.9091,50.660665,158.9901)" fill="#212121"/>
<use xlink:href="#font_1_18" transform="matrix(10.9091,0,0,-10.9091,53.878847,159.11009)" fill="#212121"/>
<use xlink:href="#font_1_25" transform="matrix(10.9091,0,0,-10.9091,59.14794,158.9901)" fill="#212121"/>
<use xlink:href="#font_1_14" transform="matrix(10.9091,0,0,-10.9091,64.286128,159.11009)" fill="#212121"/>
<use xlink:href="#font_1_18" transform="matrix(10.9091,0,0,-10.9091,69.097049,159.11009)" fill="#212121"/>
<use xlink:href="#font_1_27" transform="matrix(10.9091,0,0,-10.9091,77.48614,159.11009)" fill="#212121"/>
<use xlink:href="#font_1_25" transform="matrix(10.9091,0,0,-10.9091,83.39887,158.9901)" fill="#212121"/>
<use xlink:href="#font_1_5" transform="matrix(10.9091,0,0,-10.9091,92.780689,158.9901)" fill="#212121"/>
<use xlink:href="#font_1_12" transform="matrix(10.9091,0,0,-10.9091,98.126148,159.11009)" fill="#212121"/>
<use xlink:href="#font_1_13" transform="matrix(10.9091,0,0,-10.9091,103.67888,159.11009)" fill="#212121"/>
<use xlink:href="#font_1_37" transform="matrix(10.9091,0,0,-10.9091,109.23161,159.11009)" fill="#212121"/>
<use xlink:href="#font_1_23" transform="matrix(10.9091,0,0,-10.9091,114.82797,158.9901)" fill="#212121"/>
<use xlink:href="#font_1_27" transform="matrix(10.9091,0,0,-10.9091,116.87888,159.11009)" fill="#212121"/>
<use xlink:href="#font_1_37" transform="matrix(10.9091,0,0,-10.9091,122.79162,159.11009)" fill="#212121"/>
<use xlink:href="#font_1_31" transform="matrix(10.9091,0,0,-10.9091,127.84252,159.11009)" fill="#212121"/>
<use xlink:href="#font_1_c" transform="matrix(10.9091,0,0,-10.9091,136.35163,158.9901)" fill="#212121"/>
<use xlink:href="#font_1_30" transform="matrix(10.9091,0,0,-10.9091,143.06072,158.9901)" fill="#212121"/>
<use xlink:href="#font_1_18" transform="matrix(10.9091,0,0,-10.9091,146.2789,159.11009)" fill="#212121"/>
<use xlink:href="#font_1_31" transform="matrix(10.9091,0,0,-10.9091,151.02436,159.11009)" fill="#212121"/>
<use xlink:href="#font_1_18" transform="matrix(10.9091,0,0,-10.9091,155.2571,159.11009)" fill="#212121"/>
<use xlink:href="#font_1_25" transform="matrix(10.9091,0,0,-10.9091,160.52619,158.9901)" fill="#212121"/>
<use xlink:href="#font_1_34" transform="matrix(10.9091,0,0,-10.9091,165.4571,159.11009)" fill="#212121"/>
<use xlink:href="#font_1_12" transform="matrix(10.9091,0,0,-10.9091,169.67893,159.11009)" fill="#212121"/>
<use xlink:href="#font_1_34" transform="matrix(10.9091,0,0,-10.9091,174.56621,159.11009)" fill="#212121"/>
<use xlink:href="#font_1_21" transform="matrix(10.9091,0,0,-10.9091,179.07167,158.9901)" fill="#212121"/>
<use xlink:href="#font_1_27" transform="matrix(10.9091,0,0,-10.9091,181.19895,159.11009)" fill="#212121"/>
<use xlink:href="#font_1_25" transform="matrix(10.9091,0,0,-10.9091,187.11168,158.9901)" fill="#212121"/>
<use xlink:href="#font_1_31" transform="matrix(10.9091,0,0,-10.9091,192.1626,159.11009)" fill="#212121"/>
<use xlink:href="#font_1_16" transform="matrix(10.9091,0,0,-10.9091,197.04988,160.35373)" fill="#212121"/>
<use xlink:href="#font_1_36" transform="matrix(10.9091,0,0,-10.9091,203.08261,158.9901)" fill="#212121"/>
<use xlink:href="#font_1_3c" transform="matrix(10.9091,0,0,-10.9091,208.51535,159.2301)" fill="#212121"/>
<use xlink:href="#font_1_3c" transform="matrix(10.9091,0,0,-10.9091,213.93718,159.2301)" fill="#212121"/>
<use xlink:href="#font_1_35" transform="matrix(10.9091,0,0,-10.9091,219.3481,159.2192)" fill="#212121"/>
<symbol id="font_2_2">
<path d="M 0 .69200006 L 0 0 L .077 0 L .077 .316 L .38000003 .316 L .38000003 .37600003 L .077 .37600003 L .077 .62900009 L .42 .62900009 L .42 .69200006 L 0 .69200006 Z "/>
</symbol>
<symbol id="font_2_8">
<path d="M 0 .081 L 0 0 L .08100001 0 L .08100001 .081 L 0 .081 Z "/>
</symbol>
<symbol id="font_2_1">
<path d="M 0 .001 L .053000004 .001 C .056 .001 .060000004 0 .064 0 C .074 0 .078 .006 .080000009 .015000001 L .143 .18900001 C .14500001 .19800002 .14800002 .20400001 .16000001 .20400001 L .43100003 .20400001 C .44500003 .20300001 .462 .14 .473 .108 C .48300005 .082 .49200005 .056 .50200006 .030000002 L .509 .011000001 C .512 .003 .51500007 0 .524 0 C .52900007 0 .53400006 .001 .537 .001 L .592 .001 C .51500007 .21800001 .43400003 .43600003 .356 .65300008 L .344 .684 C .343 .688 .342 .693 .337 .69500008 L .264 .69500008 C .25100003 .69500008 .24900003 .69000008 .24700003 .68200007 L .19700001 .544 C .13200002 .363 .064 .18200001 0 .001 M .16800002 .26000003 L .294 .623 L .31100003 .565 L .419 .26000003 L .16800002 .26000003 Z "/>
</symbol>
<symbol id="font_2_b">
<path d="M .001000002 .45400004 L .001000002 .16700001 C .001000002 .15400002 0 .14000002 0 .126 C 0 .09300001 .0029999987 .059 .023000002 .033 C .043000007 .007 .075 0 .106000009 0 C .165 0 .23 .018000002 .27500005 .059 L .27500005 .010000001 L .35000003 .010000001 L .35000003 .45400004 L .273 .45400004 L .273 .179 C .273 .102000009 .23300003 .055000005 .14700002 .055000005 C .106000009 .055000005 .07800001 .072000008 .07800001 .12100001 L .07800001 .45400004 L .001000002 .45400004 Z "/>
</symbol>
<symbol id="font_2_a">
<path d="M .083000008 .58100005 L .083000008 .45400004 L 0 .45400004 L 0 .39600004 L .08100001 .39600004 L .08100001 .133 C .08100001 .08100001 .08900001 0 .162 0 C .214 0 .263 .014 .307 .038000004 L .292 .09600001 C .263 .079 .241 .062000004 .20300001 .062000004 C .16 .062000004 .153 .10700001 .153 .142 L .153 .39600004 L .291 .39600004 L .291 .45400004 L .153 .45400004 L .153 .58100005 L .083000008 .58100005 Z "/>
</symbol>
<symbol id="font_2_5">
<path d="M 0 .72900006 L 0 0 L .07700001 0 L .07700001 .23200001 C .07700001 .29200004 .088 .39400003 .17500001 .39400003 C .204 .39400003 .234 .38800005 .25300003 .36400003 C .27 .34400005 .273 .31700004 .273 .29000003 C .273 .27700005 .272 .26500003 .272 .25300003 L .272 0 L .349 0 L .349 .29500003 C .349 .33900003 .34500004 .38800005 .312 .42100004 C .286 .44700004 .24900002 .45400004 .21400002 .45400004 C .164 .45400004 .100999999 .42900003 .076000008 .38500003 L .075 .72900006 L 0 .72900006 Z "/>
</symbol>
<symbol id="font_2_7">
<path d="M .197 .469 C .07400001 .45200003 0 .34600003 0 .23200001 C 0 .124000009 .072000008 0 .21200001 0 C .34100003 0 .42200003 .11900001 .42200003 .23200001 C .42200003 .35000003 .337 .469 .208 .469 L .197 .469 M .07000001 .22500001 C .069000009 .23100002 .069000009 .23700002 .069000009 .24300002 C .069000009 .326 .123 .409 .21200001 .409 C .29900003 .409 .35200004 .328 .35200004 .24000001 C .35200004 .15400002 .30500005 .063 .21100003 .063 C .16 .063 .116000007 .09300001 .092 .13900002 C .07800001 .16600001 .07300001 .19500001 .07000001 .22500001 Z "/>
</symbol>
<symbol id="font_2_9">
<path d="M .070999998 .36200003 L .070999998 .44900004 L 0 .44900004 L 0 0 L .075 0 L .075 .20400001 C .075 .272 .095 .34200005 .186 .37800003 C .20400001 .38400004 .22200002 .38700003 .24100001 .38700003 L .24100001 .45400004 C .177 .45400004 .102 .41900004 .070999998 .36200003 Z "/>
</symbol>
<use xlink:href="#font_2_2" transform="matrix(11.9552,0,0,-11.9552,24.860789,182.89907)" fill="#212121"/>
<use xlink:href="#font_2_8" transform="matrix(11.9552,0,0,-11.9552,31.519835,182.89907)" fill="#212121"/>
<use xlink:href="#font_2_1" transform="matrix(11.9552,0,0,-11.9552,37.856096,182.91101)" fill="#212121"/>
<use xlink:href="#font_2_b" transform="matrix(11.9552,0,0,-11.9552,46.16496,183.0186)" fill="#212121"/>
<use xlink:href="#font_2_a" transform="matrix(11.9552,0,0,-11.9552,51.485025,183.0186)" fill="#212121"/>
<use xlink:href="#font_2_5" transform="matrix(11.9552,0,0,-11.9552,56.410566,182.89907)" fill="#212121"/>
<use xlink:href="#font_2_7" transform="matrix(11.9552,0,0,-11.9552,61.898,183.0186)" fill="#212121"/>
<use xlink:href="#font_2_9" transform="matrix(11.9552,0,0,-11.9552,67.95928,182.89907)" fill="#212121"/>
<symbol id="font_3_18">
<path d="M 0 .61100009 L 0 .54800006 C .04600001 .54800006 .095000009 .55300006 .13800001 .57100006 L .13800001 .063 L .0050000029 .063 L .0050000029 0 L .36100004 0 L .36100004 .063 L .22800002 .063 L .22800002 .67700007 L .21700001 .67700007 C .20200002 .67700007 .19500003 .66700008 .18400002 .65900006 C .13 .62100008 .064 .61100009 0 .61100009 Z "/>
</symbol>
<use xlink:href="#font_3_18" transform="matrix(7.9701,0,0,-7.9701,71.74822,179.25905)" fill="#212121"/>
<symbol id="font_2_3">
<path d="M .013 .15100001 C .009999998 .126 0 .09900001 0 .076000008 C 0 .056 .070999998 .028 .106000009 .018000002 C .143 .007000001 .18200001 0 .22 0 C .29700003 0 .39100004 .035000005 .42800004 .12900001 C .43800003 .15100001 .44400005 .175 .44500003 .199 L .44500003 .21000001 C .44500003 .29800005 .386 .37600003 .303 .40600003 C .231 .43300004 .142 .42600004 .098000008 .503 C .091000009 .518 .08600001 .535 .08600001 .552 C .08600001 .623 .156 .669 .21900001 .672 L .231 .672 C .28300003 .672 .33800004 .656 .37700004 .621 C .38400004 .615 .39000003 .609 .397 .605 C .40000005 .63 .41000004 .656 .41000004 .681 C .41000004 .698 .34300003 .721 .307 .72900006 C .282 .73300006 .25700004 .736 .23200003 .736 C .13700001 .736 .009999998 .677 .009999998 .53900006 C .009999998 .44800005 .081 .37700004 .16300002 .35400004 C .245 .33100004 .36900003 .32600004 .36900003 .198 L .36900003 .19 C .36200003 .12100001 .303 .07 .23500002 .06600001 L .222 .06600001 C .15300001 .06600001 .08600001 .09200001 .035 .134 C .028 .14 .021000002 .147 .013 .15100001 Z "/>
</symbol>
<symbol id="font_2_6">
<path d="M .073 .38100005 L .073 .44900004 L 0 .44900004 L 0 0 L .07700001 0 L .07700001 .23200001 C .07700001 .29200004 .088 .39400003 .17500001 .39400003 C .204 .39400003 .234 .38800005 .25300003 .36400003 C .27 .34400005 .273 .31700004 .273 .29000003 C .273 .27700005 .272 .26500003 .272 .25300003 L .272 0 L .349 0 L .349 .29600004 C .349 .37200005 .32900004 .45400004 .215 .45400004 C .16100002 .45400004 .09900001 .42700006 .073 .38100005 Z "/>
</symbol>
<symbol id="font_2_4">
<path d="M .359 .117000009 C .343 .106000009 .328 .09300001 .31 .08400001 C .281 .07000001 .24800001 .060000004 .216 .060000004 C .134 .060000004 .06300001 .132 .06300001 .23400001 L .368 .23400001 C .368 .34300003 .326 .469 .19500001 .469 C .07000001 .469 0 .34300003 0 .23100002 L 0 .22600001 C .0009999983 .11100001 .088 0 .21200001 0 C .255 0 .365 .029000003 .365 .059 C .365 .07800001 .36 .098000008 .359 .117000009 M .07000001 .289 C .07800001 .34300003 .13000001 .40500004 .18900001 .409 L .19500001 .409 C .274 .409 .30200003 .34500004 .315 .289 L .07000001 .289 Z "/>
</symbol>
<use xlink:href="#font_2_3" transform="matrix(11.9552,0,0,-11.9552,91.868038,183.15012)" fill="#212121"/>
<use xlink:href="#font_2_8" transform="matrix(11.9552,0,0,-11.9552,98.98138,182.89907)" fill="#212121"/>
<use xlink:href="#font_2_1" transform="matrix(11.9552,0,0,-11.9552,105.317638,182.91101)" fill="#212121"/>
<use xlink:href="#font_2_6" transform="matrix(11.9552,0,0,-11.9552,113.63845,182.89907)" fill="#212121"/>
<use xlink:href="#font_2_7" transform="matrix(11.9552,0,0,-11.9552,119.12589,183.0186)" fill="#212121"/>
<use xlink:href="#font_2_a" transform="matrix(11.9552,0,0,-11.9552,124.80461,183.0186)" fill="#212121"/>
<use xlink:href="#font_2_5" transform="matrix(11.9552,0,0,-11.9552,129.73017,182.89907)" fill="#212121"/>
<use xlink:href="#font_2_4" transform="matrix(11.9552,0,0,-11.9552,135.25347,183.0186)" fill="#212121"/>
<use xlink:href="#font_2_9" transform="matrix(11.9552,0,0,-11.9552,140.94414,182.89907)" fill="#212121"/>
<symbol id="font_3_20">
<path d="M .048 .45900003 C .064 .52900007 .10100001 .60700008 .19200002 .60700008 C .273 .60700008 .339 .54600009 .339 .46000005 C .339 .36400003 .263 .30000005 .19700001 .244 C .141 .19500001 .089 .143 .033 .093 C .020999998 .083000008 .008000001 .074 .008000001 .058000007 L .008000001 0 L .43200005 0 L .43200005 .078 L .088 .077 C .14400001 .12900001 .20400001 .18300002 .264 .23 C .339 .29000003 .43200005 .35300002 .43200005 .46400006 C .43200005 .53000006 .40000005 .596 .34600003 .63500007 C .30400003 .665 .25300003 .67700007 .201 .67700007 L .19500001 .67700007 C .10800001 .6750001 .039000006 .624 .004999999 .536 C .0029999987 .531 0 .52400007 0 .51900008 C .001000002 .512 .009 .50600007 .013 .50100007 C .024000004 .48700006 .035000005 .47100006 .048 .45900003 Z "/>
</symbol>
<use xlink:href="#font_3_20" transform="matrix(7.9701,0,0,-7.9701,144.35167,179.25905)" fill="#212121"/>
<symbol id="font_4_3">
<path d="M 0 .60400006 L 0 .527 C .052 .527 .104 .531 .15300001 .54700008 L .15300001 .077 L .0060000049 .077 L .0060000049 0 L .40899999 0 L .40899999 .077 L .264 .077 L .264 .669 C .259 .669 .25300003 .67 .24800001 .67 C .23300003 .67 .223 .65800008 .21100001 .651 C .14800002 .61300006 .073000017 .60400006 0 .60400006 Z "/>
</symbol>
<use xlink:href="#font_4_3" transform="matrix(5.9776,0,0,-5.9776,24.310864,194.37104)" fill="#212121"/>
<symbol id="font_3_3">
<path d="M 0 .69500008 L 0 .001 L .214 .001 C .23300003 .001 .25200004 0 .27100004 0 C .439 0 .609 .12900001 .609 .342 C .609 .50100007 .503 .67 .323 .693 C .30400003 .69500008 .28400005 .69500008 .265 .69500008 L 0 .69500008 M .098000008 .060000004 L .098000008 .63600006 L .242 .63600006 C .41400004 .63600006 .512 .504 .512 .342 C .512 .20300001 .42900003 .060000004 .249 .060000004 L .098000008 .060000004 Z "/>
</symbol>
<symbol id="font_3_10">
<path d="M .395 .11800001 C .38700003 .11400001 .37900005 .10800001 .37100003 .10300001 C .33100004 .08100001 .284 .06600001 .238 .06600001 C .16300002 .06600001 .07700001 .12300001 .07700001 .22900002 L .40500004 .22900002 C .40500004 .33100004 .36900003 .469 .21600002 .469 C .08600001 .469 0 .35300002 0 .23000002 L 0 .22600001 C .0020000004 .10100001 .10800001 0 .23400003 0 C .28800003 0 .34100003 .014 .38700003 .039 C .39400003 .042 .40100003 .046 .40100003 .055000005 C .40100003 .076000008 .39600004 .09700001 .395 .11800001 M .08400001 .289 C .10200001 .34700004 .14700002 .40300004 .21700001 .40300004 C .252 .40300004 .28800003 .388 .31100003 .36100004 C .32900004 .34000004 .337 .31500004 .344 .289 L .08400001 .289 Z "/>
</symbol>
<symbol id="font_3_19">
<path d="M .08400001 .59000006 L .08400001 .638 L 0 .638 L 0 0 L .087 0 L .087 .241 C .12900001 .20400001 .17999999 .184 .235 .184 C .35900004 .184 .42700006 .312 .42700006 .42000003 C .42700006 .503 .38300003 .648 .26700003 .648 C .202 .648 .135 .63100007 .08400001 .59000006 M .339 .403 C .33200003 .325 .273 .25 .18800001 .25 C .15300001 .25 .12300001 .26700003 .10000001 .294 C .094 .303 .087 .30900003 .087 .32200004 L .087 .468 C .087 .47900004 .085999999 .491 .085999999 .503 C .085999999 .549 .15 .579 .198 .579 C .28100003 .579 .34000004 .49700005 .34000004 .42000003 C .34000004 .41400004 .34000004 .408 .339 .403 Z "/>
</symbol>
<symbol id="font_3_c">
<path d="M .043000007 .35200004 C .096 .386 .143 .40500004 .20600002 .40500004 C .268 .40500004 .29400004 .34500004 .29400004 .29000003 L .29400004 .257 C .187 .257 0 .23300001 0 .128 C 0 .061 .049000004 0 .12200001 0 C .18300002 0 .246 .013 .297 .048 L .297 .010000001 L .38100005 .010000001 L .38100005 .289 C .38100005 .36900003 .33500005 .462 .219 .469 L .20800002 .469 C .155 .469 .106000009 .45900003 .057000005 .43600003 C .049000004 .43300004 .037 .42900003 .037 .418 C .037 .397 .042000005 .374 .043000007 .35200004 M .29400004 .201 L .29400004 .157 C .29400004 .09900001 .251 .06600001 .179 .06600001 C .143 .06600001 .08 .079 .08 .12900001 C .08 .17700002 .16600001 .18800001 .2 .19300002 C .23100002 .19800002 .263 .19900002 .29400004 .201 Z "/>
</symbol>
<symbol id="font_3_1d">
<path d="M .07700001 .35900004 L .07700001 .45100004 L 0 .45100004 L 0 0 L .08400001 0 L .08400001 .2 C .08400001 .30200003 .15100001 .38000003 .263 .38000003 L .263 .45400004 C .18700002 .45400004 .12900001 .41900004 .07700001 .35900004 Z "/>
</symbol>
<symbol id="font_3_1f">
<path d="M .09 .58100005 L .09 .45400004 L 0 .45400004 L 0 .39100004 L .087000008 .39100004 L .087000008 .14500001 C .087000008 .09 .092 0 .17600002 0 C .23200001 0 .283 .014 .334 .037 L .317 .10100001 C .283 .08200001 .257 .069000009 .22000002 .069000009 C .17000002 .069000009 .16700001 .128 .16700001 .16200002 L .16700001 .39100004 L .316 .39100004 L .316 .45400004 L .16700001 .45400004 L .16700001 .58100005 L .09 .58100005 Z "/>
</symbol>
<symbol id="font_3_15">
<path d="M .081 .37800003 L .081 .45100004 L 0 .45100004 L 0 0 L .087 0 L .087 .22700002 C .087 .28800003 .10100001 .38800005 .19100002 .38800005 C .252 .38800005 .296 .36100004 .296 .28300003 C .296 .27000005 .29500003 .256 .29500003 .244 L .29500003 0 L .38200004 0 L .38200004 .22700002 C .38200004 .28800003 .39600004 .38800005 .486 .38800005 C .54700008 .38800005 .591 .36100004 .591 .28300003 C .591 .27000005 .59000006 .256 .59000006 .244 L .59000006 0 L .67700007 0 L .67700007 .237 C .67700007 .25300003 .67800006 .27000005 .67800006 .28700004 C .67800006 .32800005 .67300006 .37400005 .64900007 .40600003 C .62200006 .44300006 .574 .45400004 .53000006 .45400004 C .46500004 .45400004 .40800003 .42200003 .37100003 .37300004 C .349 .43400005 .296 .45400004 .238 .45400004 C .183 .45400004 .11 .42800004 .081 .37800003 Z "/>
</symbol>
<symbol id="font_3_16">
<path d="M .08 .37900005 L .08 .45100004 L 0 .45100004 L 0 0 L .087 0 L .087 .22600001 C .087 .28900004 .10000001 .38800005 .192 .38800005 C .25100003 .38800005 .29500003 .36100004 .29500003 .28300003 C .29500003 .27000005 .294 .256 .294 .244 L .294 0 L .381 0 L .381 .23500002 C .381 .25200004 .38200004 .26900003 .38200004 .28700004 C .38200004 .36700005 .36 .45400004 .23500002 .45400004 C .17200002 .45400004 .12400001 .42800004 .08 .37900005 Z "/>
</symbol>
<symbol id="font_3_17">
<path d="M .22 .469 C .098000008 .45700003 0 .358 0 .23000002 C 0 .11200001 .094000007 0 .238 0 C .36 0 .47 .09900001 .47 .22800002 C .47 .35300002 .37100003 .47000004 .234 .47000004 C .229 .47000004 .22500003 .469 .22 .469 M .087000008 .22500001 C .086 .23100002 .086 .23700002 .086 .24300002 C .086 .32700003 .14400001 .40300004 .23500002 .40300004 C .326 .40300004 .38300003 .32900004 .38300003 .24000001 C .38300003 .15100001 .32900004 .069000009 .234 .069000009 C .15200001 .069000009 .097 .132 .087000008 .22500001 Z "/>
</symbol>
<symbol id="font_3_11">
<path d="M .07700001 .44400005 L 0 .44400005 L 0 .38100005 L .07700001 .38100005 L .07700001 0 L .16100002 0 L .16100002 .38100005 L .27600003 .38100005 L .27600003 .44400005 L .158 .44400005 L .158 .54700008 C .158 .55500009 .157 .564 .157 .573 C .157 .632 .20900002 .656 .25700004 .656 C .28800003 .656 .31300003 .64800009 .34000004 .6380001 L .34000004 .7120001 C .314 .71800008 .28700004 .72200009 .259 .72200009 C .19400002 .72200009 .11400001 .69000008 .08600001 .60200008 C .07700001 .57500007 .07700001 .54700008 .07700001 .51900008 L .07700001 .44400005 Z "/>
</symbol>
<symbol id="font_3_2">
<path d="M .551 .133 C .53 .12200001 .5120001 .10800001 .49100004 .09700001 C .45000003 .076000008 .40300004 .07 .358 .07 C .19300002 .07 .10100001 .224 .10100001 .367 C .10100001 .509 .18800003 .666 .35900004 .666 C .39800004 .665 .438 .657 .474 .64100006 C .49400006 .632 .51100006 .62 .53 .61 L .546 .70100006 C .48100005 .722 .41900004 .736 .35000003 .736 C .149 .736 0 .561 0 .367 C 0 .179 .141 0 .35300002 0 C .42700003 0 .47800002 .015000001 .549 .051000004 C .553 .054000006 .55799999 .055 .55799999 .062000008 C .55799999 .086 .55200007 .109000008 .551 .133 Z "/>
</symbol>
<symbol id="font_3_21">
<path d="M 0 .45400004 L 0 .12200001 C 0 .08800001 .0029999987 .053000004 .026 .028 C .047000007 .0050000005 .07800001 0 .10800001 0 C .174 0 .24400002 .015000001 .29700003 .056 L .29700003 .010000001 L .381 .010000001 L .381 .45400004 L .294 .45400004 L .294 .17600002 C .294 .15400002 .294 .135 .28300003 .11500001 C .261 .07400001 .21400002 .059 .17000002 .059 L .167 .059 C .132 .059 .087 .060000004 .087 .12300001 L .087 .45400004 L 0 .45400004 Z "/>
</symbol>
<symbol id="font_3_9">
<path d="M .015000001 .16 L .0030000024 .094000007 C .0020000004 .08900001 .001000002 .083000008 0 .078 L 0 .074 C 0 .059 .07400001 .030000002 .11300001 .019000002 C .153 .007000001 .19600001 0 .238 0 C .324 0 .41300003 .034 .461 .124000009 C .474 .15100001 .48200003 .18100001 .48200003 .21100001 C .48200003 .31700004 .40100003 .39500005 .307 .41800005 C .284 .42300005 .261 .42900003 .238 .43400005 C .18100003 .45000003 .09800001 .46700005 .09800001 .55 C .09800001 .625 .18400002 .663 .24700001 .663 C .303 .663 .35700003 .649 .404 .616 C .41300003 .609 .421 .602 .43 .596 L .442 .662 C .44300003 .667 .444 .67300006 .44500003 .67800006 L .44500003 .68200007 C .44500003 .68700006 .441 .69 .43600003 .69200006 L .418 .70100006 C .367 .72400006 .312 .736 .255 .736 C .16500002 .736 .060000004 .699 .021000006 .596 C .015000001 .577 .011000004 .557 .011000004 .537 C .011000004 .45800004 .06600001 .39400003 .134 .36300005 C .16100002 .35100005 .19100002 .34500004 .22 .33800004 C .28100003 .323 .354 .31500004 .38500003 .246 C .39200003 .23200001 .395 .21700001 .395 .202 C .395 .12300001 .315 .076000008 .24400002 .076000008 C .18400002 .076000008 .124000009 .09300001 .072000008 .12100001 C .052 .133 .034 .147 .015000001 .16 Z "/>
</symbol>
<symbol id="font_3_d">
<path d="M .4 .12000001 C .384 .11200001 .36900003 .102000009 .35300002 .094000007 C .314 .07700001 .272 .069000009 .22900002 .069000009 L .22000002 .069000009 C .13100001 .079 .087 .156 .087 .23300001 C .087 .31800003 .136 .40100003 .24100001 .40100003 C .275 .40100003 .308 .39400003 .338 .381 C .35500003 .37300004 .37 .36200003 .387 .35400004 C .393 .374 .39900003 .40100003 .39900003 .41900004 C .39900003 .45700003 .24800001 .469 .23500003 .469 C .10100001 .469 .0069999995 .365 0 .24400002 L 0 .23200001 C 0 .109000008 .10000001 0 .23 0 C .287 0 .34 .012 .391 .038000004 C .398 .041 .40600003 .044 .40600003 .054 C .40600003 .075 .401 .098000008 .4 .12000001 Z "/>
</symbol>
<symbol id="font_3_13">
<path d="M .009000003 .44400005 L .009000003 0 L .09300001 0 L .09300001 .44400005 L .009000003 .44400005 M 0 .68600007 L 0 .58500006 L .10100001 .58500006 L .10100001 .68600007 L 0 .68600007 Z "/>
</symbol>
<symbol id="font_3_b">
<path d="M 0 .71500006 L 0 .27800004 C 0 .22500001 .0060000049 .178 .032000007 .133 C .081 .048 .17500001 0 .27100004 0 C .39900003 0 .508 .08800001 .531 .21100001 C .53400006 .23400001 .53400006 .25700004 .53400006 .28000004 L .53400006 .71500006 L .44700004 .71500006 L .44700004 .28000004 C .44700004 .21000001 .43700005 .13700001 .374 .09200001 C .344 .07 .30800004 .059 .27100004 .059 C .16300002 .059 .10000001 .15100001 .10000001 .268 C .10000001 .28700004 .10100001 .30600003 .10100001 .32500003 L .10100001 .71500006 L 0 .71500006 Z "/>
</symbol>
<symbol id="font_3_22">
<path d="M 0 .44500003 C .0040000008 .43100003 .011 .418 .016 .404 L .17 .029000001 C .177 .013 .177 0 .194 0 C .19800002 0 .20300001 .001 .20600002 .001 L .254 .001 C .25700004 .001 .26100005 0 .265 0 C .283 0 .28500004 .025 .292 .039 C .33200003 .136 .37200005 .23400001 .412 .33100004 L .44200004 .404 C .44700004 .418 .454 .43100003 .458 .44500003 L .39000006 .44500003 C .374 .44500003 .371 .43 .36700005 .41700004 C .333 .335 .29900003 .25300003 .268 .17 C .254 .133 .23800002 .096 .231 .057000005 C .20700002 .15400002 .163 .24900002 .125 .34300003 C .11600001 .367 .106000009 .39200003 .09600001 .416 L .08800001 .43500004 C .086 .44200004 .083000008 .44500003 .075 .44500003 L 0 .44500003 Z "/>
</symbol>
<symbol id="font_3_1e">
<path d="M .012000002 .12000001 C .009 .09700001 0 .072000008 0 .05 C 0 .025000003 .112 .0060000007 .125 .004 C .14400001 0 .164 0 .18400002 0 C .25500003 0 .35300002 .029000003 .35300002 .134 C .35300002 .21900001 .284 .26900003 .20300001 .28100003 C .164 .28800003 .083000008 .293 .083000008 .34800003 C .083000008 .39200003 .132 .40500004 .16700001 .40500004 C .224 .40500004 .26700003 .39200003 .32200004 .36600004 L .335 .43800003 C .28300003 .45800004 .234 .469 .179 .469 C .102 .469 .004999999 .439 .004999999 .337 C .004999999 .24300002 .094000007 .21400002 .16700001 .19900002 C .20600002 .19200002 .27400003 .18500002 .27400003 .13000001 C .27400003 .080000009 .216 .068 .17600002 .068 C .11500001 .068 .066 .09 .012000002 .12000001 Z "/>
</symbol>
<symbol id="font_3_24">
<path d="M 0 .648 C .005000001 .63400009 .012 .62100008 .018 .60800006 L .053000004 .533 C .098000008 .43700005 .14400001 .34000004 .18800001 .24300002 C .194 .23200001 .20300001 .21700001 .20500002 .20600002 L .20500002 .20400001 C .20500002 .19800002 .202 .192 .2 .18800001 L .18300002 .15 C .16600001 .11000001 .149 .060000004 .10700001 .060000004 C .07700001 .060000004 .050000006 .069000009 .023000002 .079 L .029000003 .008000001 C .056 .003999993 .082 0 .109000008 0 L .119 0 C .16900002 .0059999974 .19800002 .055000009 .21700001 .096 C .235 .13300002 .251 .171 .26700003 .209 C .325 .338 .38200004 .469 .43700005 .59900006 C .444 .615 .45200003 .63100007 .458 .648 L .389 .648 C .37300004 .648 .37 .63400009 .366 .62100008 C .32100005 .518 .274 .41500003 .244 .30600003 C .24100001 .291 .237 .27600003 .237 .26000003 L .23600002 .26000003 C .23600002 .30200003 .215 .35000003 .2 .389 C .17 .46400003 .13800001 .536 .104 .609 C .098000008 .62200006 .091000009 .635 .086 .648 L 0 .648 Z "/>
</symbol>
<symbol id="font_3_23">
<path d="M 0 .44500003 C .008000001 .41500003 .019000002 .386 .029000003 .35700003 C .065000008 .25 .098000008 .141 .135 .034 C .14 .016 .142 0 .156 0 C .15900001 0 .162 .001 .165 .001 L .22100002 .001 C .23600002 .001 .23800002 .027 .24300002 .039 C .27500005 .143 .311 .24400002 .337 .349 C .34000004 .36200003 .343 .37500004 .343 .38900004 L .37200005 .26900003 L .45700003 .001 L .54 .001 L .54800006 .003 L .69500008 .44500003 L .61800006 .44500003 L .52700009 .162 L .499 .057000005 C .49600006 .093 .48300005 .13000001 .472 .165 C .44600005 .25 .416 .33600004 .39000006 .42200003 C .388 .42800004 .38600005 .44300003 .379 .44500003 L .315 .44500003 C .306 .44500003 .305 .44200004 .302 .43400003 L .296 .41500003 C .26100005 .314 .22900002 .21100001 .202 .10700001 C .19800002 .091000009 .194 .074 .194 .057000005 L .193 .057000005 C .193 .076000008 .18800001 .095000009 .18300002 .113000009 C .164 .19100002 .13900002 .268 .11500001 .344 C .104 .377 .091000009 .411 .082 .44500003 L 0 .44500003 Z "/>
</symbol>
<symbol id="font_3_12">
<path d="M 0 .7120001 L 0 0 L .087 0 L .087 .22600001 C .087 .28900004 .10000001 .38800005 .192 .38800005 C .25100003 .38800005 .29500003 .36100004 .29500003 .28300003 C .29500003 .27000005 .294 .256 .294 .244 L .294 0 L .381 0 L .381 .28300003 C .381 .32000003 .379 .35800005 .36200003 .39100004 C .33800004 .43800003 .287 .45400004 .23700002 .45400004 C .18400002 .45400004 .118 .43200005 .08500001 .38300003 L .08400001 .7120001 L 0 .7120001 Z "/>
</symbol>
<use xlink:href="#font_3_3" transform="matrix(7.9701,0,0,-7.9701,28.525086,197.35701)" fill="#212121"/>
<use xlink:href="#font_3_10" transform="matrix(7.9701,0,0,-7.9701,34.136037,197.42874)" fill="#212121"/>
<use xlink:href="#font_3_19" transform="matrix(7.9701,0,0,-7.9701,38.288457,198.89524)" fill="#212121"/>
<use xlink:href="#font_3_c" transform="matrix(7.9701,0,0,-7.9701,42.353208,197.42874)" fill="#212121"/>
<use xlink:href="#font_3_1d" transform="matrix(7.9701,0,0,-7.9701,46.497659,197.34905)" fill="#212121"/>
<use xlink:href="#font_3_1f" transform="matrix(7.9701,0,0,-7.9701,48.87275,197.42874)" fill="#212121"/>
<use xlink:href="#font_3_15" transform="matrix(7.9701,0,0,-7.9701,52.435388,197.34905)" fill="#212121"/>
<use xlink:href="#font_3_10" transform="matrix(7.9701,0,0,-7.9701,58.779588,197.42874)" fill="#212121"/>
<use xlink:href="#font_3_16" transform="matrix(7.9701,0,0,-7.9701,62.924039,197.34905)" fill="#212121"/>
<use xlink:href="#font_3_1f" transform="matrix(7.9701,0,0,-7.9701,66.79751,197.42874)" fill="#212121"/>
<use xlink:href="#font_3_17" transform="matrix(7.9701,0,0,-7.9701,72.76711,197.42874)" fill="#212121"/>
<use xlink:href="#font_3_11" transform="matrix(7.9701,0,0,-7.9701,76.98329,197.34905)" fill="#212121"/>
<use xlink:href="#font_3_2" transform="matrix(7.9701,0,0,-7.9701,82.70583,197.51642)" fill="#212121"/>
<use xlink:href="#font_3_17" transform="matrix(7.9701,0,0,-7.9701,87.82264,197.42874)" fill="#212121"/>
<use xlink:href="#font_3_15" transform="matrix(7.9701,0,0,-7.9701,92.47718,197.34905)" fill="#212121"/>
<use xlink:href="#font_3_19" transform="matrix(7.9701,0,0,-7.9701,99.21191,198.89524)" fill="#212121"/>
<use xlink:href="#font_3_21" transform="matrix(7.9701,0,0,-7.9701,103.57953,197.42874)" fill="#212121"/>
<use xlink:href="#font_3_1f" transform="matrix(7.9701,0,0,-7.9701,107.452999,197.42874)" fill="#212121"/>
<use xlink:href="#font_3_10" transform="matrix(7.9701,0,0,-7.9701,110.633068,197.42874)" fill="#212121"/>
<use xlink:href="#font_3_1d" transform="matrix(7.9701,0,0,-7.9701,114.785488,197.34905)" fill="#212121"/>
<use xlink:href="#font_3_9" transform="matrix(7.9701,0,0,-7.9701,120.21313,197.51642)" fill="#212121"/>
<use xlink:href="#font_3_d" transform="matrix(7.9701,0,0,-7.9701,124.81985,197.42874)" fill="#212121"/>
<use xlink:href="#font_3_13" transform="matrix(7.9701,0,0,-7.9701,128.89258,197.34905)" fill="#212121"/>
<use xlink:href="#font_3_10" transform="matrix(7.9701,0,0,-7.9701,130.5902,197.42874)" fill="#212121"/>
<use xlink:href="#font_3_16" transform="matrix(7.9701,0,0,-7.9701,134.73465,197.34905)" fill="#212121"/>
<use xlink:href="#font_3_d" transform="matrix(7.9701,0,0,-7.9701,138.73564,197.42874)" fill="#212121"/>
<use xlink:href="#font_3_10" transform="matrix(7.9701,0,0,-7.9701,142.48955,197.42874)" fill="#212121"/>
<use xlink:href="#font_3_b" transform="matrix(7.9701,0,0,-7.9701,24.510115,206.98043)" fill="#212121"/>
<use xlink:href="#font_3_16" transform="matrix(7.9701,0,0,-7.9701,30.208737,206.81305)" fill="#212121"/>
<use xlink:href="#font_3_13" transform="matrix(7.9701,0,0,-7.9701,34.52056,206.81305)" fill="#212121"/>
<use xlink:href="#font_3_22" transform="matrix(7.9701,0,0,-7.9701,36.05879,206.82102)" fill="#212121"/>
<use xlink:href="#font_3_10" transform="matrix(7.9701,0,0,-7.9701,40.12354,206.89275)" fill="#212121"/>
<use xlink:href="#font_3_1d" transform="matrix(7.9701,0,0,-7.9701,44.27596,206.81305)" fill="#212121"/>
<use xlink:href="#font_3_1e" transform="matrix(7.9701,0,0,-7.9701,46.73872,206.89275)" fill="#212121"/>
<use xlink:href="#font_3_13" transform="matrix(7.9701,0,0,-7.9701,50.34121,206.81305)" fill="#212121"/>
<use xlink:href="#font_3_1f" transform="matrix(7.9701,0,0,-7.9701,51.919286,206.89275)" fill="#212121"/>
<use xlink:href="#font_3_24" transform="matrix(7.9701,0,0,-7.9701,54.700857,208.43895)" fill="#212121"/>
<use xlink:href="#font_3_17" transform="matrix(7.9701,0,0,-7.9701,61.54717,206.89275)" fill="#212121"/>
<use xlink:href="#font_3_11" transform="matrix(7.9701,0,0,-7.9701,65.76335,206.81305)" fill="#212121"/>
<use xlink:href="#font_3_9" transform="matrix(7.9701,0,0,-7.9701,71.34243,206.98043)" fill="#212121"/>
<use xlink:href="#font_3_17" transform="matrix(7.9701,0,0,-7.9701,75.90133,206.89275)" fill="#212121"/>
<use xlink:href="#font_3_15" transform="matrix(7.9701,0,0,-7.9701,80.55587,206.81305)" fill="#212121"/>
<use xlink:href="#font_3_10" transform="matrix(7.9701,0,0,-7.9701,86.90006,206.89275)" fill="#212121"/>
<use xlink:href="#font_3_23" transform="matrix(7.9701,0,0,-7.9701,90.50255,206.82102)" fill="#212121"/>
<use xlink:href="#font_3_12" transform="matrix(7.9701,0,0,-7.9701,96.83081,206.81305)" fill="#212121"/>
<use xlink:href="#font_3_10" transform="matrix(7.9701,0,0,-7.9701,100.82383,206.89275)" fill="#212121"/>
<use xlink:href="#font_3_1d" transform="matrix(7.9701,0,0,-7.9701,104.97625,206.81305)" fill="#212121"/>
<use xlink:href="#font_3_10" transform="matrix(7.9701,0,0,-7.9701,107.47886,206.89275)" fill="#212121"/>
<symbol id="font_4_6">
<path d="M .06300001 .45600004 C .083000008 .52300009 .12500002 .58300009 .21100003 .58300009 C .284 .58300009 .36 .53400006 .36 .45000006 C .36 .35000003 .26900003 .29200004 .199 .24100001 C .141 .2 .08700001 .15200001 .032 .106000009 C .022000004 .097 .0069999995 .09 .0069999995 .074 C .0069999995 .069 .008000001 .064 .008000001 .059000005 L .008000001 0 L .476 0 L .476 .096 L .10900001 .095 C .13000001 .113000009 .15300001 .12900001 .17500001 .146 C .22800002 .18800001 .28000004 .224 .33400003 .26100005 C .40300004 .30700005 .476 .36100004 .476 .45300005 C .476 .58400008 .35700003 .669 .22800002 .669 C .13100001 .669 .048000006 .62700006 .0040000008 .54 C .0020000004 .53700008 0 .53400006 0 .53000006 L 0 .52800008 C 0 .522 .010000002 .513 .015999999 .507 L .044999999 .47500003 C .051000004 .46900005 .056000007 .46200005 .06300001 .45600004 Z "/>
</symbol>
<use xlink:href="#font_4_6" transform="matrix(5.9776,0,0,-5.9776,24.041872,221.76604)" fill="#212121"/>
<symbol id="font_3_a">
<path d="M 0 .68700006 L 0 .61600008 L .274 .61600008 L .274 0 L .375 0 L .375 .61700007 L .64900007 .61700007 L .64900007 .68700006 L 0 .68700006 Z "/>
</symbol>
<symbol id="font_3_14">
<path d="M 0 .7120001 L 0 0 L .08400001 0 L .08400001 .7120001 L 0 .7120001 Z "/>
</symbol>
<symbol id="font_3_8">
<path d="M 0 .69400009 L 0 0 L .10100001 0 L .10100001 .28500004 L .292 .28500004 C .40100003 .293 .521 .36900003 .521 .49000005 C .521 .623 .38300003 .69500008 .26100005 .69500008 C .24300002 .69500008 .226 .69400009 .20800002 .69400009 L 0 .69400009 M .098000008 .34700004 L .098000008 .63500007 L .25800003 .63500007 C .338 .63500007 .43 .58500006 .43 .49100004 C .43 .43100003 .39200003 .38700003 .338 .36300005 C .29800005 .34700004 .25599999 .34700004 .21300002 .34700004 L .098000008 .34700004 Z "/>
</symbol>
<symbol id="font_3_4">
<path d="M 0 .69100007 L 0 0 L .496 0 L .496 .079 L .10100001 .079 L .10100001 .32600004 L .45200003 .32600004 L .45200003 .39200003 L .10100001 .39200003 L .10100001 .62100008 L .481 .62100008 L .481 .69100007 L 0 .69100007 Z "/>
</symbol>
<use xlink:href="#font_3_3" transform="matrix(7.9701,0,0,-7.9701,28.525086,224.75202)" fill="#212121"/>
<use xlink:href="#font_3_10" transform="matrix(7.9701,0,0,-7.9701,34.136037,224.82375)" fill="#212121"/>
<use xlink:href="#font_3_19" transform="matrix(7.9701,0,0,-7.9701,38.288457,226.29024)" fill="#212121"/>
<use xlink:href="#font_3_c" transform="matrix(7.9701,0,0,-7.9701,42.353208,224.82375)" fill="#212121"/>
<use xlink:href="#font_3_1d" transform="matrix(7.9701,0,0,-7.9701,46.48969,224.74405)" fill="#212121"/>
<use xlink:href="#font_3_1f" transform="matrix(7.9701,0,0,-7.9701,48.87275,224.82375)" fill="#212121"/>
<use xlink:href="#font_3_15" transform="matrix(7.9701,0,0,-7.9701,52.435388,224.74405)" fill="#212121"/>
<use xlink:href="#font_3_10" transform="matrix(7.9701,0,0,-7.9701,58.779588,224.82375)" fill="#212121"/>
<use xlink:href="#font_3_16" transform="matrix(7.9701,0,0,-7.9701,62.924039,224.74405)" fill="#212121"/>
<use xlink:href="#font_3_1f" transform="matrix(7.9701,0,0,-7.9701,66.79751,224.82375)" fill="#212121"/>
<use xlink:href="#font_3_17" transform="matrix(7.9701,0,0,-7.9701,72.76711,224.82375)" fill="#212121"/>
<use xlink:href="#font_3_11" transform="matrix(7.9701,0,0,-7.9701,76.98329,224.74405)" fill="#212121"/>
<use xlink:href="#font_3_a" transform="matrix(7.9701,0,0,-7.9701,82.4747,224.74405)" fill="#212121"/>
<use xlink:href="#font_3_12" transform="matrix(7.9701,0,0,-7.9701,88.61965,224.74405)" fill="#212121"/>
<use xlink:href="#font_3_10" transform="matrix(7.9701,0,0,-7.9701,92.61267,224.82375)" fill="#212121"/>
<use xlink:href="#font_3_17" transform="matrix(7.9701,0,0,-7.9701,96.33471,224.82375)" fill="#212121"/>
<use xlink:href="#font_3_1d" transform="matrix(7.9701,0,0,-7.9701,100.75811,224.74405)" fill="#212121"/>
<use xlink:href="#font_3_10" transform="matrix(7.9701,0,0,-7.9701,103.26072,224.82375)" fill="#212121"/>
<use xlink:href="#font_3_1f" transform="matrix(7.9701,0,0,-7.9701,106.90305,224.82375)" fill="#212121"/>
<use xlink:href="#font_3_13" transform="matrix(7.9701,0,0,-7.9701,110.401927,224.74405)" fill="#212121"/>
<use xlink:href="#font_3_d" transform="matrix(7.9701,0,0,-7.9701,112.10753,224.82375)" fill="#212121"/>
<use xlink:href="#font_3_c" transform="matrix(7.9701,0,0,-7.9701,115.94115,224.82375)" fill="#212121"/>
<use xlink:href="#font_3_14" transform="matrix(7.9701,0,0,-7.9701,120.31673,224.74405)" fill="#212121"/>
<use xlink:href="#font_3_8" transform="matrix(7.9701,0,0,-7.9701,125.26616,224.74405)" fill="#212121"/>
<use xlink:href="#font_3_12" transform="matrix(7.9701,0,0,-7.9701,130.5583,224.74405)" fill="#212121"/>
<use xlink:href="#font_3_13" transform="matrix(7.9701,0,0,-7.9701,134.87014,224.74405)" fill="#212121"/>
<use xlink:href="#font_3_14" transform="matrix(7.9701,0,0,-7.9701,136.9583,224.74405)" fill="#212121"/>
<use xlink:href="#font_3_17" transform="matrix(7.9701,0,0,-7.9701,138.54434,224.82375)" fill="#212121"/>
<use xlink:href="#font_3_1e" transform="matrix(7.9701,0,0,-7.9701,142.77646,224.82375)" fill="#212121"/>
<use xlink:href="#font_3_17" transform="matrix(7.9701,0,0,-7.9701,146.0203,224.82375)" fill="#212121"/>
<use xlink:href="#font_3_19" transform="matrix(7.9701,0,0,-7.9701,150.6828,226.29024)" fill="#212121"/>
<use xlink:href="#font_3_12" transform="matrix(7.9701,0,0,-7.9701,155.0504,224.74405)" fill="#212121"/>
<use xlink:href="#font_3_24" transform="matrix(7.9701,0,0,-7.9701,158.88402,226.36995)" fill="#212121"/>
<use xlink:href="#font_3_b" transform="matrix(7.9701,0,0,-7.9701,24.510115,234.37642)" fill="#212121"/>
<use xlink:href="#font_3_16" transform="matrix(7.9701,0,0,-7.9701,30.208737,234.20905)" fill="#212121"/>
<use xlink:href="#font_3_13" transform="matrix(7.9701,0,0,-7.9701,34.52056,234.20905)" fill="#212121"/>
<use xlink:href="#font_3_22" transform="matrix(7.9701,0,0,-7.9701,36.05879,234.21701)" fill="#212121"/>
<use xlink:href="#font_3_10" transform="matrix(7.9701,0,0,-7.9701,40.12354,234.28874)" fill="#212121"/>
<use xlink:href="#font_3_1d" transform="matrix(7.9701,0,0,-7.9701,44.27596,234.20905)" fill="#212121"/>
<use xlink:href="#font_3_1e" transform="matrix(7.9701,0,0,-7.9701,46.73872,234.28874)" fill="#212121"/>
<use xlink:href="#font_3_13" transform="matrix(7.9701,0,0,-7.9701,50.34121,234.20905)" fill="#212121"/>
<use xlink:href="#font_3_1f" transform="matrix(7.9701,0,0,-7.9701,51.919286,234.28874)" fill="#212121"/>
<use xlink:href="#font_3_24" transform="matrix(7.9701,0,0,-7.9701,54.700857,235.83495)" fill="#212121"/>
<use xlink:href="#font_3_17" transform="matrix(7.9701,0,0,-7.9701,61.54717,234.28874)" fill="#212121"/>
<use xlink:href="#font_3_11" transform="matrix(7.9701,0,0,-7.9701,65.76335,234.20905)" fill="#212121"/>
<use xlink:href="#font_3_4" transform="matrix(7.9701,0,0,-7.9701,71.72499,234.20905)" fill="#212121"/>
<use xlink:href="#font_3_14" transform="matrix(7.9701,0,0,-7.9701,76.70631,234.20905)" fill="#212121"/>
<use xlink:href="#font_3_1e" transform="matrix(7.9701,0,0,-7.9701,78.29236,234.28874)" fill="#212121"/>
<use xlink:href="#font_3_10" transform="matrix(7.9701,0,0,-7.9701,81.576038,234.28874)" fill="#212121"/>
<use xlink:href="#font_3_23" transform="matrix(7.9701,0,0,-7.9701,85.17852,234.21701)" fill="#212121"/>
<use xlink:href="#font_3_12" transform="matrix(7.9701,0,0,-7.9701,91.50678,234.20905)" fill="#212121"/>
<use xlink:href="#font_3_10" transform="matrix(7.9701,0,0,-7.9701,95.4998,234.28874)" fill="#212121"/>
<use xlink:href="#font_3_1d" transform="matrix(7.9701,0,0,-7.9701,99.65222,234.20905)" fill="#212121"/>
<use xlink:href="#font_3_10" transform="matrix(7.9701,0,0,-7.9701,102.15483,234.28874)" fill="#212121"/>
<g>
<clipPath id="cp5">
<path transform="matrix(.27126,0,0,-.27126,352.823,233.37702)" d="M 0 0 L 275.45378 0 L 275.45378 294.72856 L 0 294.72856 Z "/>
</clipPath>
<g clip-path="url(#cp5)">
<path transform="matrix(.27126,0,0,.27126,352.823,153.42896)" d="M 181.215 159.961 L 181.164 111.031 L 138.719 86.613 L 96.387 111.148 L 96.438 160.078 L 138.883 184.496 Z M 181.215 159.961 "/>
<path transform="matrix(.27126,0,0,.27126,352.823,153.42896)" d="M 0 161.422 L 138.938 240.012 L 181.215 215.488 L 180.996 174.176 L 138.68 198.832 L 36.535 139.875 L 37.004 77.105 L 134.973 20.543 L 99.367 0 L 1.141 56.711 Z M 0 161.422 "/>
<path transform="matrix(.27126,0,0,.27126,352.823,153.42896)" d="M 229.652 243.359 L 228.242 83.742 L 185.867 59.391 L 150.199 80.238 L 192.711 104.555 L 192.723 222.496 L 138.129 253.473 L 40.16 196.91 L 40.172 238.016 L 138.398 294.73 Z M 229.652 243.359 "/>
<path transform="matrix(.27126,0,0,.27126,352.823,153.42896)" d="M 185.344 2.156 L 47.812 83.184 L 47.91 132.059 L 83.801 152.523 L 83.602 103.551 L 185.738 44.57 L 239.863 76.359 L 239.863 189.488 L 275.453 168.922 L 275.453 55.5 Z M 185.344 2.156 "/>
</g>
</g>
</g>
</g>
</svg>
