<?xml version="1.0" encoding="UTF-8" standalone="no"?>
<!DOCTYPE svg PUBLIC "-//W3C//DTD SVG 1.1//EN" "http://www.w3.org/Graphics/SVG/1.1/DTD/svg11.dtd">
<svg xmlns="http://www.w3.org/2000/svg" xmlns:xlink="http://www.w3.org/1999/xlink" version="1.1" width="453.543pt" height="255.118pt" viewBox="0 0 453.543 255.118">
<g enable-background="new">
<path transform="matrix(1,0,0,-1,0,255.118)" d="M 0 0 L 453.543 0 L 453.543 255.118 L 0 255.118 Z " fill="#ffffff"/>
<path transform="matrix(1,0,0,-1,0,29.888)" d="M 0 0 L 453.543 0 L 453.543 24.907 L 0 24.907 Z " fill="#ffffff"/>
<path transform="matrix(1,0,0,-1,0,29.888)" d="M 0 0 L 0 29.8883 L 453.54914 29.8883 L 453.54914 0 Z M 453.54914 29.8883 " fill="#ffffff"/>
<path transform="matrix(1,0,0,-1,0,29.888)" d="M 4.98138 0 L 4.98138 24.90692 L 448.56776 24.90692 L 448.56776 0 Z M 448.56776 24.90692 " fill="#bbdefb"/>
<symbol id="font_0_8">
<path d="M 0 .375 C 0 .323 .010000002 .274 .029000003 .22900002 C .048000006 .18400002 .075 .14400001 .110000018 .11000001 C .14400001 .075 .18400002 .048000006 .22900002 .029000003 C .274 .010000001 .323 0 .375 0 C .426 0 .47500003 .010000001 .52000007 .029000003 C .565 .048000006 .606 .075 .64000007 .11000001 C .676 .14400001 .703 .18400002 .722 .22900002 C .74200007 .274 .75200006 .323 .75200006 .375 C .75200006 .426 .74200007 .474 .722 .51900008 C .703 .56400009 .676 .60400006 .64000007 .64000007 C .606 .674 .565 .702 .52000007 .72200009 C .47500003 .74200007 .426 .75200006 .375 .75200006 C .323 .75200006 .274 .74200007 .22900002 .72200009 C .18400002 .702 .14400001 .674 .110000018 .64000007 C .075 .60400006 .048000006 .56400009 .029000003 .51900008 C .010000002 .474 0 .426 0 .375 M .15 .375 C .15 .408 .15600002 .439 .16700001 .468 C .17800002 .497 .19400002 .522 .21500002 .544 C .23600002 .56500008 .26 .582 .287 .59400007 C .314 .60600009 .344 .61200007 .37600003 .61200007 C .40800003 .61200007 .43800003 .60600009 .46500004 .59400007 C .49200005 .582 .51600006 .56500008 .536 .544 C .55700007 .522 .573 .497 .584 .468 C .596 .439 .602 .408 .602 .375 C .602 .342 .596 .312 .58500006 .284 C .574 .255 .558 .23000002 .538 .208 C .518 .187 .49400003 .17 .468 .158 C .44 .14600002 .411 .14 .38 .14 C .347 .14 .317 .14600002 .29 .158 C .262 .17 .23800002 .187 .216 .208 C .19600001 .23000002 .17900002 .255 .16800002 .284 C .15600002 .312 .15 .342 .15 .375 Z "/>
</symbol>
<symbol id="font_0_21">
<path d="M .141 0 C .167 0 .19000003 .0040000008 .21200001 .011000001 C .23200003 .019000002 .25100003 .030000002 .26600004 .044000005 C .28100003 .058000003 .29400004 .074 .30400003 .09200001 L .30200003 .10100001 L .31300003 .021000002 L .44000004 .021000002 L .44000004 .458 L .3 .458 L .3 .28 C .3 .24900002 .29600004 .222 .28800003 .19700001 C .279 .17300001 .268 .154 .252 .14 C .238 .126 .22000003 .119 .19900003 .119 C .178 .119 .164 .125 .155 .13700001 C .146 .148 .141 .164 .14000002 .183 L .14000002 .458 L 0 .458 L 0 .13100001 C .001000002 .09200001 .015000001 .061000006 .042000005 .037 C .069 .012000001 .102000009 0 .141 0 Z "/>
</symbol>
<symbol id="font_0_20">
<path d="M .068 .629 L .068 .439 L 0 .439 L 0 .33 L .068 .33 L .068 0 L .20800002 0 L .20800002 .33 L .314 .33 L .314 .439 L .20800002 .439 L .20800002 .629 L .068 .629 Z "/>
</symbol>
<symbol id="font_0_18">
<path d="M 0 .78900006 L 0 0 L .14000002 0 L .14000002 .78900006 L 0 .78900006 Z "/>
</symbol>
<symbol id="font_0_16">
<path d="M .0029999987 .437 L .0029999987 0 L .143 0 L .143 .437 L .0029999987 .437 M 0 .592 C 0 .57100006 .008000001 .554 .024999999 .54200008 C .041 .528 .058 .522 .07700001 .522 C .096 .522 .113000009 .528 .12900001 .54200008 C .14400001 .554 .15200001 .57100006 .15200001 .592 C .15200001 .61300006 .14400001 .63000008 .12900001 .643 C .113000009 .656 .096 .66300007 .07700001 .66300007 C .058 .66300007 .041 .656 .024999999 .643 C .008000001 .63000008 0 .61300006 0 .592 Z "/>
</symbol>
<symbol id="font_0_1a">
<path d="M .127 .437 L 0 .437 L 0 0 L .14000002 0 L .14000002 .178 C .14000002 .209 .144 .23700002 .153 .261 C .162 .28500004 .174 .30400003 .19000003 .31800003 C .20600003 .33200003 .22500003 .33900003 .24600002 .33900003 C .26900003 .33900003 .28500004 .333 .29400004 .32200004 C .30400003 .31 .30900003 .294 .31000004 .275 L .31000004 0 L .45000003 0 L .45000003 .32700003 C .44900004 .36600004 .43500004 .397 .40800003 .42200003 C .38000003 .446 .34500004 .45800004 .30400003 .45800004 C .263 .45800004 .22900003 .45000003 .201 .432 C .17300001 .416 .151 .393 .136 .36600004 L .13800001 .35900004 L .127 .437 Z "/>
</symbol>
<symbol id="font_0_12">
<path d="M .249 0 C .273 0 .29800005 .0039999999 .32600004 .012 C .352 .02 .37800003 .031000002 .40100003 .044 L .339 .148 C .325 .139 .311 .132 .296 .127 C .282 .12200001 .26700003 .11900001 .25200004 .11900001 C .23100002 .11900001 .21100001 .124000009 .194 .133 C .177 .142 .163 .156 .15300001 .174 C .143 .193 .13800001 .216 .13800001 .243 C .13800001 .26700003 .142 .28800003 .15 .306 C .15900001 .323 .171 .337 .186 .34600003 C .202 .356 .22000002 .361 .24100001 .361 C .268 .361 .28900004 .354 .302 .342 C .31599999 .328 .32600004 .31300003 .33100004 .296 L .36 .30900003 L .11400001 .22600001 L .14500001 .15 L .485 .25800003 C .47300006 .32700003 .44700004 .379 .40600003 .416 C .366 .45200003 .315 .47000004 .25200004 .47000004 C .20500002 .47000004 .163 .46 .125 .43800003 C .087 .418 .057000005 .389 .034 .354 C .011 .319 0 .279 0 .235 C 0 .189 .009999998 .148 .029 .113000009 C .048 .078 .076000008 .050000006 .11400001 .030000002 C .15 .01 .19600001 0 .249 0 Z "/>
</symbol>
<use xlink:href="#font_0_8" transform="matrix(20.6625,0,0,-20.6625,17.085125,25.970309)" fill="#212121"/>
<use xlink:href="#font_0_21" transform="matrix(20.6625,0,0,-20.6625,35.144155,26.23892)" fill="#212121"/>
<use xlink:href="#font_0_20" transform="matrix(20.6625,0,0,-20.6625,46.653169,25.805008)" fill="#212121"/>
<use xlink:href="#font_0_18" transform="matrix(20.6625,0,0,-20.6625,55.35208,25.805008)" fill="#212121"/>
<use xlink:href="#font_0_16" transform="matrix(20.6625,0,0,-20.6625,61.15824,25.805008)" fill="#212121"/>
<use xlink:href="#font_0_1a" transform="matrix(20.6625,0,0,-20.6625,67.08838,25.805008)" fill="#212121"/>
<use xlink:href="#font_0_12" transform="matrix(20.6625,0,0,-20.6625,78.65938,26.052958)" fill="#212121"/>
<symbol id="font_1_3">
<path d="M 0 .69500008 L 0 .001 L .19600001 .001 C .213 .001 .231 0 .24800003 0 C .326 0 .402 .029000001 .46100004 .086 C .53000006 .15200001 .563 .24900002 .563 .344 C .563 .517 .45000006 .69600006 .245 .69600006 C .22500003 .69600006 .20500002 .69500008 .185 .69500008 L 0 .69500008 M .07900001 .058000003 L .07900001 .638 L .22500003 .638 C .37600003 .638 .472 .51500007 .476 .35300002 L .476 .34100003 C .476 .20500002 .402 .058000003 .222 .058000003 L .07900001 .058000003 Z "/>
</symbol>
<symbol id="font_1_18">
<path d="M .366 .119 C .321 .088 .276 .062000004 .21800001 .062000004 C .16000001 .062000004 .10700001 .098000008 .083000008 .15600002 C .072 .18100001 .069000009 .20700002 .066 .23400001 L .375 .23400001 C .375 .299 .365 .37 .321 .42000003 C .29 .455 .24500002 .472 .19900002 .472 C .072 .472 0 .345 0 .23200003 L 0 .22700002 C .0020000004 .113000009 .088 0 .21300002 0 C .264 0 .316 .016 .357 .042000005 C .365 .048000006 .372 .050000006 .372 .060000004 C .372 .079 .367 .099 .366 .119 M .073 .29 C .087 .349 .135 .41 .19900002 .41 L .202 .41 C .273 .41 .304 .349 .32 .29 L .073 .29 Z "/>
</symbol>
<symbol id="font_1_31">
<path d="M .011000002 .115 C .0090000019 .098000008 .005999999 .082 .0030000006 .065000008 C .0020000004 .061000006 0 .055000005 0 .050000006 C 0 .025000003 .104 .0060000007 .11500001 .0040000008 C .13200002 .0010000002 .15 0 .16800002 0 C .244 0 .329 .033000005 .329 .13800001 C .329 .202 .281 .25300003 .223 .271 C .17300001 .287 .07700001 .282 .07700001 .351 C .07700001 .39000003 .111 .412 .15400002 .412 C .187 .412 .22200002 .40800003 .254 .395 C .27 .389 .285 .379 .301 .373 L .313 .44 C .265 .462 .21900001 .472 .16700001 .472 C .09 .472 .0030000006 .43800003 .0030000006 .342 C .0030000006 .28100003 .049000004 .23700002 .103 .21700002 C .15 .20100002 .257 .20600002 .257 .13100001 C .257 .079 .20600002 .064 .16100002 .064 C .10200001 .064 .064 .087000008 .011000002 .115 Z "/>
</symbol>
<symbol id="font_1_14">
<path d="M .37 .120000008 C .32400004 .089 .28 .065000008 .21700001 .065000008 C .12300001 .065000008 .07400001 .14900002 .07400001 .23600002 C .07400001 .322 .12200001 .407 .22300002 .407 C .252 .407 .28100003 .402 .30800004 .391 C .326 .382 .342 .37100003 .35900004 .361 C .363 .377 .365 .393 .36800004 .409 C .36900003 .412 .37 .417 .37 .42200003 C .37 .45700003 .243 .472 .21800003 .472 C .088 .472 .0050000029 .36200003 0 .24500002 L 0 .23500002 C 0 .122 .076000008 0 .215 0 C .26500003 0 .31800003 .014 .36100004 .041 C .367 .046000005 .37600003 .049000004 .37600003 .059000005 C .37600003 .078 .37100003 .1 .37 .120000008 Z "/>
</symbol>
<symbol id="font_1_30">
<path d="M .071 .36300005 L .071 .44900004 L 0 .44900004 L 0 0 L .076 0 L .076 .20300001 C .076 .27000005 .098 .34600003 .187 .37600003 C .20500002 .38300003 .22500003 .38600005 .24400002 .38600005 L .24400002 .45500005 C .17300001 .45500005 .11800001 .42100004 .071 .36300005 Z "/>
</symbol>
<symbol id="font_1_21">
<path d="M .0069999995 .44400005 L .0069999995 0 L .083 0 L .083 .44400005 L .0069999995 .44400005 M 0 .68000009 L 0 .591 L .08900001 .591 L .08900001 .68000009 L 0 .68000009 Z "/>
</symbol>
<symbol id="font_1_29">
<path d="M .076 .591 L .076 .638 L 0 .638 L 0 0 L .079 0 L .079 .238 C .117000009 .20400001 .162 .183 .21400002 .183 C .33 .183 .39400003 .31 .39400003 .418 C .39400003 .50200006 .35600005 .65000006 .23600003 .65000006 C .18200001 .65000006 .11800001 .629 .076 .591 M .31900005 .402 C .31200005 .325 .25900004 .245 .17300001 .245 C .136 .245 .079 .277 .079 .316 L .079 .52400007 C .084 .554 .14200002 .58400008 .18200001 .58400008 C .268 .58400008 .32000003 .496 .32000003 .41900004 C .32000003 .41300003 .32000003 .408 .31900005 .402 Z "/>
</symbol>
<symbol id="font_1_34">
<path d="M .086 .582 L .086 .455 L 0 .455 L 0 .395 L .083000008 .395 L .083000008 .125 C .083000008 .075 .097 0 .164 0 C .21700001 0 .26700003 .015000001 .31300003 .039 L .29700003 .099 C .266 .079 .24400002 .065000008 .207 .065000008 C .161 .065000008 .157 .119 .157 .15300001 L .157 .395 L .296 .395 L .296 .455 L .157 .455 L .157 .582 L .086 .582 Z "/>
</symbol>
<symbol id="font_1_27">
<path d="M .202 .472 C .07900001 .45900003 0 .34800003 0 .23300001 C 0 .142 .049 .045 .154 .010000001 C .17400001 .0030000006 .19500001 0 .21700001 0 C .335 0 .432 .105000007 .432 .23200003 C .432 .344 .35500003 .472 .214 .472 L .202 .472 M .074 .22600001 C .073 .23200003 .073 .23800002 .073 .24400002 C .073 .327 .126 .41 .216 .41 C .30600003 .41 .358 .329 .358 .24100001 C .358 .16400002 .31800003 .065000008 .21700001 .065000008 C .134 .065000008 .083000008 .134 .074 .22600001 Z "/>
</symbol>
<symbol id="font_1_25">
<path d="M .074 .38200004 L .074 .44900004 L 0 .44900004 L 0 0 L .078999999 0 L .078999999 .229 C .078999999 .29200004 .09 .39300005 .17800002 .39300005 C .20600002 .39300005 .237 .38700003 .25700004 .36500005 C .27500005 .34400005 .278 .31700004 .278 .29000003 C .278 .27700005 .277 .26500003 .277 .25300003 L .277 0 L .356 0 L .356 .23900001 C .356 .256 .357 .27400003 .357 .29200004 C .357 .36500005 .34000004 .45500005 .221 .45500005 C .16000001 .45500005 .113000009 .42700006 .074 .38200004 Z "/>
</symbol>
<symbol id="font_1_1b">
<path d="M .073 .44400005 L 0 .44400005 L 0 .38400004 L .073 .38400004 L .073 0 L .14900002 0 L .14900002 .38400004 L .25800003 .38400004 L .25800003 .44400005 L .14600002 .44400005 L .14600002 .55600008 C .14600002 .56600007 .14500001 .57600006 .14500001 .587 C .14500001 .64000007 .18300002 .679 .23500003 .679 C .267 .679 .29 .67 .317 .6610001 L .317 .72 C .317 .74100008 .252 .74100008 .23800002 .74100008 C .13300002 .74100008 .073 .646 .073 .54800006 L .073 .44400005 Z "/>
</symbol>
<symbol id="font_1_c">
<path d="M 0 .69400009 L 0 0 L .082 0 L .082 .28800003 L .26700003 .28800003 C .37700004 .29700003 .48000003 .37900005 .48000003 .49200005 L .48000003 .50100007 C .47500003 .60700008 .37600003 .68200007 .27400003 .693 C .259 .69400009 .24400002 .69400009 .23000002 .69400009 L 0 .69400009 M .07900001 .34700004 L .07900001 .637 L .23500002 .637 C .314 .632 .39800004 .587 .39800004 .49200005 C .39800004 .43400005 .36200003 .38400004 .307 .36200003 C .27 .34700004 .23200003 .34700004 .19300002 .34700004 L .07900001 .34700004 Z "/>
</symbol>
<symbol id="font_1_13">
<path d="M 0 .741 L 0 .011000001 L .079 .011000001 L .079 .055000005 C .11900001 .021000002 .16 0 .215 0 C .32900004 0 .39400003 .128 .39400003 .23400001 C .39400003 .321 .35300002 .46600003 .23300001 .46600003 C .178 .46600003 .11900001 .446 .076 .409 L .076 .741 L 0 .741 M .31900005 .21700002 C .31300003 .13900002 .263 .061000006 .17500001 .061000006 C .136 .061000006 .079 .094000007 .079 .134 L .079 .343 C .08100001 .356 .09600001 .368 .10500001 .375 C .127 .394 .155 .404 .18300003 .404 C .277 .404 .32000003 .314 .32000003 .23900002 C .32000003 .23200003 .32000003 .22400002 .31900005 .21700002 Z "/>
</symbol>
<symbol id="font_1_23">
<path d="M 0 .73 L 0 0 L .076 0 L .076 .73 L 0 .73 Z "/>
</symbol>
<symbol id="font_1_24">
<path d="M .074 .38200004 L .074 .44900004 L 0 .44900004 L 0 0 L .078999999 0 L .078999999 .229 C .078999999 .29200004 .09 .39300005 .17800002 .39300005 C .20600002 .39300005 .237 .38700003 .25700004 .36500005 C .27500005 .34400005 .278 .31700004 .278 .29000003 C .278 .27700005 .277 .26500003 .277 .25300003 L .277 0 L .356 0 L .356 .229 C .356 .29200004 .36700005 .39300005 .45499999 .39300005 C .48299999 .39300005 .514 .38700003 .534 .36500005 C .552 .34400005 .555 .31700004 .555 .29000003 C .555 .27700005 .554 .26500003 .554 .25300003 L .554 0 L .633 0 L .633 .29400004 C .633 .36800004 .614 .45500005 .49800004 .45500005 C .44 .45500005 .376 .42700006 .347 .37500004 C .334 .39800004 .328 .41400004 .31 .42900003 C .28400005 .44900004 .251 .45500005 .219 .45500005 C .15900001 .45500005 .112 .42600004 .074 .38200004 Z "/>
</symbol>
<use xlink:href="#font_1_3" transform="matrix(10.9091,0,0,-10.9091,23.737137,99.82999)" fill="#212121"/>
<use xlink:href="#font_1_18" transform="matrix(10.9091,0,0,-10.9091,30.882597,99.93908)" fill="#212121"/>
<use xlink:href="#font_1_31" transform="matrix(10.9091,0,0,-10.9091,35.628057,99.93908)" fill="#212121"/>
<use xlink:href="#font_1_14" transform="matrix(10.9091,0,0,-10.9091,39.871698,99.93908)" fill="#212121"/>
<use xlink:href="#font_1_30" transform="matrix(10.9091,0,0,-10.9091,45.151704,99.81908)" fill="#212121"/>
<use xlink:href="#font_1_21" transform="matrix(10.9091,0,0,-10.9091,48.76261,99.81908)" fill="#212121"/>
<use xlink:href="#font_1_29" transform="matrix(10.9091,0,0,-10.9091,51.402616,101.93544)" fill="#212121"/>
<use xlink:href="#font_1_34" transform="matrix(10.9091,0,0,-10.9091,56.31171,99.93908)" fill="#212121"/>
<use xlink:href="#font_1_21" transform="matrix(10.9091,0,0,-10.9091,60.817167,99.81908)" fill="#212121"/>
<use xlink:href="#font_1_27" transform="matrix(10.9091,0,0,-10.9091,62.94444,99.93908)" fill="#212121"/>
<use xlink:href="#font_1_25" transform="matrix(10.9091,0,0,-10.9091,68.85718,99.81908)" fill="#212121"/>
<use xlink:href="#font_1_27" transform="matrix(10.9091,0,0,-10.9091,77.55172,99.93908)" fill="#212121"/>
<use xlink:href="#font_1_1b" transform="matrix(10.9091,0,0,-10.9091,82.919,99.81908)" fill="#212121"/>
<use xlink:href="#font_1_c" transform="matrix(10.9091,0,0,-10.9091,90.60991,99.81908)" fill="#212121"/>
<use xlink:href="#font_1_30" transform="matrix(10.9091,0,0,-10.9091,97.319,99.81908)" fill="#212121"/>
<use xlink:href="#font_1_27" transform="matrix(10.9091,0,0,-10.9091,100.49355,99.93908)" fill="#212121"/>
<use xlink:href="#font_1_13" transform="matrix(10.9091,0,0,-10.9091,106.4281,99.93908)" fill="#212121"/>
<use xlink:href="#font_1_23" transform="matrix(10.9091,0,0,-10.9091,112.00265,99.81908)" fill="#212121"/>
<use xlink:href="#font_1_18" transform="matrix(10.9091,0,0,-10.9091,114.0972,99.93908)" fill="#212121"/>
<use xlink:href="#font_1_24" transform="matrix(10.9091,0,0,-10.9091,119.366298,99.81908)" fill="#212121"/>
<symbol id="font_1_8">
<path d="M 0 .69400009 L 0 0 L .402 0 L .402 .067 L .081999998 .067 L .081999998 .69400009 L 0 .69400009 Z "/>
</symbol>
<symbol id="font_1_12">
<path d="M .036 .36 C .091000009 .39200003 .125 .412 .19100002 .412 L .19600001 .412 C .252 .405 .273 .349 .273 .29500003 L .273 .26 C .169 .26 0 .23600002 0 .125 C 0 .066 .038000004 0 .109 0 C .16600001 0 .23000002 .011000001 .27600003 .047000003 L .27600003 .011000001 L .35200004 .011000001 L .35200004 .292 C .35200004 .386 .296 .472 .18900001 .472 C .14 .472 .09200001 .462 .049000004 .439 C .042000005 .43600003 .030000002 .432 .030000002 .421 C .030000002 .40100003 .034999998 .38 .036 .36 M .273 .20800002 L .273 .15200001 C .273 .085 .224 .062000004 .16100002 .062000004 C .125 .062000004 .069 .079 .069 .128 C .069 .17800002 .149 .19500001 .186 .20000002 C .215 .20500002 .24400002 .20800002 .273 .20800002 Z "/>
</symbol>
<symbol id="font_1_37">
<path d="M 0 .455 L 0 .12900001 C 0 .096 .0009999946 .062000004 .022 .033000005 C .041999997 .0060000007 .074 0 .106000009 0 C .16700001 0 .23600002 .019000002 .28000004 .060000004 L .28000004 .011000001 L .356 .011000001 L .356 .455 L .277 .455 L .277 .17800002 C .277 .096 .228 .057000005 .149 .057000005 C .111 .057000005 .078999999 .069000009 .078999999 .123 L .078999999 .455 L 0 .455 Z "/>
</symbol>
<symbol id="font_1_d">
<path d="M 0 .69400009 L 0 0 L .07900001 0 L .07900001 .316 L .23000002 .316 L .243 .31400005 L .41900004 .023 L .43400003 .0019999999 L .51500007 .0019999999 L .31500004 .32600004 C .333 .32800005 .35000003 .33600004 .36600004 .34300003 C .43 .37200005 .48800005 .43300004 .48800005 .507 L .48800005 .51600006 C .477 .64100006 .33400003 .69500008 .229 .69500008 C .21100003 .69500008 .194 .69400009 .176 .69400009 L 0 .69400009 M .07900001 .37800003 L .07900001 .637 L .197 .637 C .268 .637 .36800004 .633 .4 .544 C .40400005 .53200009 .407 .52000007 .407 .508 C .407 .45400004 .36600004 .41100005 .31800003 .39300005 C .27800004 .37800003 .236 .37800003 .194 .37800003 L .07900001 .37800003 Z "/>
</symbol>
<symbol id="font_1_38">
<path d="M 0 .44400005 L .16700001 0 L .259 0 L .42600004 .44400005 L .35000003 .44400005 L .24200002 .15100001 L .22300002 .091000009 L .21400002 .052000006 L .202 .103 L .178 .177 L .080000009 .44400005 L 0 .44400005 Z "/>
</symbol>
<symbol id="font_1_39">
<path d="M 0 .44500003 C .0030000006 .43100003 .008000001 .418 .012 .40500004 C .052 .28300003 .086 .15900001 .12500002 .037 C .12900001 .023000002 .12900001 0 .14700002 0 C .15100001 0 .15500002 .001 .158 .001 L .216 .001 C .24600002 .11100001 .28500004 .22000002 .30900003 .333 C .314 .35300002 .31800003 .37300004 .31800003 .393 L .319 .393 C .32200004 .35300002 .33200003 .314 .342 .27600003 C .36200003 .19600001 .386 .116000007 .411 .037 C .416 .020000002 .41500003 .001 .43300004 .001 L .48900003 .001 C .49200005 .001 .49700005 0 .50100007 0 C .51500007 0 .517 .019000002 .52000007 .030000002 C .55700007 .155 .59800007 .27800004 .634 .40300004 C .63900008 .41700004 .64400008 .43100003 .647 .44500003 L .573 .44300003 L .563 .416 L .50100007 .209 L .46300004 .053000004 C .46300004 .085 .45000003 .119 .44300003 .15100001 C .41900004 .23700002 .39200003 .324 .367 .41000004 L .36 .43100003 C .358 .439 .35700003 .44500003 .34600003 .44500003 L .296 .44500003 C .28100003 .44500003 .282 .432 .27800004 .42100004 L .25700004 .35200004 C .22900002 .256 .18800001 .147 .18200001 .053000004 L .18100001 .053000004 C .18100001 .072000008 .17700002 .09200001 .172 .11100001 C .149 .22500001 .106000009 .33600004 .07800001 .44500003 L 0 .44500003 Z "/>
</symbol>
<use xlink:href="#font_1_8" transform="matrix(10.9091,0,0,-10.9091,39.974325,113.36908)" fill="#212121"/>
<use xlink:href="#font_1_21" transform="matrix(10.9091,0,0,-10.9091,45.603418,113.36908)" fill="#212121"/>
<use xlink:href="#font_1_34" transform="matrix(10.9091,0,0,-10.9091,47.577966,113.48908)" fill="#212121"/>
<use xlink:href="#font_1_18" transform="matrix(10.9091,0,0,-10.9091,51.690694,113.48908)" fill="#212121"/>
<use xlink:href="#font_1_30" transform="matrix(10.9091,0,0,-10.9091,56.98161,113.36908)" fill="#212121"/>
<use xlink:href="#font_1_12" transform="matrix(10.9091,0,0,-10.9091,60.308885,113.48908)" fill="#212121"/>
<use xlink:href="#font_1_34" transform="matrix(10.9091,0,0,-10.9091,65.19616,113.48908)" fill="#212121"/>
<use xlink:href="#font_1_37" transform="matrix(10.9091,0,0,-10.9091,69.756168,113.48908)" fill="#212121"/>
<use xlink:href="#font_1_30" transform="matrix(10.9091,0,0,-10.9091,75.35252,113.36908)" fill="#212121"/>
<use xlink:href="#font_1_18" transform="matrix(10.9091,0,0,-10.9091,78.57072,113.48908)" fill="#212121"/>
<use xlink:href="#font_1_d" transform="matrix(10.9091,0,0,-10.9091,87.6689,113.36908)" fill="#212121"/>
<use xlink:href="#font_1_18" transform="matrix(10.9091,0,0,-10.9091,93.996189,113.48908)" fill="#212121"/>
<use xlink:href="#font_1_38" transform="matrix(10.9091,0,0,-10.9091,98.578,113.36908)" fill="#212121"/>
<use xlink:href="#font_1_21" transform="matrix(10.9091,0,0,-10.9091,104.17437,113.36908)" fill="#212121"/>
<use xlink:href="#font_1_18" transform="matrix(10.9091,0,0,-10.9091,106.34528,113.48908)" fill="#212121"/>
<use xlink:href="#font_1_39" transform="matrix(10.9091,0,0,-10.9091,110.9271,113.37999)" fill="#212121"/>
<symbol id="font_1_6">
<path d="M .53000006 .32200004 L .321 .32200004 L .321 .26000003 L .45100004 .26000003 L .45100004 .09600001 C .45100004 .069000009 .34100003 .065000008 .32600004 .065000008 C .17500001 .065000008 .08900001 .22600001 .08900001 .36600004 C .08900001 .50100007 .16499999 .66 .31100003 .671 L .321 .671 C .37800003 .671 .43400003 .657 .48200006 .621 C .49 .615 .49800004 .608 .507 .602 C .51100006 .62200006 .51400008 .643 .518 .663 L .521 .68200007 C .521 .708 .39300005 .736 .32600004 .736 C .12799999 .736 0 .549 0 .36500005 C 0 .18800001 .123 0 .32500003 0 C .39300005 0 .45200003 .018000002 .51600006 .042000005 C .52400007 .046000005 .53000006 .047000003 .53000006 .059 L .53000006 .32200004 Z "/>
</symbol>
<symbol id="font_1_1f">
<path d="M .06300001 .23700002 C .028 .22100002 0 .17700002 0 .136 C 0 .040000008 .13000001 0 .22000002 0 C .30100004 0 .43100003 .033000009 .44000004 .127 L .44000004 .134 C .44000004 .19500001 .40500004 .24100001 .34800003 .26000003 C .30400003 .275 .25800003 .27600003 .21200001 .27600003 L .142 .27600003 C .10800001 .27600003 .09200001 .301 .09200001 .33 L .09200001 .338 C .09400001 .347 .098000008 .35500003 .10100001 .36400003 C .13200002 .347 .157 .33500005 .19100002 .33500005 L .20100002 .33500005 C .293 .34400005 .349 .41800005 .349 .499 L .349 .507 C .34700004 .54300007 .33400003 .57100006 .31500004 .6 C .319 .597 .323 .597 .328 .597 C .356 .597 .38200004 .6 .41000004 .6 C .425 .6 .439 .59800007 .45400004 .597 L .44300003 .661 C .39400003 .661 .35000003 .65200009 .30400003 .637 C .29900003 .635 .29200004 .63100007 .286 .63100007 C .28000004 .63100007 .268 .64100006 .261 .64500007 C .23900002 .65500006 .21600002 .661 .19200002 .661 C .10700001 .661 .035 .58800008 .035 .499 C .035 .469 .042 .44000004 .057 .41400004 C .060000007 .41000004 .065 .40400005 .065 .39900003 C .062000004 .38600005 .049000008 .37100003 .044000005 .35700003 C .039 .34300003 .037000006 .328 .037000006 .31300003 C .037000006 .286 .045000007 .259 .06300001 .23700002 M .12900001 .202 L .23400003 .202 C .28700004 .202 .36800004 .194 .36800004 .134 C .36800004 .091000009 .307 .068 .266 .061000006 C .25100003 .059 .23500002 .058000015 .21900001 .058000015 C .165 .058000015 .07100001 .076000008 .07100001 .13700001 C .07100001 .16800002 .098000008 .19800002 .12900001 .202 M .18200001 .60300007 L .19000001 .60300007 C .256 .60300007 .28300003 .551 .28300003 .5 C .28300003 .44900004 .261 .402 .202 .393 L .19400002 .393 C .128 .393 .10100001 .44500003 .10100001 .49600003 C .10100001 .54700008 .12300001 .59400007 .18200001 .60300007 Z "/>
</symbol>
<symbol id="font_1_4">
<path d="M 0 .69100007 L 0 0 L .45700006 0 L .45700006 .072000008 L .081999998 .072000008 L .081999998 .32800005 L .41500006 .32800005 L .41500006 .39000006 L .081999998 .39000006 L .081999998 .62600007 L .44300006 .62600007 L .44300006 .69100007 L 0 .69100007 Z "/>
</symbol>
<symbol id="font_1_2d">
<path d="M .31500004 .243 L .31500004 0 L .39400003 0 L .39400003 .64900007 L .31800003 .64900007 L .31800003 .58400008 C .28300003 .62 .24100003 .64900007 .18400002 .64900007 C .062000008 .64900007 0 .52000007 0 .416 C 0 .31800003 .052 .187 .15900001 .183 L .16700001 .183 C .222 .183 .27600003 .206 .31500004 .243 M .07400001 .402 C .07400001 .407 .07300001 .412 .07300001 .417 C .07300001 .496 .133 .58400008 .22 .58400008 C .257 .58400008 .286 .563 .30600003 .52500006 C .31100003 .51500007 .317 .50200006 .31800003 .491 L .31800003 .32700003 C .31800003 .286 .26000003 .25300003 .23400003 .24700001 C .227 .246 .21900001 .245 .21200001 .245 C .125 .245 .08100001 .33100004 .07400001 .402 Z "/>
</symbol>
<use xlink:href="#font_1_6" transform="matrix(10.9091,0,0,-10.9091,39.64705,127.14717)" fill="#212121"/>
<use xlink:href="#font_1_27" transform="matrix(10.9091,0,0,-10.9091,46.508874,127.03808)" fill="#212121"/>
<use xlink:href="#font_1_38" transform="matrix(10.9091,0,0,-10.9091,51.734334,126.918079)" fill="#212121"/>
<use xlink:href="#font_1_18" transform="matrix(10.9091,0,0,-10.9091,56.937974,127.03808)" fill="#212121"/>
<use xlink:href="#font_1_30" transform="matrix(10.9091,0,0,-10.9091,62.22889,126.918079)" fill="#212121"/>
<use xlink:href="#font_1_25" transform="matrix(10.9091,0,0,-10.9091,65.89435,126.918079)" fill="#212121"/>
<use xlink:href="#font_1_21" transform="matrix(10.9091,0,0,-10.9091,71.414348,126.918079)" fill="#212121"/>
<use xlink:href="#font_1_25" transform="matrix(10.9091,0,0,-10.9091,74.03253,126.918079)" fill="#212121"/>
<use xlink:href="#font_1_1f" transform="matrix(10.9091,0,0,-10.9091,79.07253,129.16535)" fill="#212121"/>
<use xlink:href="#font_1_4" transform="matrix(10.9091,0,0,-10.9091,88.83617,126.918079)" fill="#212121"/>
<use xlink:href="#font_1_2d" transform="matrix(10.9091,0,0,-10.9091,94.68344,129.03444)" fill="#212121"/>
<use xlink:href="#font_1_37" transform="matrix(10.9091,0,0,-10.9091,100.69436,127.03808)" fill="#212121"/>
<use xlink:href="#font_1_12" transform="matrix(10.9091,0,0,-10.9091,105.93072,127.03808)" fill="#212121"/>
<use xlink:href="#font_1_34" transform="matrix(10.9091,0,0,-10.9091,110.818,127.03808)" fill="#212121"/>
<use xlink:href="#font_1_21" transform="matrix(10.9091,0,0,-10.9091,115.323459,126.918079)" fill="#212121"/>
<use xlink:href="#font_1_27" transform="matrix(10.9091,0,0,-10.9091,117.45073,127.03808)" fill="#212121"/>
<use xlink:href="#font_1_25" transform="matrix(10.9091,0,0,-10.9091,123.363468,126.918079)" fill="#212121"/>
<symbol id="font_1_e">
<path d="M .014000002 .154 C .010000002 .134 .0069999995 .113000009 .0029999987 .09300001 C .0020000004 .08900001 0 .08100001 0 .075 C 0 .057000005 .067 .032 .102 .020000002 C .14 .008000001 .18100001 0 .22200002 0 C .319 0 .45100004 .062000008 .45100004 .208 C .45100004 .307 .38300003 .38600005 .29400004 .41200004 C .221 .43400005 .10000001 .43500004 .089 .544 L .089 .55300006 C .089 .629 .17 .671 .23300003 .671 C .287 .671 .337 .656 .379 .621 C .38700003 .615 .394 .608 .402 .602 C .40600003 .62200006 .40900005 .643 .41300006 .663 L .416 .68200007 C .416 .697 .35000003 .72 .314 .728 C .29000003 .73300006 .265 .736 .24000003 .736 C .15 .736 .056 .69600006 .020000004 .59900006 C .014000002 .58 .010000002 .56 .010000002 .54 C .010000002 .44600005 .082 .37600003 .16600001 .35200004 C .237 .33200003 .328 .33 .36300005 .245 C .36800004 .23300001 .371 .22 .37200005 .207 L .37200005 .201 C .37200005 .126 .30900003 .074 .24000003 .068 L .23100002 .068 C .17300001 .068 .11600001 .08500001 .067 .11400001 C .048 .126 .032000007 .141 .014000002 .154 Z "/>
</symbol>
<symbol id="font_1_3a">
<path d="M 0 .64900007 C .011 .61200007 .031000002 .57500007 .047000007 .53900006 C .076000008 .47000004 .105000007 .40100003 .135 .33200003 L .18200001 .22200002 C .18400002 .21700001 .187 .21200001 .18800001 .20700002 L .18800001 .20500002 C .18800001 .19600001 .179 .179 .17500001 .16800002 C .15900001 .128 .141 .059 .09900001 .059 C .072000008 .059 .046000005 .068 .020000002 .075 L .026000003 .008000001 C .049000004 .003000006 .07300001 0 .09600001 0 C .16200002 0 .19200002 .058 .21300002 .11100001 C .27800004 .26900003 .34 .42900003 .40300004 .58900007 C .411 .609 .42000003 .629 .42600004 .64900007 L .36 .64900007 C .34 .64900007 .32400004 .58500006 .31100003 .55200007 C .27400003 .45900006 .231 .35800005 .22000002 .25700004 C .21500002 .27600003 .21400002 .296 .209 .316 C .18200001 .42000003 .136 .521 .09300001 .62 C .086 .64000007 .08400001 .64900007 .069000009 .64900007 L 0 .64900007 Z "/>
</symbol>
<use xlink:href="#font_1_e" transform="matrix(10.9091,0,0,-10.9091,23.169867,170.24817)" fill="#212121"/>
<use xlink:href="#font_1_37" transform="matrix(10.9091,0,0,-10.9091,29.540781,170.13907)" fill="#212121"/>
<use xlink:href="#font_1_24" transform="matrix(10.9091,0,0,-10.9091,35.11533,170.01908)" fill="#212121"/>
<use xlink:href="#font_1_24" transform="matrix(10.9091,0,0,-10.9091,43.70079,170.01908)" fill="#212121"/>
<use xlink:href="#font_1_12" transform="matrix(10.9091,0,0,-10.9091,51.94807,170.13907)" fill="#212121"/>
<use xlink:href="#font_1_30" transform="matrix(10.9091,0,0,-10.9091,57.195348,170.01908)" fill="#212121"/>
<use xlink:href="#font_1_3a" transform="matrix(10.9091,0,0,-10.9091,60.17353,172.25545)" fill="#212121"/>
<symbol id="font_2_6">
<path d="M .06300001 .45600004 C .083000008 .52300009 .12500002 .58300009 .21100003 .58300009 C .284 .58300009 .36 .53400006 .36 .45000006 C .36 .35000003 .26900003 .29200004 .199 .24100001 C .141 .2 .08700001 .15200001 .032 .106000009 C .022000004 .097 .0069999995 .09 .0069999995 .074 C .0069999995 .069 .008000001 .064 .008000001 .059000005 L .008000001 0 L .476 0 L .476 .096 L .10900001 .095 C .13000001 .113000009 .15300001 .12900001 .17500001 .146 C .22800002 .18800001 .28000004 .224 .33400003 .26100005 C .40300004 .30700005 .476 .36100004 .476 .45300005 C .476 .58400008 .35700003 .669 .22800002 .669 C .13100001 .669 .048000006 .62700006 .0040000008 .54 C .0020000004 .53700008 0 .53400006 0 .53000006 L 0 .52800008 C 0 .522 .010000002 .513 .015999999 .507 L .044999999 .47500003 C .051000004 .46900005 .056000007 .46200005 .06300001 .45600004 Z "/>
</symbol>
<use xlink:href="#font_2_6" transform="matrix(5.9776,0,0,-5.9776,440.78285,249.73905)" fill="#212121"/>
<path transform="matrix(1,0,0,-1,-.000045776369,255.11803)" d="M 0 0 L 0 2.98883 L 453.54914 2.98883 L 453.54914 0 Z M 453.54914 2.98883 " fill="#ffffff"/>
<path transform="matrix(1,0,0,-1,-.000045776369,255.11803)" d="M 0 0 L 0 2.98883 L 151.18215 2.98883 L 151.18215 0 Z M 151.18215 2.98883 " fill="#42a5f5"/>
</g>
</svg>
