<?xml version="1.0" encoding="UTF-8" standalone="no"?>
<!DOCTYPE svg PUBLIC "-//W3C//DTD SVG 1.1//EN" "http://www.w3.org/Graphics/SVG/1.1/DTD/svg11.dtd">
<svg xmlns="http://www.w3.org/2000/svg" xmlns:xlink="http://www.w3.org/1999/xlink" version="1.1" width="453.543pt" height="255.118pt" viewBox="0 0 453.543 255.118">
<g enable-background="new">
<path transform="matrix(1,0,0,-1,0,255.118)" d="M 0 0 L 453.543 0 L 453.543 255.118 L 0 255.118 Z " fill="#ffffff"/>
<path transform="matrix(1,0,0,-1,0,29.888)" d="M 0 0 L 453.543 0 L 453.543 24.907 L 0 24.907 Z " fill="#ffffff"/>
<path transform="matrix(1,0,0,-1,0,29.888)" d="M 0 0 L 0 29.8883 L 453.54914 29.8883 L 453.54914 0 Z M 453.54914 29.8883 " fill="#ffffff"/>
<path transform="matrix(1,0,0,-1,0,29.888)" d="M 4.98138 0 L 4.98138 24.90692 L 448.56776 24.90692 L 448.56776 0 Z M 448.56776 24.90692 " fill="#bbdefb"/>
<symbol id="font_0_8">
<path d="M 0 .0055000006 L .1465 .0055000006 L .17950002 .42200003 L .19350001 .63250008 L .24450003 .4185 L .3725 0 L .49650003 0 L .6165 .4185 L .665 .63250008 L .67700007 .42200003 L .7135 .0055000006 L .86600008 .0055000006 L .77500006 .74850007 L .569 .74850007 L .4695 .3515 L .43950004 .18400002 L .40350003 .3515 L .296 .74850007 L .082 .74850007 L 0 .0055000006 Z "/>
</symbol>
<symbol id="font_0_f">
<path d="M .17750001 0 C .24850002 0 .30200003 .028 .33200003 .055000005 L .33200003 .008 L .47650004 .008 L .47650004 .37600003 C .47650004 .52750006 .405 .57400009 .2515 .57400009 C .1575 .57400009 .056000007 .53650006 .022499998 .51650008 L .055500006 .4205 C .096 .4415 .1735 .46 .23700002 .46 C .293 .46 .324 .44750003 .324 .391 L .324 .35 C .2565 .35 .1685 .343 .103 .3155 C .0395 .2885 0 .23850002 0 .171 C 0 .069000009 .0715 0 .17750001 0 M .15550001 .179 C .15550001 .2205 .179 .23700002 .2055 .24900002 C .23300001 .2615 .28750003 .269 .324 .2695 L .324 .1295 C .314 .11800001 .2725 .10000001 .236 .10000001 C .1885 .10000001 .15550001 .125 .15550001 .179 Z "/>
</symbol>
<symbol id="font_0_18">
<path d="M .5115 .55700007 L .33600004 .55700007 L .1455 .33650003 L .14950001 .45350004 L .14950001 .81100007 L 0 .81100007 L 0 0 L .14950001 0 L .14950001 .09900001 L .1485 .171 L .20900002 .23550001 L .35850004 0 L .52900007 0 L .30850003 .34100003 L .5115 .55700007 Z "/>
</symbol>
<symbol id="font_0_13">
<path d="M .2655 0 C .352 0 .43600006 .026 .473 .056 L .44750006 .13900002 C .42050005 .12450001 .3495 .11050001 .302 .11050001 C .216 .11050001 .15750002 .148 .1515 .2515 L .4845 .2515 C .4885 .276 .49 .3115 .49 .3525 C .4875 .51600006 .38300003 .573 .26749999 .572 C .096 .57100006 0 .45000003 0 .288 C 0 .10750001 .09400001 0 .2655 0 M .2625 .47050003 C .334 .47050003 .35300005 .4145 .348 .334 L .1535 .334 C .164 .437 .205 .47050003 .2625 .47050003 Z "/>
</symbol>
<symbol id="font_0_d">
<path d="M .21150002 0 L .36900003 0 L .36900003 .623 L .58050009 .623 L .58050009 .74300006 L 0 .74300006 L 0 .623 L .21150002 .623 L .21150002 0 Z "/>
</symbol>
<symbol id="font_0_17">
<path d="M .088000018 .637 C .14050001 .637 .18500002 .6775 .18500002 .7285 C .18500002 .77650007 .15150002 .8115 .09750001 .8115 C .0465 .8115 0 .77000007 0 .72 C 0 .671 .0385 .637 .088000018 .637 M .019499999 0 L .172 0 L .172 .5565 L .019499999 .5565 L .019499999 0 Z "/>
</symbol>
<symbol id="font_0_21">
<path d="M .21750002 0 C .2895 0 .3625 .028 .39000003 .052500003 L .37 .13800001 C .3525 .127 .3095 .116000007 .2835 .116000007 C .23300003 .116000007 .22000002 .125 .22000002 .231 L .22000002 .4605 L .3695 .4605 L .3695 .56500008 L .22000002 .56500008 L .22000002 .69200006 L .128 .69200006 C .1145 .65550008 .10100001 .61750009 .09150001 .595 C .07750001 .56350007 .049000004 .55600008 0 .54200008 L 0 .4605 L .0675 .4605 L .0675 .1665 C .0675 .047000003 .1155 0 .21750002 0 Z "/>
</symbol>
<symbol id="font_0_19">
<path d="M 0 0 L .153 0 L .153 .81250008 L 0 .81250008 L 0 0 Z "/>
</symbol>
<symbol id="font_0_20">
<path d="M .000500001 .043500004 C .029500004 .024 .110000018 0 .19550002 0 C .33 0 .41550002 .058500004 .41550002 .16900002 C .41550002 .259 .35200004 .3005 .23250002 .3495 C .17850001 .372 .1465 .3845 .14700002 .4225 C .14700002 .45200003 .17550002 .468 .24000001 .468 C .29250003 .468 .34950004 .447 .36850003 .4305 L .38500003 .54 C .36350004 .55250009 .30300004 .572 .22100002 .572 C .10000001 .572 .0020000004 .52050009 .001000002 .4165 C 0 .329 .051000004 .2775 .15950002 .2345 C .22000003 .21050002 .26700003 .19150001 .26700003 .15650001 C .26700003 .12250001 .23900002 .105000007 .17850001 .106000009 C .106500018 .10650001 .033000005 .1385 .017500002 .15100001 L .000500001 .043500004 Z "/>
</symbol>
<symbol id="font_0_6">
<path d="M 0 0 L .15799999 0 L .15799999 .74300006 L 0 .74300006 L 0 0 Z "/>
</symbol>
<symbol id="font_0_1b">
<path d="M 0 0 L .15200001 0 L .15200001 .40100003 C .185 .42850004 .2295 .44250003 .2595 .44300003 C .3255 .446 .34300003 .41450004 .34300003 .328 L .34300003 0 L .496 0 L .496 .34950004 C .496 .51100006 .44300003 .56750008 .32700003 .565 C .2535 .56350007 .1785 .526 .141 .49400003 L .1385 .5565 L 0 .5565 L 0 0 Z "/>
</symbol>
<symbol id="font_0_14">
<path d="M .0745 0 L .22800002 0 L .22800002 .45250003 L .3555 .45250003 L .3555 .55700007 L .22800002 .55700007 L .22800002 .615 C .22800002 .6825 .2585 .71300008 .30200003 .71300008 C .3405 .71300008 .363 .708 .3785 .702 L .3785 .81100007 C .36650003 .814 .3315 .82150009 .285 .82150009 C .188 .82150009 .0745 .77300009 .0745 .61050006 L .0745 .55700007 L 0 .54 L 0 .45250003 L .0745 .45250003 L .0745 0 Z "/>
</symbol>
<symbol id="font_0_1c">
<path d="M .26700003 0 C .42550005 0 .5395 .09600001 .5415 .275 C .5445 .43400003 .47250007 .572 .277 .572 C .11950001 .572 .0050000029 .4765 .0020000004 .298 C 0 .1385 .07200001 0 .26700003 0 M .27100004 .10650001 C .19050002 .10700001 .16000001 .19150001 .16000001 .294 C .16000001 .405 .19350001 .46600003 .27400003 .4655 C .35400004 .465 .38450004 .3825 .38450004 .2815 C .38450004 .1675 .35050003 .105500008 .27100004 .10650001 Z "/>
</symbol>
<symbol id="font_0_1f">
<path d="M 0 0 L .1525 0 L .1525 .37250004 C .17500001 .395 .21450001 .42350004 .277 .42350004 C .316 .42350004 .333 .41550002 .34250004 .41000004 L .34250004 .55850008 C .3345 .563 .316 .565 .296 .565 C .2265 .565 .1615 .523 .14 .47750003 L .132 .5565 L 0 .5565 L 0 0 Z "/>
</symbol>
<symbol id="font_0_1a">
<path d="M 0 0 L .15200001 0 L .15200001 .40100003 C .185 .42850004 .23050002 .44200004 .26000003 .44250003 C .32500003 .44450004 .342 .4135 .342 .328 L .342 0 L .49400003 0 L .49400003 .35050003 C .49400003 .36900003 .49300004 .386 .49150003 .402 C .5195 .423 .5605 .44200004 .597 .44250003 C .66300007 .44450004 .679 .41400004 .679 .3285 L .679 0 L .832 0 L .832 .35000003 C .832 .513 .77150008 .5665 .65650007 .565 C .5755 .565 .50200006 .52650007 .467 .499 C .44050003 .54800006 .39450003 .56700006 .3265 .565 C .254 .56350007 .1805 .52650007 .141 .497 L .1385 .5565 L 0 .5565 L 0 0 Z "/>
</symbol>
<symbol id="font_0_23">
<path d="M .214 0 L .3555 0 L .56650009 .56500008 L .40550003 .56500008 L .322 .2935 L .28750003 .1535 L .25 .2935 L .16350001 .56500008 L 0 .56500008 L .214 0 Z "/>
</symbol>
<symbol id="font_0_1">
<path d="M .09 0 C .14350002 0 .18750002 .047000003 .18700002 .102000009 C .1865 .15300001 .15300001 .19350001 .09750001 .19350001 C .044 .19350001 0 .14650002 0 .092 C .000500001 .040000004 .038500005 0 .09 0 Z "/>
</symbol>
<symbol id="font_0_e">
<path d="M .3025 0 C .5055 0 .5975 .116000007 .5975 .317 L .5975 .75100007 L .44300003 .75100007 L .44300003 .342 C .44300003 .17 .393 .123500008 .30200006 .123500008 C .207 .123500008 .15500002 .1675 .15550001 .342 L .15750002 .75100007 L .001500003 .75100007 L 0 .3195 C 0 .124000009 .082 0 .3025 0 Z "/>
</symbol>
<symbol id="font_0_1d">
<path d="M 0 0 L .1525 0 L .1525 .179 L .15100001 .2535 C .173 .24550002 .2045 .23900001 .24250002 .23900001 C .41250003 .23900001 .52500006 .3605 .52500006 .546 C .52500006 .7260001 .4225 .811 .30400003 .811 C .21500002 .811 .16800002 .773 .14250002 .74750009 L .14250002 .804 L 0 .804 L 0 0 M .1525 .36650003 L .1525 .661 C .17350002 .6775 .21250002 .69650009 .25550003 .69650009 C .32450003 .69650009 .36650003 .6515 .366 .5335 C .365 .411 .3115 .344 .23800002 .344 C .19950001 .344 .16950001 .35050003 .1525 .36650003 Z "/>
</symbol>
<symbol id="font_0_11">
<path d="M 0 .2805 C 0 .120500009 .086500007 0 .2595 0 C .3305 0 .40100003 .0165 .43350003 .0485 L .411 .142 C .38700003 .1295 .3405 .117000009 .29000003 .117000009 C .212 .117000009 .1495 .17150001 .1525 .2965 C .156 .41300003 .22550002 .4535 .29050002 .4535 C .345 .4535 .38050003 .44300003 .40550003 .428 L .42450003 .54450008 C .4065 .55700007 .35000003 .572 .277 .572 C .08849999 .572 0 .4445 0 .2805 Z "/>
</symbol>
<symbol id="font_0_7">
<path d="M 0 0 L .42350004 0 L .42350004 .12550001 L .155 .12550001 L .155 .74300006 L 0 .74300006 L 0 0 Z "/>
</symbol>
<use xlink:href="#font_0_8" transform="matrix(11.9552,0,0,-11.9552,17.586985,16.367756)" fill="#212121"/>
<use xlink:href="#font_0_f" transform="matrix(11.9552,0,0,-11.9552,28.998225,16.397644)" fill="#212121"/>
<use xlink:href="#font_0_18" transform="matrix(11.9552,0,0,-11.9552,36.470224,16.302002)" fill="#212121"/>
<use xlink:href="#font_0_13" transform="matrix(11.9552,0,0,-11.9552,43.111333,16.397644)" fill="#212121"/>
<use xlink:href="#font_0_d" transform="matrix(11.9552,0,0,-11.9552,51.88645,16.302002)" fill="#212121"/>
<use xlink:href="#font_0_17" transform="matrix(11.9552,0,0,-11.9552,59.80677,16.302002)" fill="#212121"/>
<use xlink:href="#font_0_21" transform="matrix(11.9552,0,0,-11.9552,63.184118,16.397644)" fill="#212121"/>
<use xlink:href="#font_0_19" transform="matrix(11.9552,0,0,-11.9552,69.06607,16.302002)" fill="#212121"/>
<use xlink:href="#font_0_13" transform="matrix(11.9552,0,0,-11.9552,72.35376,16.397644)" fill="#212121"/>
<use xlink:href="#font_0_20" transform="matrix(11.9552,0,0,-11.9552,79.3057,16.397644)" fill="#212121"/>
<use xlink:href="#font_0_6" transform="matrix(11.9552,0,0,-11.9552,87.99714,16.302002)" fill="#212121"/>
<use xlink:href="#font_0_1b" transform="matrix(11.9552,0,0,-11.9552,91.96028,16.302002)" fill="#212121"/>
<use xlink:href="#font_0_14" transform="matrix(11.9552,0,0,-11.9552,99.21111,16.302002)" fill="#212121"/>
<use xlink:href="#font_0_1c" transform="matrix(11.9552,0,0,-11.9552,104.03504,16.397644)" fill="#212121"/>
<use xlink:href="#font_0_1f" transform="matrix(11.9552,0,0,-11.9552,111.8119,16.302002)" fill="#212121"/>
<use xlink:href="#font_0_1a" transform="matrix(11.9552,0,0,-11.9552,117.13793,16.302002)" fill="#212121"/>
<use xlink:href="#font_0_f" transform="matrix(11.9552,0,0,-11.9552,128.2742,16.397644)" fill="#212121"/>
<use xlink:href="#font_0_21" transform="matrix(11.9552,0,0,-11.9552,135.17833,16.397644)" fill="#212121"/>
<use xlink:href="#font_0_17" transform="matrix(11.9552,0,0,-11.9552,140.87499,16.302002)" fill="#212121"/>
<use xlink:href="#font_0_23" transform="matrix(11.9552,0,0,-11.9552,143.92954,16.397644)" fill="#212121"/>
<use xlink:href="#font_0_13" transform="matrix(11.9552,0,0,-11.9552,151.18634,16.397644)" fill="#212121"/>
<use xlink:href="#font_0_1" transform="matrix(11.9552,0,0,-11.9552,158.34154,16.43351)" fill="#212121"/>
<use xlink:href="#font_0_e" transform="matrix(11.9552,0,0,-11.9552,164.68975,16.397644)" fill="#212121"/>
<use xlink:href="#font_0_20" transform="matrix(11.9552,0,0,-11.9552,173.23773,16.397644)" fill="#212121"/>
<use xlink:href="#font_0_13" transform="matrix(11.9552,0,0,-11.9552,179.19739,16.397644)" fill="#212121"/>
<use xlink:href="#font_0_e" transform="matrix(11.9552,0,0,-11.9552,188.57625,16.397644)" fill="#212121"/>
<use xlink:href="#font_0_1d" transform="matrix(11.9552,0,0,-11.9552,197.51876,19.254937)" fill="#212121"/>
<use xlink:href="#font_0_1d" transform="matrix(11.9552,0,0,-11.9552,205.27768,19.254937)" fill="#212121"/>
<use xlink:href="#font_0_13" transform="matrix(11.9552,0,0,-11.9552,212.62415,16.397644)" fill="#212121"/>
<use xlink:href="#font_0_1f" transform="matrix(11.9552,0,0,-11.9552,219.87499,16.302002)" fill="#212121"/>
<use xlink:href="#font_0_11" transform="matrix(11.9552,0,0,-11.9552,224.58535,16.397644)" fill="#212121"/>
<use xlink:href="#font_0_f" transform="matrix(11.9552,0,0,-11.9552,230.61077,16.397644)" fill="#212121"/>
<use xlink:href="#font_0_20" transform="matrix(11.9552,0,0,-11.9552,237.72412,16.397644)" fill="#212121"/>
<use xlink:href="#font_0_13" transform="matrix(11.9552,0,0,-11.9552,243.68378,16.397644)" fill="#212121"/>
<use xlink:href="#font_0_7" transform="matrix(11.9552,0,0,-11.9552,253.21807,16.302002)" fill="#212121"/>
<use xlink:href="#font_0_13" transform="matrix(11.9552,0,0,-11.9552,258.92668,16.397644)" fill="#212121"/>
<use xlink:href="#font_0_21" transform="matrix(11.9552,0,0,-11.9552,265.6694,16.397644)" fill="#212121"/>
<use xlink:href="#font_0_21" transform="matrix(11.9552,0,0,-11.9552,270.9775,16.397644)" fill="#212121"/>
<use xlink:href="#font_0_13" transform="matrix(11.9552,0,0,-11.9552,276.4769,16.397644)" fill="#212121"/>
<use xlink:href="#font_0_1f" transform="matrix(11.9552,0,0,-11.9552,283.72773,16.302002)" fill="#212121"/>
<use xlink:href="#font_0_20" transform="matrix(11.9552,0,0,-11.9552,288.67716,16.397644)" fill="#212121"/>
<use xlink:href="#font_0_1" transform="matrix(11.9552,0,0,-11.9552,294.858,16.43351)" fill="#212121"/>
<symbol id="font_0_c">
<path d="M .229 0 C .39150004 0 .49050004 .078 .49050004 .2125 C .49050004 .33 .40150003 .388 .286 .4425 C .1895 .48900003 .1505 .51400008 .1505 .57000008 C .1505 .61700007 .1965 .64300009 .2675 .64300009 C .33850003 .64300009 .39600004 .62100008 .4275 .5985001 L .454 .71750006 C .4275 .734 .361 .75900009 .2585 .75900009 C .116 .75900009 0 .69900009 0 .56000009 C 0 .445 .086500007 .377 .1795 .332 C .2885 .28 .3345 .257 .3345 .19950001 C .3345 .1445 .296 .12150001 .21700001 .12150001 C .1425 .12150001 .065500009 .14700002 .028 .1685 L .004499998 .044500006 C .032 .027000003 .1265 0 .229 0 Z "/>
</symbol>
<symbol id="font_0_22">
<path d="M .17950002 0 C .23450002 0 .30600003 .024 .34800003 .054000006 L .34800003 .034 C .34800003 .0045000005 .3625 0 .38900004 0 L .486 0 L .486 .56500008 L .3335 .56500008 L .3335 .1455 C .316 .13250001 .2735 .11450001 .23700002 .11450001 C .1785 .11450001 .15200001 .1315 .15200001 .23600002 L .15200001 .56500008 L 0 .56500008 L 0 .238 C 0 .098500009 .024000004 0 .17950002 0 Z "/>
</symbol>
<symbol id="font_0_10">
<path d="M .2335 0 C .40850003 0 .522 .12300001 .522 .30850003 C .522 .48850004 .42150004 .57350006 .3025 .57350006 C .22050002 .57350006 .17400003 .54150006 .14750001 .51650008 L .151 .60850009 L .151 .8205001 L 0 .8205001 L 0 .0405 C .015999996 .028500002 .132 0 .2335 0 M .151 .12300001 L .151 .42400003 C .171 .439 .20950002 .45900003 .2535 .45900003 C .32150004 .45900003 .36550004 .41550002 .365 .296 C .36400003 .17300001 .3095 .10450001 .23700002 .10450001 C .194 .10450001 .1645 .11050001 .151 .12300001 Z "/>
</symbol>
<use xlink:href="#font_0_c" transform="matrix(9.9626,0,0,-9.9626,17.596943,26.781697)" fill="#212121"/>
<use xlink:href="#font_0_22" transform="matrix(9.9626,0,0,-9.9626,23.539635,26.781697)" fill="#212121"/>
<use xlink:href="#font_0_10" transform="matrix(9.9626,0,0,-9.9626,29.92566,26.79664)" fill="#212121"/>
<use xlink:href="#font_0_21" transform="matrix(9.9626,0,0,-9.9626,35.858388,26.781697)" fill="#212121"/>
<use xlink:href="#font_0_17" transform="matrix(9.9626,0,0,-9.9626,40.605569,26.701996)" fill="#212121"/>
<use xlink:href="#font_0_21" transform="matrix(9.9626,0,0,-9.9626,43.42,26.781697)" fill="#212121"/>
<use xlink:href="#font_0_19" transform="matrix(9.9626,0,0,-9.9626,48.321599,26.701996)" fill="#212121"/>
<use xlink:href="#font_0_13" transform="matrix(9.9626,0,0,-9.9626,51.061315,26.781697)" fill="#212121"/>
<use xlink:href="#font_0_20" transform="matrix(9.9626,0,0,-9.9626,56.854566,26.781697)" fill="#212121"/>
<use xlink:href="#font_0_f" transform="matrix(9.9626,0,0,-9.9626,63.589284,26.781697)" fill="#212121"/>
<use xlink:href="#font_0_1f" transform="matrix(9.9626,0,0,-9.9626,69.7661,26.701996)" fill="#212121"/>
<use xlink:href="#font_0_13" transform="matrix(9.9626,0,0,-9.9626,73.77605,26.781697)" fill="#212121"/>
<use xlink:href="#font_0_1c" transform="matrix(9.9626,0,0,-9.9626,81.23803,26.781697)" fill="#212121"/>
<use xlink:href="#font_0_1d" transform="matrix(9.9626,0,0,-9.9626,87.7984,29.162758)" fill="#212121"/>
<use xlink:href="#font_0_21" transform="matrix(9.9626,0,0,-9.9626,93.76102,26.781697)" fill="#212121"/>
<use xlink:href="#font_0_17" transform="matrix(9.9626,0,0,-9.9626,98.508197,26.701996)" fill="#212121"/>
<use xlink:href="#font_0_1c" transform="matrix(9.9626,0,0,-9.9626,101.38241,26.781697)" fill="#212121"/>
<use xlink:href="#font_0_1b" transform="matrix(9.9626,0,0,-9.9626,107.92783,26.701996)" fill="#212121"/>
<use xlink:href="#font_0_f" transform="matrix(9.9626,0,0,-9.9626,113.86056,26.781697)" fill="#212121"/>
<use xlink:href="#font_0_19" transform="matrix(9.9626,0,0,-9.9626,120.09216,26.701996)" fill="#212121"/>
<use xlink:href="#font_0_1" transform="matrix(9.9626,0,0,-9.9626,123.01618,26.811585)" fill="#212121"/>
<symbol id="font_1_b">
<path d="M .29500003 .736 C .104 .718 0 .537 0 .36600004 C 0 .202 .097 .032 .272 .0030000006 C .285 .0010000002 .298 0 .31100003 0 C .50600007 0 .623 .192 .623 .36500005 C .623 .543 .50600007 .736 .30900003 .736 L .29500003 .736 M .089 .36 L .089 .374 C .089 .49400006 .136 .628 .269 .666 C .285 .67 .301 .671 .317 .671 C .459 .671 .53400006 .50600007 .53400006 .39000003 C .53400006 .26900003 .49400003 .10700001 .35000003 .071 C .33600004 .067 .321 .06600001 .307 .06600001 C .179 .069000009 .109 .205 .092999998 .31500004 C .091000009 .33 .091000009 .34500004 .089 .36 Z "/>
</symbol>
<symbol id="font_1_13">
<path d="M 0 .741 L 0 .011000001 L .079 .011000001 L .079 .055000005 C .11900001 .021000002 .16 0 .215 0 C .32900004 0 .39400003 .128 .39400003 .23400001 C .39400003 .321 .35300002 .46600003 .23300001 .46600003 C .178 .46600003 .11900001 .446 .076 .409 L .076 .741 L 0 .741 M .31900005 .21700002 C .31300003 .13900002 .263 .061000006 .17500001 .061000006 C .136 .061000006 .079 .094000007 .079 .134 L .079 .343 C .08100001 .356 .09600001 .368 .10500001 .375 C .127 .394 .155 .404 .18300003 .404 C .277 .404 .32000003 .314 .32000003 .23900002 C .32000003 .23200003 .32000003 .22400002 .31900005 .21700002 Z "/>
</symbol>
<symbol id="font_1_31">
<path d="M .011000002 .115 C .0090000019 .098000008 .005999999 .082 .0030000006 .065000008 C .0020000004 .061000006 0 .055000005 0 .050000006 C 0 .025000003 .104 .0060000007 .11500001 .0040000008 C .13200002 .0010000002 .15 0 .16800002 0 C .244 0 .329 .033000005 .329 .13800001 C .329 .202 .281 .25300003 .223 .271 C .17300001 .287 .07700001 .282 .07700001 .351 C .07700001 .39000003 .111 .412 .15400002 .412 C .187 .412 .22200002 .40800003 .254 .395 C .27 .389 .285 .379 .301 .373 L .313 .44 C .265 .462 .21900001 .472 .16700001 .472 C .09 .472 .0030000006 .43800003 .0030000006 .342 C .0030000006 .28100003 .049000004 .23700002 .103 .21700002 C .15 .20100002 .257 .20600002 .257 .13100001 C .257 .079 .20600002 .064 .16100002 .064 C .10200001 .064 .064 .087000008 .011000002 .115 Z "/>
</symbol>
<symbol id="font_1_18">
<path d="M .366 .119 C .321 .088 .276 .062000004 .21800001 .062000004 C .16000001 .062000004 .10700001 .098000008 .083000008 .15600002 C .072 .18100001 .069000009 .20700002 .066 .23400001 L .375 .23400001 C .375 .299 .365 .37 .321 .42000003 C .29 .455 .24500002 .472 .19900002 .472 C .072 .472 0 .345 0 .23200003 L 0 .22700002 C .0020000004 .113000009 .088 0 .21300002 0 C .264 0 .316 .016 .357 .042000005 C .365 .048000006 .372 .050000006 .372 .060000004 C .372 .079 .367 .099 .366 .119 M .073 .29 C .087 .349 .135 .41 .19900002 .41 L .202 .41 C .273 .41 .304 .349 .32 .29 L .073 .29 Z "/>
</symbol>
<symbol id="font_1_30">
<path d="M .071 .36300005 L .071 .44900004 L 0 .44900004 L 0 0 L .076 0 L .076 .20300001 C .076 .27000005 .098 .34600003 .187 .37600003 C .20500002 .38300003 .22500003 .38600005 .24400002 .38600005 L .24400002 .45500005 C .17300001 .45500005 .11800001 .42100004 .071 .36300005 Z "/>
</symbol>
<symbol id="font_1_38">
<path d="M 0 .44400005 L .16700001 0 L .259 0 L .42600004 .44400005 L .35000003 .44400005 L .24200002 .15100001 L .22300002 .091000009 L .21400002 .052000006 L .202 .103 L .178 .177 L .080000009 .44400005 L 0 .44400005 Z "/>
</symbol>
<symbol id="font_1_12">
<path d="M .036 .36 C .091000009 .39200003 .125 .412 .19100002 .412 L .19600001 .412 C .252 .405 .273 .349 .273 .29500003 L .273 .26 C .169 .26 0 .23600002 0 .125 C 0 .066 .038000004 0 .109 0 C .16600001 0 .23000002 .011000001 .27600003 .047000003 L .27600003 .011000001 L .35200004 .011000001 L .35200004 .292 C .35200004 .386 .296 .472 .18900001 .472 C .14 .472 .09200001 .462 .049000004 .439 C .042000005 .43600003 .030000002 .432 .030000002 .421 C .030000002 .40100003 .034999998 .38 .036 .36 M .273 .20800002 L .273 .15200001 C .273 .085 .224 .062000004 .16100002 .062000004 C .125 .062000004 .069 .079 .069 .128 C .069 .17800002 .149 .19500001 .186 .20000002 C .215 .20500002 .24400002 .20800002 .273 .20800002 Z "/>
</symbol>
<symbol id="font_1_34">
<path d="M .086 .582 L .086 .455 L 0 .455 L 0 .395 L .083000008 .395 L .083000008 .125 C .083000008 .075 .097 0 .164 0 C .21700001 0 .26700003 .015000001 .31300003 .039 L .29700003 .099 C .266 .079 .24400002 .065000008 .207 .065000008 C .161 .065000008 .157 .119 .157 .15300001 L .157 .395 L .296 .395 L .296 .455 L .157 .455 L .157 .582 L .086 .582 Z "/>
</symbol>
<symbol id="font_1_21">
<path d="M .0069999995 .44400005 L .0069999995 0 L .083 0 L .083 .44400005 L .0069999995 .44400005 M 0 .68000009 L 0 .591 L .08900001 .591 L .08900001 .68000009 L 0 .68000009 Z "/>
</symbol>
<symbol id="font_1_27">
<path d="M .202 .472 C .07900001 .45900003 0 .34800003 0 .23300001 C 0 .142 .049 .045 .154 .010000001 C .17400001 .0030000006 .19500001 0 .21700001 0 C .335 0 .432 .105000007 .432 .23200003 C .432 .344 .35500003 .472 .214 .472 L .202 .472 M .074 .22600001 C .073 .23200003 .073 .23800002 .073 .24400002 C .073 .327 .126 .41 .216 .41 C .30600003 .41 .358 .329 .358 .24100001 C .358 .16400002 .31800003 .065000008 .21700001 .065000008 C .134 .065000008 .083000008 .134 .074 .22600001 Z "/>
</symbol>
<symbol id="font_1_25">
<path d="M .074 .38200004 L .074 .44900004 L 0 .44900004 L 0 0 L .078999999 0 L .078999999 .229 C .078999999 .29200004 .09 .39300005 .17800002 .39300005 C .20600002 .39300005 .237 .38700003 .25700004 .36500005 C .27500005 .34400005 .278 .31700004 .278 .29000003 C .278 .27700005 .277 .26500003 .277 .25300003 L .277 0 L .356 0 L .356 .23900001 C .356 .256 .357 .27400003 .357 .29200004 C .357 .36500005 .34000004 .45500005 .221 .45500005 C .16000001 .45500005 .113000009 .42700006 .074 .38200004 Z "/>
</symbol>
<symbol id="font_1_1b">
<path d="M .073 .44400005 L 0 .44400005 L 0 .38400004 L .073 .38400004 L .073 0 L .14900002 0 L .14900002 .38400004 L .25800003 .38400004 L .25800003 .44400005 L .14600002 .44400005 L .14600002 .55600008 C .14600002 .56600007 .14500001 .57600006 .14500001 .587 C .14500001 .64000007 .18300002 .679 .23500003 .679 C .267 .679 .29 .67 .317 .6610001 L .317 .72 C .317 .74100008 .252 .74100008 .23800002 .74100008 C .13300002 .74100008 .073 .646 .073 .54800006 L .073 .44400005 Z "/>
</symbol>
<symbol id="font_1_24">
<path d="M .074 .38200004 L .074 .44900004 L 0 .44900004 L 0 0 L .078999999 0 L .078999999 .229 C .078999999 .29200004 .09 .39300005 .17800002 .39300005 C .20600002 .39300005 .237 .38700003 .25700004 .36500005 C .27500005 .34400005 .278 .31700004 .278 .29000003 C .278 .27700005 .277 .26500003 .277 .25300003 L .277 0 L .356 0 L .356 .229 C .356 .29200004 .36700005 .39300005 .45499999 .39300005 C .48299999 .39300005 .514 .38700003 .534 .36500005 C .552 .34400005 .555 .31700004 .555 .29000003 C .555 .27700005 .554 .26500003 .554 .25300003 L .554 0 L .633 0 L .633 .29400004 C .633 .36800004 .614 .45500005 .49800004 .45500005 C .44 .45500005 .376 .42700006 .347 .37500004 C .334 .39800004 .328 .41400004 .31 .42900003 C .28400005 .44900004 .251 .45500005 .219 .45500005 C .15900001 .45500005 .112 .42600004 .074 .38200004 Z "/>
</symbol>
<symbol id="font_1_39">
<path d="M 0 .44500003 C .0030000006 .43100003 .008000001 .418 .012 .40500004 C .052 .28300003 .086 .15900001 .12500002 .037 C .12900001 .023000002 .12900001 0 .14700002 0 C .15100001 0 .15500002 .001 .158 .001 L .216 .001 C .24600002 .11100001 .28500004 .22000002 .30900003 .333 C .314 .35300002 .31800003 .37300004 .31800003 .393 L .319 .393 C .32200004 .35300002 .33200003 .314 .342 .27600003 C .36200003 .19600001 .386 .116000007 .411 .037 C .416 .020000002 .41500003 .001 .43300004 .001 L .48900003 .001 C .49200005 .001 .49700005 0 .50100007 0 C .51500007 0 .517 .019000002 .52000007 .030000002 C .55700007 .155 .59800007 .27800004 .634 .40300004 C .63900008 .41700004 .64400008 .43100003 .647 .44500003 L .573 .44300003 L .563 .416 L .50100007 .209 L .46300004 .053000004 C .46300004 .085 .45000003 .119 .44300003 .15100001 C .41900004 .23700002 .39200003 .324 .367 .41000004 L .36 .43100003 C .358 .439 .35700003 .44500003 .34600003 .44500003 L .296 .44500003 C .28100003 .44500003 .282 .432 .27800004 .42100004 L .25700004 .35200004 C .22900002 .256 .18800001 .147 .18200001 .053000004 L .18100001 .053000004 C .18100001 .072000008 .17700002 .09200001 .172 .11100001 C .149 .22500001 .106000009 .33600004 .07800001 .44500003 L 0 .44500003 Z "/>
</symbol>
<symbol id="font_1_29">
<path d="M .076 .591 L .076 .638 L 0 .638 L 0 0 L .079 0 L .079 .238 C .117000009 .20400001 .162 .183 .21400002 .183 C .33 .183 .39400003 .31 .39400003 .418 C .39400003 .50200006 .35600005 .65000006 .23600003 .65000006 C .18200001 .65000006 .11800001 .629 .076 .591 M .31900005 .402 C .31200005 .325 .25900004 .245 .17300001 .245 C .136 .245 .079 .277 .079 .316 L .079 .52400007 C .084 .554 .14200002 .58400008 .18200001 .58400008 C .268 .58400008 .32000003 .496 .32000003 .41900004 C .32000003 .41300003 .32000003 .408 .31900005 .402 Z "/>
</symbol>
<symbol id="font_1_2c">
<path d="M 0 .083000008 L 0 0 L .083000008 0 L .083000008 .083000008 L 0 .083000008 Z "/>
</symbol>
<use xlink:href="#font_1_b" transform="matrix(10.9091,0,0,-10.9091,23.279002,112.41019)" fill="#212121"/>
<use xlink:href="#font_1_13" transform="matrix(10.9091,0,0,-10.9091,31.548098,112.301097)" fill="#212121"/>
<use xlink:href="#font_1_31" transform="matrix(10.9091,0,0,-10.9091,36.577196,112.301097)" fill="#212121"/>
<use xlink:href="#font_1_18" transform="matrix(10.9091,0,0,-10.9091,40.809926,112.301097)" fill="#212121"/>
<use xlink:href="#font_1_30" transform="matrix(10.9091,0,0,-10.9091,46.10084,112.18109)" fill="#212121"/>
<use xlink:href="#font_1_38" transform="matrix(10.9091,0,0,-10.9091,49.079027,112.18109)" fill="#212121"/>
<use xlink:href="#font_1_12" transform="matrix(10.9091,0,0,-10.9091,54.391759,112.301097)" fill="#212121"/>
<use xlink:href="#font_1_34" transform="matrix(10.9091,0,0,-10.9091,59.279035,112.301097)" fill="#212121"/>
<use xlink:href="#font_1_21" transform="matrix(10.9091,0,0,-10.9091,63.78449,112.18109)" fill="#212121"/>
<use xlink:href="#font_1_27" transform="matrix(10.9091,0,0,-10.9091,65.911769,112.301097)" fill="#212121"/>
<use xlink:href="#font_1_25" transform="matrix(10.9091,0,0,-10.9091,71.8245,112.18109)" fill="#212121"/>
<use xlink:href="#font_1_1b" transform="matrix(10.9091,0,0,-10.9091,80.4645,112.18109)" fill="#212121"/>
<use xlink:href="#font_1_30" transform="matrix(10.9091,0,0,-10.9091,84.34814,112.18109)" fill="#212121"/>
<use xlink:href="#font_1_27" transform="matrix(10.9091,0,0,-10.9091,87.52269,112.301097)" fill="#212121"/>
<use xlink:href="#font_1_24" transform="matrix(10.9091,0,0,-10.9091,93.435428,112.18109)" fill="#212121"/>
<use xlink:href="#font_1_30" transform="matrix(10.9091,0,0,-10.9091,105.65361,112.18109)" fill="#212121"/>
<use xlink:href="#font_1_18" transform="matrix(10.9091,0,0,-10.9091,108.8718,112.301097)" fill="#212121"/>
<use xlink:href="#font_1_38" transform="matrix(10.9091,0,0,-10.9091,113.45362,112.18109)" fill="#212121"/>
<use xlink:href="#font_1_21" transform="matrix(10.9091,0,0,-10.9091,119.04999,112.18109)" fill="#212121"/>
<use xlink:href="#font_1_18" transform="matrix(10.9091,0,0,-10.9091,121.2209,112.301097)" fill="#212121"/>
<use xlink:href="#font_1_39" transform="matrix(10.9091,0,0,-10.9091,125.80272,112.192)" fill="#212121"/>
<use xlink:href="#font_1_29" transform="matrix(10.9091,0,0,-10.9091,137.5082,114.297458)" fill="#212121"/>
<use xlink:href="#font_1_12" transform="matrix(10.9091,0,0,-10.9091,142.71184,112.301097)" fill="#212121"/>
<use xlink:href="#font_1_29" transform="matrix(10.9091,0,0,-10.9091,148.26457,114.297458)" fill="#212121"/>
<use xlink:href="#font_1_18" transform="matrix(10.9091,0,0,-10.9091,153.67549,112.301097)" fill="#212121"/>
<use xlink:href="#font_1_30" transform="matrix(10.9091,0,0,-10.9091,158.9664,112.18109)" fill="#212121"/>
<use xlink:href="#font_1_2c" transform="matrix(10.9091,0,0,-10.9091,162.83913,112.18109)" fill="#212121"/>
<symbol id="font_2_18">
<path d="M 0 .61100009 L 0 .54800006 C .04600001 .54800006 .095000009 .55300006 .13800001 .57100006 L .13800001 .063 L .0050000029 .063 L .0050000029 0 L .36100004 0 L .36100004 .063 L .22800002 .063 L .22800002 .67700007 L .21700001 .67700007 C .20200002 .67700007 .19500003 .66700008 .18400002 .65900006 C .13 .62100008 .064 .61100009 0 .61100009 Z "/>
</symbol>
<use xlink:href="#font_2_18" transform="matrix(7.9701,0,0,-7.9701,170.31623,108.01203)" fill="#42a5f5"/>
<symbol id="font_1_5">
<path d="M 0 .69100007 L 0 0 L .081999998 0 L .081999998 .31500004 L .38700003 .31500004 L .38700003 .37700004 L .081999998 .37700004 L .081999998 .62600007 L .42900006 .62600007 L .42900006 .69100007 L 0 .69100007 Z "/>
</symbol>
<symbol id="font_1_23">
<path d="M 0 .73 L 0 0 L .076 0 L .076 .73 L 0 .73 Z "/>
</symbol>
<symbol id="font_1_3b">
<path d="M 0 .64900007 C .011 .61200007 .031000002 .57500007 .047000007 .53900006 C .076000008 .47000004 .105000007 .40100003 .135 .33200003 L .18200001 .22200002 C .18400002 .21700001 .187 .21200001 .18800001 .20700002 L .18800001 .20500002 C .18800001 .19600001 .179 .179 .17500001 .16800002 C .15900001 .128 .141 .059 .09900001 .059 C .072000008 .059 .046000005 .068 .020000002 .075 L .026000003 .008000001 C .049000004 .003000006 .07300001 0 .09600001 0 C .16200002 0 .19200002 .058 .21300002 .11100001 C .27800004 .26900003 .34 .42900003 .40300004 .58900007 C .411 .609 .42000003 .629 .42600004 .64900007 L .36 .64900007 C .34 .64900007 .32400004 .58500006 .31100003 .55200007 C .27400003 .45900006 .231 .35800005 .22000002 .25700004 C .21500002 .27600003 .21400002 .296 .209 .316 C .18200001 .42000003 .136 .521 .09300001 .62 C .086 .64000007 .08400001 .64900007 .069000009 .64900007 L 0 .64900007 Z "/>
</symbol>
<symbol id="font_1_17">
<path d="M .31800003 .741 L .31800003 .41300003 C .279 .447 .22500003 .467 .17300001 .467 C .064 .467 0 .34 0 .23900002 L 0 .23400001 C 0 .134 .049000004 0 .17500001 0 C .227 0 .27800004 .026 .31500004 .061000006 L .31500004 .011000001 L .39400003 .011000001 L .39400003 .741 L .31800003 .741 M .07400001 .21700002 C .07400001 .22300002 .07300001 .22900002 .07300001 .23500002 C .07300001 .315 .12200001 .404 .21900001 .404 C .25100003 .404 .30800004 .38300003 .31500004 .347 C .316 .34100003 .316 .335 .316 .329 C .316 .317 .31500004 .305 .31500004 .293 L .31500004 .14100002 C .31500004 .097 .25 .062000004 .21000001 .062000004 C .12300001 .062000004 .08100001 .14100002 .07400001 .21700002 Z "/>
</symbol>
<symbol id="font_1_3a">
<path d="M .006 .44400005 C .019000002 .42400003 .037 .40700004 .052 .38900004 L .17400001 .24700001 C .178 .24200002 .187 .23600002 .187 .229 L .187 .22800002 C .187 .223 .18 .21700001 .17600002 .21300002 L .141 .17 C .11100001 .134 .082 .099 .052 .063 C .035 .042000005 .016 .022000002 0 0 L .085 .001 L .223 .185 L .36800004 .001 L .45400004 0 C .43800003 .021000002 .42000003 .040000004 .40300004 .060000007 L .27400003 .21100001 C .27 .215 .261 .223 .261 .229 C .261 .23900001 .293 .26900003 .307 .28700004 L .39200003 .38900004 C .407 .40700004 .42400003 .42400003 .437 .44400005 L .35300002 .44300006 L .22500001 .28300003 L .104 .43000005 L .091000009 .44300006 L .065000008 .44400005 L .006 .44400005 Z "/>
</symbol>
<symbol id="font_1_14">
<path d="M .37 .120000008 C .32400004 .089 .28 .065000008 .21700001 .065000008 C .12300001 .065000008 .07400001 .14900002 .07400001 .23600002 C .07400001 .322 .12200001 .407 .22300002 .407 C .252 .407 .28100003 .402 .30800004 .391 C .326 .382 .342 .37100003 .35900004 .361 C .363 .377 .365 .393 .36800004 .409 C .36900003 .412 .37 .417 .37 .42200003 C .37 .45700003 .243 .472 .21800003 .472 C .088 .472 .0050000029 .36200003 0 .24500002 L 0 .23500002 C 0 .122 .076000008 0 .215 0 C .26500003 0 .31800003 .014 .36100004 .041 C .367 .046000005 .37600003 .049000004 .37600003 .059000005 C .37600003 .078 .37100003 .1 .37 .120000008 Z "/>
</symbol>
<use xlink:href="#font_1_5" transform="matrix(10.9091,0,0,-10.9091,23.715367,125.7301)" fill="#212121"/>
<use xlink:href="#font_1_27" transform="matrix(10.9091,0,0,-10.9091,28.897189,125.850109)" fill="#212121"/>
<use xlink:href="#font_1_25" transform="matrix(10.9091,0,0,-10.9091,34.80992,125.7301)" fill="#212121"/>
<use xlink:href="#font_1_34" transform="matrix(10.9091,0,0,-10.9091,39.740839,125.850109)" fill="#212121"/>
<use xlink:href="#font_1_1b" transform="matrix(10.9091,0,0,-10.9091,47.377206,125.7301)" fill="#212121"/>
<use xlink:href="#font_1_12" transform="matrix(10.9091,0,0,-10.9091,50.90085,125.850109)" fill="#212121"/>
<use xlink:href="#font_1_24" transform="matrix(10.9091,0,0,-10.9091,56.43176,125.7301)" fill="#212121"/>
<use xlink:href="#font_1_21" transform="matrix(10.9091,0,0,-10.9091,64.96268,125.7301)" fill="#212121"/>
<use xlink:href="#font_1_23" transform="matrix(10.9091,0,0,-10.9091,67.60268,125.7301)" fill="#212121"/>
<use xlink:href="#font_1_3b" transform="matrix(10.9091,0,0,-10.9091,69.45722,127.96647)" fill="#212121"/>
<use xlink:href="#font_1_27" transform="matrix(10.9091,0,0,-10.9091,78.228137,125.850109)" fill="#212121"/>
<use xlink:href="#font_1_1b" transform="matrix(10.9091,0,0,-10.9091,83.59541,125.7301)" fill="#212121"/>
<use xlink:href="#font_1_13" transform="matrix(10.9091,0,0,-10.9091,91.08996,125.850109)" fill="#212121"/>
<use xlink:href="#font_1_27" transform="matrix(10.9091,0,0,-10.9091,96.45724,125.850109)" fill="#212121"/>
<use xlink:href="#font_1_17" transform="matrix(10.9091,0,0,-10.9091,102.22815,125.850109)" fill="#212121"/>
<use xlink:href="#font_1_3b" transform="matrix(10.9091,0,0,-10.9091,107.55179,127.96647)" fill="#212121"/>
<use xlink:href="#font_1_34" transform="matrix(10.9091,0,0,-10.9091,116.169979,125.850109)" fill="#212121"/>
<use xlink:href="#font_1_18" transform="matrix(10.9091,0,0,-10.9091,120.28271,125.850109)" fill="#212121"/>
<use xlink:href="#font_1_3a" transform="matrix(10.9091,0,0,-10.9091,124.7118,125.7301)" fill="#212121"/>
<use xlink:href="#font_1_34" transform="matrix(10.9091,0,0,-10.9091,129.87181,125.850109)" fill="#212121"/>
<use xlink:href="#font_1_21" transform="matrix(10.9091,0,0,-10.9091,137.9991,125.7301)" fill="#212121"/>
<use xlink:href="#font_1_31" transform="matrix(10.9091,0,0,-10.9091,140.09365,125.850109)" fill="#212121"/>
<use xlink:href="#font_1_14" transform="matrix(10.9091,0,0,-10.9091,147.94821,125.850109)" fill="#212121"/>
<use xlink:href="#font_1_24" transform="matrix(10.9091,0,0,-10.9091,153.20639,125.7301)" fill="#212121"/>
<use xlink:href="#font_1_31" transform="matrix(10.9091,0,0,-10.9091,161.26822,125.850109)" fill="#212121"/>
<use xlink:href="#font_1_31" transform="matrix(10.9091,0,0,-10.9091,165.42459,125.850109)" fill="#212121"/>
<use xlink:href="#font_1_2c" transform="matrix(10.9091,0,0,-10.9091,170.31188,125.7301)" fill="#212121"/>
<path transform="matrix(1,0,0,-1,22.679,235.569)" stroke-width=".398" stroke-linecap="butt" stroke-miterlimit="10" stroke-linejoin="miter" fill="none" stroke="#212121" d="M 0 0 L 163.272 0 "/>
<symbol id="font_3_3">
<path d="M 0 .60400006 L 0 .527 C .052 .527 .104 .531 .15300001 .54700008 L .15300001 .077 L .0060000049 .077 L .0060000049 0 L .40899999 0 L .40899999 .077 L .264 .077 L .264 .669 C .259 .669 .25300003 .67 .24800001 .67 C .23300003 .67 .223 .65800008 .21100001 .651 C .14800002 .61300006 .073000017 .60400006 0 .60400006 Z "/>
</symbol>
<use xlink:href="#font_3_3" transform="matrix(5.9776,0,0,-5.9776,34.483804,243.04405)" fill="#42a5f5"/>
<symbol id="font_2_1">
<path d="M 0 0 L .08100001 0 L .16100002 .19600001 L .171 .19800002 L .44700004 .19800002 L .46300004 .19600001 L .54200008 0 L .6470001 0 C .643 .018000002 .63400009 .035000005 .627 .052000006 C .55200007 .24200002 .475 .43300004 .4 .624 C .386 .65500006 .38200004 .69400009 .36 .69400009 L .279 .69400009 C .27400003 .693 .273 .68700006 .27100004 .683 L .259 .65400007 C .18300002 .45300005 .10000001 .25200004 .021000002 .054000006 C .014000002 .036000004 .0040000008 .018000002 0 0 M .18400002 .25700004 C .21200001 .34400005 .25100003 .42900003 .28100003 .51500007 C .293 .54800006 .307 .582 .312 .61700007 L .31300003 .61700007 C .314 .6 .321 .582 .326 .56600007 C .36 .46300004 .39800004 .35700003 .441 .25700004 L .18400002 .25700004 Z "/>
</symbol>
<symbol id="font_2_14">
<path d="M 0 .7120001 L 0 0 L .08400001 0 L .08400001 .7120001 L 0 .7120001 Z "/>
</symbol>
<symbol id="font_2_22">
<path d="M 0 .44500003 C .0040000008 .43100003 .011 .418 .016 .404 L .17 .029000001 C .177 .013 .177 0 .194 0 C .19800002 0 .20300001 .001 .20600002 .001 L .254 .001 C .25700004 .001 .26100005 0 .265 0 C .283 0 .28500004 .025 .292 .039 C .33200003 .136 .37200005 .23400001 .412 .33100004 L .44200004 .404 C .44700004 .418 .454 .43100003 .458 .44500003 L .39000006 .44500003 C .374 .44500003 .371 .43 .36700005 .41700004 C .333 .335 .29900003 .25300003 .268 .17 C .254 .133 .23800002 .096 .231 .057000005 C .20700002 .15400002 .163 .24900002 .125 .34300003 C .11600001 .367 .106000009 .39200003 .09600001 .416 L .08800001 .43500004 C .086 .44200004 .083000008 .44500003 .075 .44500003 L 0 .44500003 Z "/>
</symbol>
<symbol id="font_2_10">
<path d="M .395 .11800001 C .38700003 .11400001 .37900005 .10800001 .37100003 .10300001 C .33100004 .08100001 .284 .06600001 .238 .06600001 C .16300002 .06600001 .07700001 .12300001 .07700001 .22900002 L .40500004 .22900002 C .40500004 .33100004 .36900003 .469 .21600002 .469 C .08600001 .469 0 .35300002 0 .23000002 L 0 .22600001 C .0020000004 .10100001 .10800001 0 .23400003 0 C .28800003 0 .34100003 .014 .38700003 .039 C .39400003 .042 .40100003 .046 .40100003 .055000005 C .40100003 .076000008 .39600004 .09700001 .395 .11800001 M .08400001 .289 C .10200001 .34700004 .14700002 .40300004 .21700001 .40300004 C .252 .40300004 .28800003 .388 .31100003 .36100004 C .32900004 .34000004 .337 .31500004 .344 .289 L .08400001 .289 Z "/>
</symbol>
<symbol id="font_2_1e">
<path d="M .012000002 .12000001 C .009 .09700001 0 .072000008 0 .05 C 0 .025000003 .112 .0060000007 .125 .004 C .14400001 0 .164 0 .18400002 0 C .25500003 0 .35300002 .029000003 .35300002 .134 C .35300002 .21900001 .284 .26900003 .20300001 .28100003 C .164 .28800003 .083000008 .293 .083000008 .34800003 C .083000008 .39200003 .132 .40500004 .16700001 .40500004 C .224 .40500004 .26700003 .39200003 .32200004 .36600004 L .335 .43800003 C .28300003 .45800004 .234 .469 .179 .469 C .102 .469 .004999999 .439 .004999999 .337 C .004999999 .24300002 .094000007 .21400002 .16700001 .19900002 C .20600002 .19200002 .27400003 .18500002 .27400003 .13000001 C .27400003 .080000009 .216 .068 .17600002 .068 C .11500001 .068 .066 .09 .012000002 .12000001 Z "/>
</symbol>
<symbol id="font_2_e">
<path d="M 0 .21900001 L 0 .128 L .028000005 .128 L 0 0 L .045999998 0 L .089999999 .127 L .089999999 .21900001 L 0 .21900001 Z "/>
</symbol>
<symbol id="font_2_6">
<path d="M 0 .69400009 L 0 0 L .08400001 0 L .08500001 .61700007 C .088 .596 .097 .57600006 .104 .55600008 C .16700001 .38800005 .237 .222 .30300004 .055000005 L .31200005 .033000005 C .31700004 .026 .31700004 .020000002 .32700003 .020000002 C .33100004 .020000002 .334 .021000002 .337 .021000002 L .393 .021000002 C .397 .023 .398 .027 .39999999 .031000002 L .41000004 .057000005 C .467 .191 .521 .32700003 .575 .46300004 C .588 .49700005 .602 .531 .614 .56600007 C .62 .58300009 .628 .6 .63100007 .61700007 L .632 0 L .716 0 L .716 .69400009 L .60400006 .69400009 L .59400007 .69200006 L .575 .651 L .37800003 .158 L .35800005 .098000008 L .315 .216 L .141 .64900007 L .12100001 .69200006 L .111 .69400009 L 0 .69400009 Z "/>
</symbol>
<symbol id="font_2_1c">
<path d="M 0 .091000009 L 0 0 L .091 0 L .091 .091000009 L 0 .091000009 Z "/>
</symbol>
<symbol id="font_2_7">
<path d="M .316 .736 C .23300003 .72400006 .165 .699 .10700001 .638 C .036000004 .565 0 .46500004 0 .36500005 C 0 .187 .12400001 0 .337 0 C .537 0 .666 .19 .666 .36800004 C .666 .536 .559 .697 .384 .732 C .367 .734 .349 .737 .331 .737 C .326 .737 .321 .736 .316 .736 M .10100001 .36100004 L .10100001 .37600003 C .10100001 .504 .16900002 .667 .337 .667 C .48300005 .667 .565 .512 .565 .38500003 C .565 .261 .51600006 .11100001 .371 .075 C .359 .07300001 .34600003 .071 .334 .071 L .326 .071 C .20300003 .076000008 .127 .194 .10700001 .30800004 C .104 .32600004 .103 .34300003 .10100001 .36100004 Z "/>
</symbol>
<symbol id="font_2_13">
<path d="M .009000003 .44400005 L .009000003 0 L .09300001 0 L .09300001 .44400005 L .009000003 .44400005 M 0 .68600007 L 0 .58500006 L .10100001 .58500006 L .10100001 .68600007 L 0 .68600007 Z "/>
</symbol>
<symbol id="font_2_1d">
<path d="M .07700001 .35900004 L .07700001 .45100004 L 0 .45100004 L 0 0 L .08400001 0 L .08400001 .2 C .08400001 .30200003 .15100001 .38000003 .263 .38000003 L .263 .45400004 C .18700002 .45400004 .12900001 .41900004 .07700001 .35900004 Z "/>
</symbol>
<symbol id="font_2_c">
<path d="M .043000007 .35200004 C .096 .386 .143 .40500004 .20600002 .40500004 C .268 .40500004 .29400004 .34500004 .29400004 .29000003 L .29400004 .257 C .187 .257 0 .23300001 0 .128 C 0 .061 .049000004 0 .12200001 0 C .18300002 0 .246 .013 .297 .048 L .297 .010000001 L .38100005 .010000001 L .38100005 .289 C .38100005 .36900003 .33500005 .462 .219 .469 L .20800002 .469 C .155 .469 .106000009 .45900003 .057000005 .43600003 C .049000004 .43300004 .037 .42900003 .037 .418 C .037 .397 .042000005 .374 .043000007 .35200004 M .29400004 .201 L .29400004 .157 C .29400004 .09900001 .251 .06600001 .179 .06600001 C .143 .06600001 .08 .079 .08 .12900001 C .08 .17700002 .16600001 .18800001 .2 .19300002 C .23100002 .19800002 .263 .19900002 .29400004 .201 Z "/>
</symbol>
<symbol id="font_2_8">
<path d="M 0 .69400009 L 0 0 L .10100001 0 L .10100001 .28500004 L .292 .28500004 C .40100003 .293 .521 .36900003 .521 .49000005 C .521 .623 .38300003 .69500008 .26100005 .69500008 C .24300002 .69500008 .226 .69400009 .20800002 .69400009 L 0 .69400009 M .098000008 .34700004 L .098000008 .63500007 L .25800003 .63500007 C .338 .63500007 .43 .58500006 .43 .49100004 C .43 .43100003 .39200003 .38700003 .338 .36300005 C .29800005 .34700004 .25599999 .34700004 .21300002 .34700004 L .098000008 .34700004 Z "/>
</symbol>
<symbol id="font_2_16">
<path d="M .08 .37900005 L .08 .45100004 L 0 .45100004 L 0 0 L .087 0 L .087 .22600001 C .087 .28900004 .10000001 .38800005 .192 .38800005 C .25100003 .38800005 .29500003 .36100004 .29500003 .28300003 C .29500003 .27000005 .294 .256 .294 .244 L .294 0 L .381 0 L .381 .23500002 C .381 .25200004 .38200004 .26900003 .38200004 .28700004 C .38200004 .36700005 .36 .45400004 .23500002 .45400004 C .17200002 .45400004 .12400001 .42800004 .08 .37900005 Z "/>
</symbol>
<symbol id="font_2_f">
<path d="M .343 .72200009 L .343 .411 C .294 .44300003 .24500002 .46400003 .18400002 .46400003 C .068 .46400003 0 .344 0 .23300001 C 0 .13800001 .057 0 .17400001 0 C .23500003 0 .29500003 .020000002 .34 .063 L .34 .010000001 L .42700003 .010000001 L .42700003 .72200009 L .343 .72200009 M .087 .21600002 C .087 .22200002 .08600001 .22700002 .08600001 .23300001 C .08600001 .31300003 .135 .39800004 .23900001 .39800004 C .273 .39800004 .308 .38400004 .33200003 .35500003 C .336 .351 .33900003 .34700004 .34 .342 L .34 .14500001 C .34 .09600001 .26 .06600001 .228 .06600001 C .14000002 .06600001 .09500001 .13800001 .087 .21600002 Z "/>
</symbol>
<symbol id="font_2_12">
<path d="M 0 .7120001 L 0 0 L .087 0 L .087 .22600001 C .087 .28900004 .10000001 .38800005 .192 .38800005 C .25100003 .38800005 .29500003 .36100004 .29500003 .28300003 C .29500003 .27000005 .294 .256 .294 .244 L .294 0 L .381 0 L .381 .28300003 C .381 .32000003 .379 .35800005 .36200003 .39100004 C .33800004 .43800003 .287 .45400004 .23700002 .45400004 C .18400002 .45400004 .118 .43200005 .08500001 .38300003 L .08400001 .7120001 L 0 .7120001 Z "/>
</symbol>
<symbol id="font_2_17">
<path d="M .22 .469 C .098000008 .45700003 0 .358 0 .23000002 C 0 .11200001 .094000007 0 .238 0 C .36 0 .47 .09900001 .47 .22800002 C .47 .35300002 .37100003 .47000004 .234 .47000004 C .229 .47000004 .22500003 .469 .22 .469 M .087000008 .22500001 C .086 .23100002 .086 .23700002 .086 .24300002 C .086 .32700003 .14400001 .40300004 .23500002 .40300004 C .326 .40300004 .38300003 .32900004 .38300003 .24000001 C .38300003 .15100001 .32900004 .069000009 .234 .069000009 C .15200001 .069000009 .097 .132 .087000008 .22500001 Z "/>
</symbol>
<symbol id="font_2_5">
<path d="M 0 .69100007 L 0 0 L .10100001 0 L .10100001 .31300003 L .421 .31300003 L .421 .37900005 L .10100001 .37900005 L .10100001 .62100008 L .46600003 .62100008 L .46600003 .69100007 L 0 .69100007 Z "/>
</symbol>
<symbol id="font_2_1a">
<path d="M .268 0 C .257 .016000003 .23700002 .031000004 .224 .047000007 C .121000017 .171 .087000008 .33600004 .087000008 .49400003 C .087000008 .65500006 .11800001 .82500007 .22300002 .952 L .25300003 .9850001 C .25800003 .99000009 .264 .9940001 .268 1 L .213 1 C .19100002 1 .169 .9710001 .153 .95300009 C .039000006 .82800009 0 .658 0 .49300004 C 0 .319 .05200001 .13300002 .187 .012999997 C .195 .0069999995 .19800002 0 .213 0 L .268 0 Z "/>
</symbol>
<symbol id="font_2_20">
<path d="M .048 .45900003 C .064 .52900007 .10100001 .60700008 .19200002 .60700008 C .273 .60700008 .339 .54600009 .339 .46000005 C .339 .36400003 .263 .30000005 .19700001 .244 C .141 .19500001 .089 .143 .033 .093 C .020999998 .083000008 .008000001 .074 .008000001 .058000007 L .008000001 0 L .43200005 0 L .43200005 .078 L .088 .077 C .14400001 .12900001 .20400001 .18300002 .264 .23 C .339 .29000003 .43200005 .35300002 .43200005 .46400006 C .43200005 .53000006 .40000005 .596 .34600003 .63500007 C .30400003 .665 .25300003 .67700007 .201 .67700007 L .19500001 .67700007 C .10800001 .6750001 .039000006 .624 .004999999 .536 C .0029999987 .531 0 .52400007 0 .51900008 C .001000002 .512 .009 .50600007 .013 .50100007 C .024000004 .48700006 .035000005 .47100006 .048 .45900003 Z "/>
</symbol>
<symbol id="font_2_25">
<path d="M .20900002 .69900009 C .127 .6880001 .068 .6470001 .035000005 .57000008 C .007999998 .507 0 .43400003 0 .36600004 C 0 .26200003 .0029999987 .141 .077 .061000006 C .113 .023000002 .16800002 0 .22100002 0 C .41700004 0 .44600005 .20500002 .44600005 .344 C .44600005 .446 .43800003 .5630001 .367 .64000007 C .33200003 .67700007 .277 .70000007 .22500003 .70000007 C .22000003 .70000007 .21400002 .69900009 .20900002 .69900009 M .087000008 .30600003 C .086 .314 .086 .32200004 .086 .33 L .086 .35300002 C .086 .46800003 .089999999 .632 .22500003 .632 C .35500003 .632 .35900004 .46 .35900004 .37100003 L .35900004 .33 C .35900004 .23500002 .351 .068 .22300002 .068 C .127 .068 .09700001 .17500001 .08900001 .26700003 C .08800001 .28 .08900001 .293 .087000008 .30600003 Z "/>
</symbol>
<symbol id="font_2_1b">
<path d="M 0 1 C .003999997 .9940001 .010000002 .99000009 .014999997 .9850001 L .044999999 .952 C .15 .82500007 .18100001 .653 .18100001 .49400003 C .18100001 .323 .141 .141 .014999997 .015000001 C .010000002 .010000005 .003999997 .0059999974 0 0 L .055000005 0 C .075 0 .09400001 .024000004 .10700001 .038000004 C .22400002 .158 .268 .333 .268 .49300004 C .268 .67200008 .22200002 .859 .083000008 .9850001 C .075 .99300006 .07000001 1 .055000005 1 L 0 1 Z "/>
</symbol>
<use xlink:href="#font_2_1" transform="matrix(7.9701,0,0,-7.9701,38.157056,246.02207)" fill="#212121"/>
<use xlink:href="#font_2_14" transform="matrix(7.9701,0,0,-7.9701,44.23027,246.02207)" fill="#212121"/>
<use xlink:href="#font_2_22" transform="matrix(7.9701,0,0,-7.9701,45.69677,246.03003)" fill="#212121"/>
<use xlink:href="#font_2_10" transform="matrix(7.9701,0,0,-7.9701,49.76152,246.10176)" fill="#212121"/>
<use xlink:href="#font_2_1e" transform="matrix(7.9701,0,0,-7.9701,53.483556,246.10176)" fill="#212121"/>
<use xlink:href="#font_2_e" transform="matrix(7.9701,0,0,-7.9701,57.301237,247.04224)" fill="#212121"/>
<use xlink:href="#font_2_6" transform="matrix(7.9701,0,0,-7.9701,62.49774,246.02207)" fill="#212121"/>
<use xlink:href="#font_2_1c" transform="matrix(7.9701,0,0,-7.9701,69.862117,246.02207)" fill="#212121"/>
<use xlink:href="#font_2_e" transform="matrix(7.9701,0,0,-7.9701,72.213298,247.04224)" fill="#212121"/>
<use xlink:href="#font_2_7" transform="matrix(7.9701,0,0,-7.9701,77.04318,246.18944)" fill="#212121"/>
<use xlink:href="#font_2_14" transform="matrix(7.9701,0,0,-7.9701,83.49896,246.02207)" fill="#212121"/>
<use xlink:href="#font_2_13" transform="matrix(7.9701,0,0,-7.9701,85.443668,246.02207)" fill="#212121"/>
<use xlink:href="#font_2_22" transform="matrix(7.9701,0,0,-7.9701,86.981899,246.03003)" fill="#212121"/>
<use xlink:href="#font_2_10" transform="matrix(7.9701,0,0,-7.9701,91.046649,246.10176)" fill="#212121"/>
<use xlink:href="#font_2_13" transform="matrix(7.9701,0,0,-7.9701,95.127338,246.02207)" fill="#212121"/>
<use xlink:href="#font_2_1d" transform="matrix(7.9701,0,0,-7.9701,97.2155,246.02207)" fill="#212121"/>
<use xlink:href="#font_2_c" transform="matrix(7.9701,0,0,-7.9701,99.79781,246.10176)" fill="#212121"/>
<use xlink:href="#font_2_e" transform="matrix(7.9701,0,0,-7.9701,104.31686,247.04224)" fill="#212121"/>
<use xlink:href="#font_2_8" transform="matrix(7.9701,0,0,-7.9701,109.45757,246.02207)" fill="#212121"/>
<use xlink:href="#font_2_1c" transform="matrix(7.9701,0,0,-7.9701,114.19182,246.02207)" fill="#212121"/>
<use xlink:href="#font_2_e" transform="matrix(7.9701,0,0,-7.9701,116.543,247.04224)" fill="#212121"/>
<use xlink:href="#font_2_c" transform="matrix(7.9701,0,0,-7.9701,121.26131,246.10176)" fill="#212121"/>
<use xlink:href="#font_2_16" transform="matrix(7.9701,0,0,-7.9701,125.62892,246.02207)" fill="#212121"/>
<use xlink:href="#font_2_f" transform="matrix(7.9701,0,0,-7.9701,129.62992,246.10176)" fill="#212121"/>
<use xlink:href="#font_2_8" transform="matrix(7.9701,0,0,-7.9701,137.32105,246.02207)" fill="#212121"/>
<use xlink:href="#font_2_13" transform="matrix(7.9701,0,0,-7.9701,142.54944,246.02207)" fill="#212121"/>
<use xlink:href="#font_2_16" transform="matrix(7.9701,0,0,-7.9701,144.62963,246.02207)" fill="#212121"/>
<use xlink:href="#font_2_12" transform="matrix(7.9701,0,0,-7.9701,149.0052,246.02207)" fill="#212121"/>
<use xlink:href="#font_2_17" transform="matrix(7.9701,0,0,-7.9701,152.95838,246.10176)" fill="#212121"/>
<use xlink:href="#font_2_e" transform="matrix(7.9701,0,0,-7.9701,157.76435,247.04224)" fill="#212121"/>
<use xlink:href="#font_2_5" transform="matrix(7.9701,0,0,-7.9701,162.89708,246.02207)" fill="#212121"/>
<use xlink:href="#font_2_1c" transform="matrix(7.9701,0,0,-7.9701,167.78276,246.02207)" fill="#212121"/>
<use xlink:href="#font_2_1a" transform="matrix(7.9701,0,0,-7.9701,172.81986,248.01459)" fill="#212121"/>
<use xlink:href="#font_2_20" transform="matrix(7.9701,0,0,-7.9701,175.79271,246.02207)" fill="#212121"/>
<use xlink:href="#font_2_25" transform="matrix(7.9701,0,0,-7.9701,180.00092,246.1974)" fill="#212121"/>
<use xlink:href="#font_2_20" transform="matrix(7.9701,0,0,-7.9701,184.25695,246.02207)" fill="#212121"/>
<use xlink:href="#font_2_18" transform="matrix(7.9701,0,0,-7.9701,188.8796,246.02207)" fill="#212121"/>
<use xlink:href="#font_2_1b" transform="matrix(7.9701,0,0,-7.9701,192.84072,248.01459)" fill="#212121"/>
<use xlink:href="#font_2_e" transform="matrix(7.9701,0,0,-7.9701,196.4751,247.04224)" fill="#212121"/>
<symbol id="font_4_1">
<path d="M 0 .001 L .058000007 .001 C .061000006 .001 .066 0 .07 0 C .082 0 .087000008 .008 .091000009 .016 L .11 .047000003 C .13100001 .082 .15300001 .116000007 .17400001 .15100001 L .19200002 .18200001 C .19700001 .19000001 .2 .19900002 .21300002 .19900002 L .49600003 .19900002 C .51 .19900002 .508 .18900001 .51 .18 L .5170001 .142 C .5220001 .112 .52700009 .083000008 .533 .053000004 C .536 .036000004 .541 .018000002 .54200008 .001 L .6470001 .001 C .645 .021000002 .64 .041 .63600006 .061000006 C .602 .259 .56500008 .45700003 .52700009 .65400007 L .521 .684 C .521 .69200006 .51600006 .69600006 .508 .69600006 C .50400009 .69600006 .498 .69500008 .49500004 .69500008 L .43400003 .69500008 C .41400004 .69500008 .407 .669 .39800004 .65500006 C .27800004 .455 .15400002 .25800003 .034 .058000003 C .023000002 .040000004 .008000001 .020000002 0 .001 M .49600003 .25800003 L .238 .25800003 C .30100004 .351 .358 .45700003 .411 .55300006 C .423 .574 .43500004 .595 .44300003 .61800006 C .44900004 .513 .467 .40600003 .488 .303 C .49000005 .28800003 .492 .273 .49600003 .25800003 Z "/>
</symbol>
<symbol id="font_4_d">
<path d="M .16100002 .37900005 L .176 .45100004 L .106000009 .45100004 C .089 .45100004 .091000009 .42600004 .088 .41500003 C .060000004 .27600003 .028000005 .139 0 0 L .076000008 0 C .09300001 0 .09 .017 .09300001 .028 C .104 .089 .118 .15 .132 .21000001 C .149 .286 .178 .38800005 .277 .38800005 C .316 .38800005 .36 .37400005 .36 .32200004 C .36 .30500005 .35500003 .28800003 .35200004 .272 L .328 .161 C .316 .107 .305 .054000006 .294 0 L .372 0 C .39100004 0 .42400003 .20500002 .425 .208 C .435 .25700004 .45100004 .30300004 .45100004 .35400004 C .45100004 .40900005 .421 .45400004 .33200003 .45400004 C .268 .45400004 .206 .42400003 .16100002 .37900005 Z "/>
</symbol>
<symbol id="font_4_10">
<path d="M .076 .45400004 C .071 .41700004 .06000001 .37800003 .05200001 .34100003 L .013000004 .15500002 C .0069999995 .128 0 .102000009 0 .07400001 C 0 .020000002 .03800001 0 .087000008 0 C .16 0 .22600001 .019000002 .28800003 .055000005 L .279 .010000001 L .354 .010000001 L .36200003 .012 L .37 .041 L .45700003 .45400004 L .37 .45400004 C .356 .35900004 .328 .26400004 .31 .16900002 C .29500003 .095000009 .23000002 .059 .162 .059 L .153 .059 C .13 .059 .08900001 .061 .08900001 .09700001 C .08900001 .105000007 .091 .113000009 .092 .12000001 L .107 .186 C .124000009 .26400004 .14200002 .34300003 .15599999 .42100004 C .15900001 .432 .162 .44300003 .16299999 .45400004 L .076 .45400004 Z "/>
</symbol>
<symbol id="font_4_5">
<path d="M .09400001 .35200004 C .15400002 .38500003 .20000002 .40500004 .26900003 .40500004 C .31 .40500004 .337 .36800004 .337 .33100004 C .337 .30600003 .32700003 .28300003 .32500003 .257 C .19800002 .257 0 .22800002 0 .10000001 C 0 .048 .032000007 0 .097 0 C .15900001 0 .229 .014 .28300003 .048 L .275 .010000001 L .35000003 .010000001 C .363 .010000001 .363 .028 .365 .040000004 C .37100003 .06600001 .37700004 .09200001 .38200004 .11800001 L .409 .24700001 C .41500003 .27400003 .423 .30100004 .425 .32900004 L .425 .33400003 C .425 .372 .411 .409 .38000003 .43600003 C .351 .46100004 .314 .469 .277 .469 C .22300002 .469 .17000002 .45700003 .12100001 .43400003 C .095 .42400003 .096 .38300003 .09400001 .35200004 M .312 .201 C .305 .12200001 .26900003 .06600001 .16600001 .06600001 C .13900002 .06600001 .082 .075 .082 .11900001 C .082 .17300001 .17000002 .186 .21200001 .19300002 C .245 .19800002 .279 .19900002 .312 .201 Z "/>
</symbol>
<symbol id="font_4_c">
<path d="M .15100001 .71300008 L 0 .001 L .062000008 .001 C .063999999 .001 .069000009 0 .073 0 C .091000009 0 .091000009 .037 .096 .056 C .135 .254 .17999999 .45200003 .22200002 .65000006 C .226 .671 .233 .69200006 .235 .71300008 L .15100001 .71300008 Z "/>
</symbol>
<symbol id="font_4_4">
<path d="M .147 .69400009 L 0 0 L .089 0 C .106000009 0 .12400001 .126 .13800001 .18900001 L .159 .28500004 C .161 .29400004 .161 .31300003 .172 .31400005 L .32100005 .31400005 C .337 .31400005 .347 .26800005 .357 .246 C .388 .171 .41800005 .096 .44900007 .021000002 C .453 .010000001 .45500005 0 .46800006 0 L .559 0 L .41900004 .32500003 C .521 .34800003 .63900008 .42500005 .63900008 .536 C .63900008 .642 .521 .688 .42300005 .69400009 L .147 .69400009 M .179 .38000003 C .19400002 .45800004 .21000003 .53700008 .22900002 .614 C .23100002 .624 .228 .63500007 .24500002 .63500007 L .31700004 .63500007 C .33500005 .63500007 .35400004 .63600006 .37300004 .63600006 C .44600005 .63600006 .54800006 .61600008 .54800006 .52800008 C .54800006 .42000006 .411 .38000003 .32700003 .38000003 L .179 .38000003 Z "/>
</symbol>
<symbol id="font_4_8">
<path d="M .375 .11800001 C .32000003 .09300001 .271 .06600001 .20700002 .06600001 C .146 .06600001 .078 .09900001 .078 .19200002 C .078 .20400001 .079 .21600002 .080000009 .22900002 L .409 .22900002 C .41300003 .257 .419 .282 .419 .31100003 C .419 .418 .354 .469 .27 .469 C .125 .469 0 .32500003 0 .186 C 0 .09300001 .06000001 0 .18900001 0 C .245 0 .30200003 .016 .347 .038000004 C .375 .047000003 .37100003 .08800001 .375 .11800001 M .1 .289 C .132 .344 .18200001 .40300004 .257 .40300004 C .31800003 .40300004 .36 .36100004 .36 .289 L .1 .289 Z "/>
</symbol>
<symbol id="font_4_11">
<path d="M 0 .44400005 L .08800001 0 L .17200002 0 L .18200001 .0019999999 L .45800004 .44400005 L .37900005 .44400005 L .201 .154 L .16500002 .091000009 L .14900002 .057000005 C .14900002 .105000007 .13800001 .154 .13 .202 C .116000007 .28300003 .1 .36300005 .084 .44400005 L 0 .44400005 Z "/>
</symbol>
<symbol id="font_4_b">
<path d="M .094 .44400005 L 0 0 L .075 0 L .083000008 .0019999999 L .091000009 .031000002 L .17800002 .44400005 L .094 .44400005 M .11500001 .58500006 L .20600002 .58500006 L .21500002 .587 L .219 .595 L .23800002 .68600007 L .147 .68600007 L .13800001 .6840001 L .131 .65800008 L .11500001 .58500006 Z "/>
</symbol>
<symbol id="font_4_12">
<path d="M 0 .44500003 L .05200001 .001 L .13500002 .001 L .28800003 .28800003 L .33200003 .388 C .33100004 .37600003 .33100004 .36400003 .33100004 .35200004 C .33100004 .264 .344 .17500001 .35300002 .08800001 C .35600005 .059000005 .36200003 .030000002 .36300005 .001 L .43000005 .001 C .43300007 .001 .43800006 0 .44300006 0 C .46300004 0 .469 .027 .47700004 .040000004 L .525 .13000001 C .574 .223 .624 .316 .676 .40800003 C .682 .42000003 .69 .432 .695 .44500003 L .61800006 .44300003 L .46300004 .155 L .41700004 .057000005 C .418 .063 .418 .069000009 .418 .075 C .418 .16600001 .40300004 .261 .39300005 .35300002 C .391 .38900004 .391 .44500003 .37100003 .44500003 L .31700004 .44500003 C .30500005 .44500003 .30300004 .44000004 .298 .43 L .24700001 .33600004 C .20600003 .259 .16600001 .18200001 .12900001 .104 C .123 .089 .116000007 .07300001 .11200001 .057000005 L .11100001 .057000005 L .11300001 .09900001 L .109000008 .18100001 L .08200001 .44500003 L 0 .44500003 Z "/>
</symbol>
<symbol id="font_4_e">
<path d="M .275 .47 C .25300003 .467 .231 .46400003 .21000001 .45700003 C .095000009 .419 0 .306 0 .18200001 C 0 .07 .091 0 .19000003 0 C .33600004 0 .48000006 .12900001 .48000006 .278 C .48000006 .373 .41700004 .47100003 .291 .47100003 C .286 .47100003 .28000004 .47100003 .275 .47 M .39400003 .272 C .38400004 .17800002 .32000003 .07 .20700002 .07 C .14200002 .07 .08800001 .113000009 .08800001 .19400002 C .08800001 .297 .164 .404 .277 .404 C .33400003 .404 .395 .37100003 .395 .28800003 C .395 .283 .395 .277 .39400003 .272 Z "/>
</symbol>
<symbol id="font_4_9">
<path d="M .017000005 .44400005 L .0040000008 .38100005 L .081 .38100005 L 0 0 L .075 0 L .083000008 .0019999999 L .165 .37800003 L .17400001 .38100005 L .278 .38100005 L .28400005 .39800004 L .29300005 .44400005 L .175 .44400005 C .179 .45500005 .18000002 .46700005 .18300002 .47800005 C .19700001 .54300007 .19500001 .656 .315 .656 C .34500004 .656 .36900003 .64900007 .399 .6380001 C .402 .656 .40600003 .67300006 .41000004 .69100007 C .411 .69500008 .413 .70100006 .413 .70600005 C .413 .7210001 .34900005 .72200009 .33500005 .72200009 L .33200003 .72200009 C .22600003 .72200009 .13700001 .642 .11400001 .53800007 C .11 .517 .105000007 .49700005 .10100001 .47600005 L .097 .45700006 C .09400001 .44900004 .095 .44400005 .08400001 .44400005 L .017000005 .44400005 Z "/>
</symbol>
<symbol id="font_4_2">
<path d="M 0 0 L .091000009 0 L .10000001 .0019999999 L .167 .31300003 L .48800005 .31300003 L .50100007 .37900005 L .18200001 .37900005 L .23400003 .619 L .24200002 .62100008 L .59800007 .62100008 L .61300006 .69100007 L .15800002 .69100007 L .148 .68900009 L .038000004 .178 L 0 0 Z "/>
</symbol>
<symbol id="font_4_7">
<path d="M .45400004 .72200009 L .388 .411 C .33900003 .44500003 .303 .46400003 .24200002 .46400003 C .104 .46400003 .0029999987 .307 0 .172 L 0 .16900002 C 0 .08900001 .042999999 0 .143 0 C .20700002 0 .25800003 .028 .31100003 .062000004 L .3 .010000001 L .379 .010000001 L .386 .012 L .39900003 .065000008 L .538 .72200009 L .45400004 .72200009 M .37 .342 C .36900003 .33100004 .36600004 .319 .363 .30800004 L .35000003 .24700001 C .34 .19600001 .337 .13700001 .29700003 .105000007 C .26900003 .08100001 .234 .06600001 .19800002 .06600001 C .133 .06600001 .089 .11200001 .089 .18500002 L .089 .19800002 C .096 .29700003 .16800002 .39800004 .282 .39800004 C .31500004 .39800004 .33900003 .38700003 .365 .35700003 C .36800004 .35300002 .37 .349 .37 .344 L .37 .342 Z "/>
</symbol>
<symbol id="font_4_3">
<path d="M .147 .69500008 L 0 .001 L .062000008 .001 C .06400001 .001 .069000009 0 .073 0 C .091000009 0 .091000009 .032 .09400001 .049000004 C .133 .223 .16600003 .397 .205 .57000008 C .20800002 .586 .21300002 .60200008 .21500002 .61800006 L .24100001 .44300003 L .32 .032 L .325 .023000002 L .39999999 .023000002 L .663 .44700004 L .763 .61800006 L .632 .001 L .694 .001 C .69600006 .001 .70100006 0 .70500007 0 C .72300007 0 .72300007 .036000004 .72800007 .055000005 C .767 .24800001 .81200006 .44000004 .85 .633 C .855 .65300008 .861 .674 .86300006 .69500008 L .75200006 .69500008 L .741 .693 L .407 .15200001 L .37800003 .09900001 L .36900003 .16900002 L .27000005 .69500008 L .147 .69500008 Z "/>
</symbol>
<symbol id="font_4_6">
<path d="M .381 .12000001 C .363 .11200001 .34600003 .102000009 .328 .094000007 C .289 .07800001 .24700001 .069000009 .204 .069000009 C .125 .069000009 .08800001 .127 .08800001 .19000001 C .08800001 .29200004 .164 .40000005 .275 .40000005 C .319 .40000005 .354 .39400003 .39600004 .36900003 C .404 .36400003 .411 .358 .419 .35400004 C .425 .37500004 .444 .404 .444 .42200003 L .444 .425 C .44200004 .432 .414 .44400005 .398 .45200003 C .36400003 .46600003 .328 .469 .292 .469 C .143 .469 0 .33800004 0 .18500002 C 0 .08800001 .06700001 0 .188 0 C .23700002 0 .287 .010000001 .33200003 .028 L .359 .040000004 C .38000003 .051000004 .379 .094000007 .381 .12000001 Z "/>
</symbol>
<symbol id="font_4_a">
<path d="M .15100001 .7120001 L 0 0 L .076000008 0 C .09300001 0 .09 .017 .09300001 .028 C .104 .089 .118 .15 .132 .21000001 C .149 .286 .178 .38800005 .277 .38800005 C .316 .38800005 .36 .37400005 .36 .32200004 C .36 .30500005 .35500003 .28800003 .35200004 .272 L .328 .161 C .316 .107 .305 .054000006 .294 0 L .372 0 C .388 0 .40300004 .104 .414 .155 L .426 .209 C .43600006 .25700004 .45100004 .30400003 .45100004 .35400004 C .45100004 .40800003 .42400003 .45400004 .33 .45400004 L .317 .45400004 C .257 .44600005 .208 .42300005 .16600001 .38400004 L .23500002 .7120001 L .15100001 .7120001 Z "/>
</symbol>
<symbol id="font_4_f">
<path d="M .029000003 .11900001 L 0 .044 C .052000006 .016 .10800001 0 .16800002 0 C .271 0 .377 .052 .377 .16700001 C .377 .22100002 .335 .259 .286 .27400003 C .269 .279 .251 .282 .23300003 .286 C .20300001 .29200004 .14800002 .29700003 .14800002 .33800004 C .14800002 .38900004 .20700002 .40500004 .246 .40500004 C .299 .40500004 .341 .393 .39200003 .36600004 L .42000003 .43800003 C .373 .45800004 .328 .469 .276 .469 C .209 .469 .14000002 .45600004 .09400001 .395 C .07800001 .372 .065 .342 .065 .31300003 C .065 .23400001 .14400001 .209 .20300001 .19900002 C .23600002 .19300002 .29500003 .187 .29500003 .141 C .29500003 .08600001 .228 .068 .18400002 .068 C .13700001 .068 .088 .08100001 .048000006 .10700001 C .042 .11100001 .036000004 .11600001 .029000003 .11900001 Z "/>
</symbol>
<use xlink:href="#font_4_1" transform="matrix(7.9701,0,0,-7.9701,201.07006,246.03003)" fill="#212121"/>
<use xlink:href="#font_4_d" transform="matrix(7.9701,0,0,-7.9701,207.1353,246.02207)" fill="#212121"/>
<use xlink:href="#font_4_d" transform="matrix(7.9701,0,0,-7.9701,211.51088,246.02207)" fill="#212121"/>
<use xlink:href="#font_4_10" transform="matrix(7.9701,0,0,-7.9701,216.02993,246.10176)" fill="#212121"/>
<use xlink:href="#font_4_5" transform="matrix(7.9701,0,0,-7.9701,220.13452,246.10176)" fill="#212121"/>
<use xlink:href="#font_4_c" transform="matrix(7.9701,0,0,-7.9701,224.33478,246.03003)" fill="#212121"/>
<use xlink:href="#font_4_4" transform="matrix(7.9701,0,0,-7.9701,229.2842,246.02207)" fill="#212121"/>
<use xlink:href="#font_4_8" transform="matrix(7.9701,0,0,-7.9701,234.60027,246.10176)" fill="#212121"/>
<use xlink:href="#font_4_11" transform="matrix(7.9701,0,0,-7.9701,238.60923,246.02207)" fill="#212121"/>
<use xlink:href="#font_4_b" transform="matrix(7.9701,0,0,-7.9701,242.31533,246.02207)" fill="#212121"/>
<use xlink:href="#font_4_8" transform="matrix(7.9701,0,0,-7.9701,244.28394,246.10176)" fill="#212121"/>
<use xlink:href="#font_4_12" transform="matrix(7.9701,0,0,-7.9701,248.2929,246.03003)" fill="#212121"/>
<use xlink:href="#font_4_e" transform="matrix(7.9701,0,0,-7.9701,256.6057,246.10973)" fill="#212121"/>
<use xlink:href="#font_4_9" transform="matrix(7.9701,0,0,-7.9701,261.10084,246.02207)" fill="#212121"/>
<use xlink:href="#font_4_2" transform="matrix(7.9701,0,0,-7.9701,266.44877,246.02207)" fill="#212121"/>
<use xlink:href="#font_4_c" transform="matrix(7.9701,0,0,-7.9701,271.19099,246.03003)" fill="#212121"/>
<use xlink:href="#font_4_10" transform="matrix(7.9701,0,0,-7.9701,273.3429,246.10176)" fill="#212121"/>
<use xlink:href="#font_4_b" transform="matrix(7.9701,0,0,-7.9701,277.583,246.02207)" fill="#212121"/>
<use xlink:href="#font_4_7" transform="matrix(7.9701,0,0,-7.9701,279.53565,246.10176)" fill="#212121"/>
<use xlink:href="#font_4_3" transform="matrix(7.9701,0,0,-7.9701,286.9638,246.03003)" fill="#212121"/>
<use xlink:href="#font_4_8" transform="matrix(7.9701,0,0,-7.9701,294.13688,246.10176)" fill="#212121"/>
<use xlink:href="#font_4_6" transform="matrix(7.9701,0,0,-7.9701,297.89878,246.10176)" fill="#212121"/>
<use xlink:href="#font_4_a" transform="matrix(7.9701,0,0,-7.9701,301.70054,246.02207)" fill="#212121"/>
<use xlink:href="#font_4_5" transform="matrix(7.9701,0,0,-7.9701,305.9486,246.10176)" fill="#212121"/>
<use xlink:href="#font_4_d" transform="matrix(7.9701,0,0,-7.9701,310.1409,246.02207)" fill="#212121"/>
<use xlink:href="#font_4_b" transform="matrix(7.9701,0,0,-7.9701,314.5244,246.02207)" fill="#212121"/>
<use xlink:href="#font_4_6" transform="matrix(7.9701,0,0,-7.9701,316.49308,246.10176)" fill="#212121"/>
<use xlink:href="#font_4_f" transform="matrix(7.9701,0,0,-7.9701,319.92024,246.10176)" fill="#212121"/>
<use xlink:href="#font_2_1c" transform="matrix(7.9701,0,0,-7.9701,323.6779,246.02207)" fill="#212121"/>
<symbol id="font_3_5">
<path d="M .015000004 .59300008 L .07100001 .52400007 C .10900001 .577 .16900002 .6100001 .23500003 .6100001 C .285 .6100001 .33900003 .58500006 .33900003 .53000006 C .33900003 .42900003 .22400002 .41 .14500001 .41 L .14500001 .329 L .244 .329 C .314 .323 .359 .267 .359 .20400001 C .359 .135 .308 .081 .23300003 .081 C .17300001 .081 .11400001 .09900001 .062000004 .12900001 C .045000007 .13900002 .031 .15200001 .015000004 .16300002 C .010000002 .14 0 .10900001 0 .089 L 0 .08500001 C .0050000029 .071 .062000004 .041 .09400001 .028 C .13800001 .010000001 .18600002 0 .23400001 0 C .349 0 .487 .073 .487 .20300001 C .487 .281 .41500003 .347 .34 .367 C .403 .401 .45499999 .454 .45499999 .52900007 C .45499999 .632 .335 .68700006 .237 .68700006 C .15200001 .68700006 .075 .65300008 .015000004 .59300008 Z "/>
</symbol>
<use xlink:href="#font_3_5" transform="matrix(5.9776,0,0,-5.9776,440.77687,249.84664)" fill="#212121"/>
<path transform="matrix(1,0,0,-1,-.000045776369,255.11801)" d="M 0 0 L 0 2.98883 L 453.54914 2.98883 L 453.54914 0 Z M 453.54914 2.98883 " fill="#ffffff"/>
<path transform="matrix(1,0,0,-1,-.000045776369,255.11801)" d="M 0 0 L 0 2.98883 L 226.77399 2.98883 L 226.77399 0 Z M 226.77399 2.98883 " fill="#42a5f5"/>
</g>
</svg>
