<?xml version="1.0" encoding="UTF-8" standalone="no"?>
<!DOCTYPE svg PUBLIC "-//W3C//DTD SVG 1.1//EN" "http://www.w3.org/Graphics/SVG/1.1/DTD/svg11.dtd">
<svg xmlns="http://www.w3.org/2000/svg" xmlns:xlink="http://www.w3.org/1999/xlink" version="1.1" width="453.543pt" height="255.118pt" viewBox="0 0 453.543 255.118">
<g enable-background="new">
<path transform="matrix(1,0,0,-1,0,255.118)" d="M 0 0 L 453.543 0 L 453.543 255.118 L 0 255.118 Z " fill="#ffffff"/>
<path transform="matrix(1,0,0,-1,0,29.888)" d="M 0 0 L 453.543 0 L 453.543 24.907 L 0 24.907 Z " fill="#ffffff"/>
<path transform="matrix(1,0,0,-1,0,29.888)" d="M 0 0 L 0 29.8883 L 453.54914 29.8883 L 453.54914 0 Z M 453.54914 29.8883 " fill="#ffffff"/>
<path transform="matrix(1,0,0,-1,0,29.888)" d="M 4.98138 0 L 4.98138 24.90692 L 448.56776 24.90692 L 448.56776 0 Z M 448.56776 24.90692 " fill="#bbdefb"/>
<symbol id="font_0_4">
<path d="M .642 .082 L .642 .393 L .368 .393 L .368 .253 L .495 .253 L .495 .164 C .48300005 .157 .468 .15200001 .45100004 .15 C .43400003 .14600002 .41500003 .14500001 .39400003 .14500001 C .358 .14500001 .32500003 .15 .296 .16000001 C .266 .17 .24000003 .185 .21800001 .20400001 C .19700001 .223 .18 .24700001 .16800002 .274 C .15600002 .302 .15 .333 .15 .368 C .15 .407 .15500002 .442 .16600001 .472 C .17700002 .50100007 .19200002 .526 .214 .54600009 C .23400001 .56600007 .26 .58100005 .291 .591 C .322 .6010001 .357 .60600009 .397 .60600009 C .41300003 .60600009 .43100003 .60400006 .45200003 .6 C .473 .595 .49300004 .59000006 .513 .58300009 C .533 .57600006 .549 .57000008 .561 .563 L .60800006 .6980001 C .58100005 .71300008 .547 .7260001 .508 .73600009 C .46900005 .74700006 .425 .75200006 .37800003 .75200006 C .328 .75200006 .28 .7440001 .23400001 .72800007 C .18900001 .7120001 .14800002 .688 .11400001 .65400007 C .07800001 .62200006 .051000004 .58000007 .030000005 .53000006 C .010000002 .481 0 .42200003 0 .355 C 0 .304 .009000003 .256 .027000007 .21300002 C .045000007 .17 .07100001 .132 .105000007 .10000001 C .13900002 .069000009 .18 .044000005 .22800003 .026 C .276 .009000001 .33 0 .39000003 0 C .41300003 0 .437 .0020000004 .462 .008 C .487 .012 .512 .019000002 .536 .027000003 C .561 .035 .582 .044000005 .601 .054000006 C .62 .063 .633 .07300001 .642 .082 Z "/>
</symbol>
<symbol id="font_0_1b">
<path d="M 0 .236 C 0 .187 .011 .144 .031999999 .109000008 C .053000004 .074 .083000008 .047 .120000008 .028 C .158 .009 .201 0 .249 0 C .3 0 .34400005 .01 .38100005 .031000002 C .41800005 .052 .44600005 .080000009 .46600003 .116000007 C .485 .15100001 .49500007 .191 .49500007 .236 C .49500007 .28100003 .485 .321 .46600003 .356 C .44600005 .391 .41800005 .419 .38100005 .44000004 C .34400005 .46 .301 .47000004 .251 .47000004 C .202 .47000004 .158 .46 .120000008 .44000004 C .082 .419 .052 .391 .031999999 .356 C .009999998 .321 0 .28100003 0 .236 M .141 .235 C .141 .25800003 .14600002 .279 .155 .29700003 C .164 .315 .177 .329 .193 .34 C .209 .351 .22700002 .356 .24700003 .356 C .269 .356 .288 .351 .30400003 .34 C .32 .329 .33200003 .315 .34100003 .29700003 C .35000003 .279 .35400004 .25800003 .35400004 .235 C .35400004 .212 .35000003 .192 .34100003 .174 C .33200003 .155 .32 .141 .30400003 .13000001 C .288 .11900001 .269 .11400001 .24700003 .11400001 C .22700002 .11400001 .209 .11900001 .193 .13000001 C .177 .141 .164 .155 .155 .174 C .14600002 .192 .141 .212 .141 .235 Z "/>
</symbol>
<symbol id="font_0_22">
<path d="M .26200003 0 L .26600004 0 L .51400008 .446 L .35800005 .446 L .229 .14700002 L .31500004 .14400001 L .16600001 .446 L 0 .446 L .26200003 0 Z "/>
</symbol>
<symbol id="font_0_12">
<path d="M .249 0 C .273 0 .29800005 .0039999999 .32600004 .012 C .352 .02 .37800003 .031000002 .40100003 .044 L .339 .148 C .325 .139 .311 .132 .296 .127 C .282 .12200001 .26700003 .11900001 .25200004 .11900001 C .23100002 .11900001 .21100001 .124000009 .194 .133 C .177 .142 .163 .156 .15300001 .174 C .143 .193 .13800001 .216 .13800001 .243 C .13800001 .26700003 .142 .28800003 .15 .306 C .15900001 .323 .171 .337 .186 .34600003 C .202 .356 .22000002 .361 .24100001 .361 C .268 .361 .28900004 .354 .302 .342 C .31599999 .328 .32600004 .31300003 .33100004 .296 L .36 .30900003 L .11400001 .22600001 L .14500001 .15 L .485 .25800003 C .47300006 .32700003 .44700004 .379 .40600003 .416 C .366 .45200003 .315 .47000004 .25200004 .47000004 C .20500002 .47000004 .163 .46 .125 .43800003 C .087 .418 .057000005 .389 .034 .354 C .011 .319 0 .279 0 .235 C 0 .189 .009999998 .148 .029 .113000009 C .048 .078 .076000008 .050000006 .11400001 .030000002 C .15 .01 .19600001 0 .249 0 Z "/>
</symbol>
<symbol id="font_0_1e">
<path d="M .12600002 .437 L 0 .437 L 0 0 L .139 0 L .139 .171 C .139 .19600001 .14500001 .22100002 .15799999 .245 C .171 .26900003 .18900001 .28800003 .21200001 .303 C .23500002 .31800003 .263 .323 .29600004 .319 L .30300004 .45900003 C .29200004 .45900003 .275 .45400004 .254 .44400005 C .23200003 .43400003 .21000001 .42000003 .18800003 .402 C .16600001 .38300003 .14900002 .36100004 .136 .335 L .139 .317 L .12600002 .437 Z "/>
</symbol>
<symbol id="font_0_1a">
<path d="M .127 .437 L 0 .437 L 0 0 L .14000002 0 L .14000002 .178 C .14000002 .209 .144 .23700002 .153 .261 C .162 .28500004 .174 .30400003 .19000003 .31800003 C .20600003 .33200003 .22500003 .33900003 .24600002 .33900003 C .26900003 .33900003 .28500004 .333 .29400004 .32200004 C .30400003 .31 .30900003 .294 .31000004 .275 L .31000004 0 L .45000003 0 L .45000003 .32700003 C .44900004 .36600004 .43500004 .397 .40800003 .42200003 C .38000003 .446 .34500004 .45800004 .30400003 .45800004 C .263 .45800004 .22900003 .45000003 .201 .432 C .17300001 .416 .151 .393 .136 .36600004 L .13800001 .35900004 L .127 .437 Z "/>
</symbol>
<symbol id="font_0_16">
<path d="M .0029999987 .437 L .0029999987 0 L .143 0 L .143 .437 L .0029999987 .437 M 0 .592 C 0 .57100006 .008000001 .554 .024999999 .54200008 C .041 .528 .058 .522 .07700001 .522 C .096 .522 .113000009 .528 .12900001 .54200008 C .14400001 .554 .15200001 .57100006 .15200001 .592 C .15200001 .61300006 .14400001 .63000008 .12900001 .643 C .113000009 .656 .096 .66300007 .07700001 .66300007 C .058 .66300007 .041 .656 .024999999 .643 C .008000001 .63000008 0 .61300006 0 .592 Z "/>
</symbol>
<symbol id="font_0_14">
<path d="M .26 0 C .30800004 0 .352 .010000005 .39200003 .028000012 C .431 .048000009 .46300007 .074 .48700006 .106000009 C .51100006 .14000002 .52300009 .17700002 .52300009 .22000002 L .52300009 .657 L .394 .657 L .379 .609 L .384 .62200006 C .37 .638 .34900005 .652 .32200004 .66200008 C .29400004 .674 .26100005 .679 .223 .679 C .185 .679 .149 .669 .11500001 .64800009 C .081 .62700006 .053000004 .59900006 .031999999 .564 C .011 .52800008 0 .48700006 0 .44100005 C 0 .39600004 .009999998 .356 .030000002 .32200004 C .050000006 .286 .077 .259 .11 .23800002 C .14400001 .21800001 .18100001 .20800002 .22000002 .20800002 C .265 .20800002 .302 .21600002 .33000005 .23400001 C .35800005 .25 .37700004 .27 .388 .293 L .38300003 .31800003 L .38300003 .22200002 C .38300003 .20000002 .37700004 .18200001 .366 .16700001 C .35400004 .15200001 .338 .141 .32 .134 C .3 .12600002 .28000004 .12200001 .25800003 .12200001 C .22500001 .12200001 .19800002 .128 .178 .14200002 C .157 .15400002 .139 .16800002 .124 .18200001 L .042000005 .08600001 C .057000005 .074 .07300001 .061000006 .09200001 .048000009 C .111 .03500001 .134 .023000002 .16000001 .013999999 C .18800001 .00500001 .221 0 .26 0 M .141 .44500003 C .141 .46800003 .14600002 .48900003 .157 .507 C .16800002 .52500006 .18200001 .53900006 .2 .55 C .219 .56 .23900001 .56500008 .26200003 .56500008 C .28100003 .56500008 .29900003 .56200006 .314 .55600008 C .33000005 .55100008 .34400005 .54300007 .356 .532 C .36800004 .522 .37700004 .51000007 .38300003 .495 L .38300003 .388 C .375 .37300004 .365 .361 .35400004 .352 C .342 .342 .328 .33400003 .314 .33 C .29800005 .324 .28100003 .32200004 .26200003 .32200004 C .23900001 .32200004 .219 .32700003 .2 .33800004 C .18200001 .34900005 .16800002 .36300005 .157 .38200004 C .14600002 .40100003 .141 .42200003 .141 .44500003 Z "/>
</symbol>
<symbol id="font_0_2">
<path d="M 0 .73600009 L 0 0 L .516 0 L .516 .14 L .14500001 .14 L .14500001 .29900003 L .46100006 .29900003 L .46100006 .439 L .14500001 .439 L .14500001 .596 L .502 .596 L .502 .73600009 L 0 .73600009 Z "/>
</symbol>
<symbol id="font_0_1d">
<path d="M .208 .19800002 C .24500002 .19800002 .278 .20300001 .30800004 .21300002 C .33600004 .223 .36 .23500002 .37700004 .25 L .375 .29500003 L .375 0 L .51400008 0 L .51400008 .65700009 L .374 .65700009 L .374 .572 L .385 .602 C .366 .62200006 .34500004 .638 .32 .65000006 C .29500003 .663 .264 .669 .22700002 .669 C .187 .669 .15 .65900006 .11600001 .64 C .081 .62100008 .053000004 .59300008 .031999999 .558 C .011 .522 0 .47900004 0 .42900003 C 0 .38 .009999998 .338 .027999998 .30400003 C .048 .26900003 .07300001 .243 .104 .22500001 C .136 .207 .171 .19800002 .208 .19800002 M .25800003 .30800004 C .237 .30800004 .21800001 .31300003 .2 .324 C .18300002 .33400003 .16900002 .34800003 .158 .366 C .147 .384 .142 .40500004 .142 .42800004 C .142 .45100004 .147 .47200004 .158 .49100004 C .16900002 .51 .18300002 .52400007 .2 .535 C .21800001 .546 .237 .551 .25800003 .551 C .277 .551 .29300005 .54800006 .30800004 .544 C .32200004 .538 .334 .531 .34600003 .522 C .356 .512 .366 .5 .374 .485 L .374 .37800003 C .36900003 .36400003 .36 .352 .35000003 .34100003 C .338 .33 .325 .32200004 .31 .316 C .29400004 .31100003 .277 .30800004 .25800003 .30800004 Z "/>
</symbol>
<symbol id="font_0_21">
<path d="M .141 0 C .167 0 .19000003 .0040000008 .21200001 .011000001 C .23200003 .019000002 .25100003 .030000002 .26600004 .044000005 C .28100003 .058000003 .29400004 .074 .30400003 .09200001 L .30200003 .10100001 L .31300003 .021000002 L .44000004 .021000002 L .44000004 .458 L .3 .458 L .3 .28 C .3 .24900002 .29600004 .222 .28800003 .19700001 C .279 .17300001 .268 .154 .252 .14 C .238 .126 .22000003 .119 .19900003 .119 C .178 .119 .164 .125 .155 .13700001 C .146 .148 .141 .164 .14000002 .183 L .14000002 .458 L 0 .458 L 0 .13100001 C .001000002 .09200001 .015000001 .061000006 .042000005 .037 C .069 .012000001 .102000009 0 .141 0 Z "/>
</symbol>
<symbol id="font_0_e">
<path d="M .21800001 0 C .244 0 .26600004 .0039999999 .286 .012 C .30400003 .019000002 .32 .028 .334 .038000004 C .34600003 .049000004 .356 .058000007 .36300005 .066 C .37 .07300001 .374 .07700001 .375 .07700001 L .36400003 .10700001 L .36400003 .012 L .50400009 .012 L .50400009 .449 L .374 .449 L .361 .38500003 L .36700005 .402 C .352 .419 .334 .435 .31200005 .45000003 C .28900004 .46400003 .25599999 .47100003 .21300002 .47100003 C .17600002 .47100003 .142 .46100004 .109 .442 C .076000008 .42200003 .050000006 .39400003 .030000002 .358 C .009999998 .322 0 .279 0 .23 C 0 .177 .009999998 .134 .029 .10000001 C .048 .066 .074 .041 .10800001 .024 C .14 .007999999 .177 0 .21800001 0 M .25800003 .11400001 C .237 .11400001 .21800001 .11900001 .2 .13000001 C .18300002 .141 .16900002 .155 .158 .174 C .147 .193 .142 .214 .142 .237 C .142 .26000003 .147 .28100003 .157 .299 C .16700001 .317 .18 .331 .19800002 .342 C .214 .352 .23300003 .35700003 .25300003 .35700003 C .27100004 .35700003 .287 .354 .302 .34800003 C .31700004 .34300003 .329 .335 .34000004 .324 C .351 .314 .35900004 .30200003 .36400003 .287 L .36400003 .18 C .357 .165 .348 .153 .338 .144 C .328 .134 .31599999 .126 .30300004 .12200001 C .29000003 .116000007 .27500005 .11400001 .25800003 .11400001 Z "/>
</symbol>
<symbol id="font_0_20">
<path d="M .068 .629 L .068 .439 L 0 .439 L 0 .33 L .068 .33 L .068 0 L .20800002 0 L .20800002 .33 L .314 .33 L .314 .439 L .20800002 .439 L .20800002 .629 L .068 .629 Z "/>
</symbol>
<use xlink:href="#font_0_4" transform="matrix(20.6625,0,0,-20.6625,17.085125,23.403307)" fill="#212121"/>
<use xlink:href="#font_0_1b" transform="matrix(20.6625,0,0,-20.6625,32.582,23.485957)" fill="#212121"/>
<use xlink:href="#font_0_22" transform="matrix(20.6625,0,0,-20.6625,43.491807,23.42397)" fill="#212121"/>
<use xlink:href="#font_0_12" transform="matrix(20.6625,0,0,-20.6625,54.794195,23.485957)" fill="#212121"/>
<use xlink:href="#font_0_1e" transform="matrix(20.6625,0,0,-20.6625,66.92308,23.238007)" fill="#212121"/>
<use xlink:href="#font_0_1a" transform="matrix(20.6625,0,0,-20.6625,75.39471,23.238007)" fill="#212121"/>
<use xlink:href="#font_0_16" transform="matrix(20.6625,0,0,-20.6625,87.60625,23.238007)" fill="#212121"/>
<use xlink:href="#font_0_1a" transform="matrix(20.6625,0,0,-20.6625,93.536388,23.238007)" fill="#212121"/>
<use xlink:href="#font_0_14" transform="matrix(20.6625,0,0,-20.6625,105.10738,27.783757)" fill="#212121"/>
<use xlink:href="#font_0_2" transform="matrix(20.6625,0,0,-20.6625,126.07982,23.238007)" fill="#212121"/>
<use xlink:href="#font_0_1d" transform="matrix(20.6625,0,0,-20.6625,138.66329,27.577132)" fill="#212121"/>
<use xlink:href="#font_0_21" transform="matrix(20.6625,0,0,-20.6625,152.25922,23.671919)" fill="#212121"/>
<use xlink:href="#font_0_e" transform="matrix(20.6625,0,0,-20.6625,163.62358,23.485957)" fill="#212121"/>
<use xlink:href="#font_0_20" transform="matrix(20.6625,0,0,-20.6625,176.455,23.238007)" fill="#212121"/>
<use xlink:href="#font_0_16" transform="matrix(20.6625,0,0,-20.6625,185.09192,23.238007)" fill="#212121"/>
<use xlink:href="#font_0_1b" transform="matrix(20.6625,0,0,-20.6625,190.31954,23.485957)" fill="#212121"/>
<use xlink:href="#font_0_1a" transform="matrix(20.6625,0,0,-20.6625,202.82036,23.238007)" fill="#212121"/>
<symbol id="font_1_2">
<path d="M .087 .605 L .559 .605 L .323 .08800001 L .087 .605 M 0 .65000006 C 0 .64800009 .0009999946 .646 .0019999967 .64400008 L .29200004 .008000001 C .29500003 .003000006 .3 0 .30600003 0 C .312 0 .317 .003000006 .32000003 .008000001 L .61 .64400008 C .611 .646 .61200007 .64800009 .61200007 .65000006 C .61200007 .65800008 .606 .665 .596 .665 L .015000001 .665 C .0059999974 .665 0 .65800008 0 .65000006 Z "/>
</symbol>
<symbol id="font_1_1">
<path d="M .054000006 .10800001 C .023000002 .10800001 0 .083000008 0 .05400002 C 0 .023000002 .024999999 0 .054000006 0 C .086 0 .108 .026000008 .108 .05400002 C .108 .085999999 .08300001 .10800001 .054000006 .10800001 Z "/>
</symbol>
<use xlink:href="#font_1_2" transform="matrix(10.9091,0,0,-10.9091,23.431729,126.55801)" fill="#212121"/>
<use xlink:href="#font_1_1" transform="matrix(10.9091,0,0,-10.9091,33.620828,123.525279)" fill="#212121"/>
<symbol id="font_2_4">
<path d="M .36200003 .073000017 C .36200003 .08099997 .35700003 .08700001 .349 .08899999 C .31800003 .09399998 .29200004 .116 .272 .14099998 C .26900003 .14499998 .264 .14700002 .26000003 .14700002 C .256 .14700002 .25300003 .14499998 .25 .143 C .24400002 .13699997 .243 .12799996 .248 .12099999 C .25800003 .10899997 .271 .09899998 .28300003 .088 L .015000001 .088 C .0069999995 .088 0 .08200002 0 .073000017 C 0 .065 .0069999995 .05799997 .015000001 .05799997 L .28300003 .05799997 C .271 .047999979 .25800003 .037999989 .248 .025999964 C .243 .018999994 .24400002 .009000003 .25 .004000008 C .25300003 .0009999871 .256 0 .26000003 0 C .264 0 .26900003 .0019999743 .272 .0059999825 C .29200004 .029999972 .31800003 .052999975 .349 .05799997 C .35700003 .060000004 .36200003 .065999988 .36200003 .073000017 Z "/>
</symbol>
<use xlink:href="#font_2_4" transform="matrix(10.9091,0,0,-10.9091,39.02573,120.013278)" fill="#212121"/>
<symbol id="font_3_1">
<path d="M .321 .067 C .33200003 .026 .367 0 .41 0 C .44500003 0 .468 .023000002 .484 .055000005 C .50100007 .091000009 .51400008 .15200001 .51400008 .15400002 C .51400008 .16400002 .50500008 .16400002 .50200006 .16400002 C .492 .16400002 .49100004 .16000001 .488 .14600002 C .474 .09 .455 .022000002 .41300003 .022000002 C .39200003 .022000002 .382 .035 .382 .068 C .382 .09 .394 .13700001 .402 .17200002 L .43 .28000004 C .433 .29500003 .44300003 .33300004 .447 .34800003 C .45200003 .37100003 .462 .40900005 .462 .41500003 C .462 .43300004 .448 .44200004 .433 .44200004 C .428 .44200004 .402 .441 .394 .40700004 C .375 .33400003 .331 .15900001 .319 .106000009 C .318 .102000009 .278 .022000002 .20500002 .022000002 C .15300001 .022000002 .143 .067 .143 .104 C .143 .16000001 .171 .23900002 .19700001 .30800004 C .209 .33800004 .21400002 .35200004 .21400002 .37100003 C .21400002 .41600005 .18200001 .45300005 .13200002 .45300005 C .037 .45300005 0 .30800004 0 .29900003 C 0 .28900004 .01 .28900004 .012 .28900004 C .022000002 .28900004 .023 .291 .028000003 .307 C .053000004 .39400003 .091000009 .43100003 .12900001 .43100003 C .13800001 .43100003 .15400002 .43000005 .15400002 .39800004 C .15400002 .374 .143 .34500004 .13700001 .33 C .10000001 .23100002 .079 .16900002 .079 .120000008 C .079 .025000003 .148 0 .202 0 C .268 0 .304 .045 .321 .067 Z "/>
</symbol>
<use xlink:href="#font_3_1" transform="matrix(10.9091,0,0,-10.9091,37.890367,125.838008)" fill="#212121"/>
<symbol id="font_4_3">
<path d="M .41000004 .22500003 L .023000002 .22500003 C .009999998 .22500003 0 .215 0 .20200002 C 0 .18900001 .009999998 .17900002 .023000002 .17900002 L .41000004 .17900002 C .42300005 .17900002 .43300004 .18900001 .43300004 .20200002 C .43300004 .215 .42300005 .22500003 .41000004 .22500003 M .41000004 .046000005 L .023000002 .046000005 C .009999998 .046000005 0 .036 0 .023000002 C 0 .010000005 .009999998 0 .023000002 0 L .41000004 0 C .42300005 0 .43300004 .010000005 .43300004 .023000002 C .43300004 .036 .42300005 .046000005 .41000004 .046000005 Z "/>
</symbol>
<use xlink:href="#font_4_3" transform="matrix(10.9091,0,0,-10.9091,47.12291,124.158008)" fill="#212121"/>
<symbol id="font_5_1">
<path d="M .421 .34200005 C .421 .42200003 .416 .50200006 .381 .57600006 C .335 .67200008 .25300003 .688 .211 .688 C .15100001 .688 .07800001 .66200008 .037000006 .56900009 C .0050000029 .5 0 .42200003 0 .34200005 C 0 .26700003 .0040000008 .177 .045000007 .101 C .088 .020000002 .161 0 .21000001 0 C .264 0 .34 .021000002 .384 .116000007 C .416 .185 .421 .263 .421 .34200005 M .21000001 .022000002 C .171 .022000002 .112 .047000003 .094 .143 C .083000008 .20300001 .083000008 .29500003 .083000008 .35400004 C .083000008 .41800005 .083000008 .48400004 .091000009 .53800007 C .11 .65700009 .185 .66600009 .21000001 .66600009 C .243 .66600009 .30900003 .64800009 .328 .549 C .338 .49300004 .338 .41700004 .338 .35400004 C .338 .279 .338 .21100001 .32700003 .147 C .312 .052 .255 .022000002 .21000001 .022000002 Z "/>
</symbol>
<use xlink:href="#font_5_1" transform="matrix(10.9091,0,0,-10.9091,55.574457,125.958)" fill="#212121"/>
<symbol id="font_6_2">
<path d="M 0 .15 L .30500005 .15 L .30500005 0 L .41100005 0 L .41100005 .15 L .52000007 .15 L .52000007 .231 L .41100005 .231 L .41100005 .651 L .30100004 .651 L .29000003 .64900007 L .263 .61300006 L .001000002 .231 L 0 .20400001 L 0 .15 M .108 .231 C .17700002 .33500005 .263 .44300006 .30400003 .558 C .30900003 .572 .31300003 .586 .31300003 .6010001 L .314 .231 L .108 .231 Z "/>
</symbol>
<use xlink:href="#font_6_2" transform="matrix(5.9776,0,0,-5.9776,440.67527,249.73902)" fill="#212121"/>
<path transform="matrix(1,0,0,-1,0,255.118)" d="M 0 0 L 0 2.98883 L 453.54914 2.98883 L 453.54914 0 Z M 453.54914 2.98883 " fill="#ffffff"/>
<path transform="matrix(1,0,0,-1,0,255.118)" d="M 0 0 L 0 2.98883 L 302.3643 2.98883 L 302.3643 0 Z M 302.3643 2.98883 " fill="#42a5f5"/>
</g>
</svg>
