<?xml version="1.0" encoding="UTF-8" standalone="no"?>
<!DOCTYPE svg PUBLIC "-//W3C//DTD SVG 1.1//EN" "http://www.w3.org/Graphics/SVG/1.1/DTD/svg11.dtd">
<svg xmlns="http://www.w3.org/2000/svg" xmlns:xlink="http://www.w3.org/1999/xlink" version="1.1" width="453.543pt" height="255.118pt" viewBox="0 0 453.543 255.118">
<g enable-background="new">
<path transform="matrix(1,0,0,-1,0,255.118)" d="M 0 0 L 453.543 0 L 453.543 255.118 L 0 255.118 Z " fill="#ffffff"/>
<path transform="matrix(1,0,0,-1,0,29.888)" d="M 0 0 L 453.543 0 L 453.543 24.907 L 0 24.907 Z " fill="#ffffff"/>
<path transform="matrix(1,0,0,-1,0,29.888)" d="M 0 0 L 0 29.8883 L 453.54914 29.8883 L 453.54914 0 Z M 453.54914 29.8883 " fill="#ffffff"/>
<path transform="matrix(1,0,0,-1,0,29.888)" d="M 4.98138 0 L 4.98138 24.90692 L 448.56776 24.90692 L 448.56776 0 Z M 448.56776 24.90692 " fill="#bbdefb"/>
<symbol id="font_0_5">
<path d="M 0 .37600003 C 0 .14750001 .13500002 0 .35600005 0 C .51750007 0 .57000008 .049500005 .6215 .051500005 L .6215 .408 L .35950003 .408 L .35950003 .295 L .47650004 .2885 L .47650004 .1375 C .45050005 .125 .40600003 .11750001 .35300002 .11750001 C .22450003 .11750001 .16 .2345 .16 .389 C .16 .54450008 .24200002 .63650009 .37150003 .63650009 C .47450007 .63650009 .53300008 .61800006 .57600006 .596 L .58100005 .7300001 C .5205 .74100008 .47950007 .75900009 .36900003 .75900009 C .16300002 .75900009 0 .64300009 0 .37600003 Z "/>
</symbol>
<symbol id="font_0_1c">
<path d="M .26700003 0 C .42550005 0 .5395 .09600001 .5415 .275 C .5445 .43400003 .47250007 .572 .277 .572 C .11950001 .572 .0050000029 .4765 .0020000004 .298 C 0 .1385 .07200001 0 .26700003 0 M .27100004 .10650001 C .19050002 .10700001 .16000001 .19150001 .16000001 .294 C .16000001 .405 .19350001 .46600003 .27400003 .4655 C .35400004 .465 .38450004 .3825 .38450004 .2815 C .38450004 .1675 .35050003 .105500008 .27100004 .10650001 Z "/>
</symbol>
<symbol id="font_0_23">
<path d="M .214 0 L .3555 0 L .56650009 .56500008 L .40550003 .56500008 L .322 .2935 L .28750003 .1535 L .25 .2935 L .16350001 .56500008 L 0 .56500008 L .214 0 Z "/>
</symbol>
<symbol id="font_0_13">
<path d="M .2655 0 C .352 0 .43600006 .026 .473 .056 L .44750006 .13900002 C .42050005 .12450001 .3495 .11050001 .302 .11050001 C .216 .11050001 .15750002 .148 .1515 .2515 L .4845 .2515 C .4885 .276 .49 .3115 .49 .3525 C .4875 .51600006 .38300003 .573 .26749999 .572 C .096 .57100006 0 .45000003 0 .288 C 0 .10750001 .09400001 0 .2655 0 M .2625 .47050003 C .334 .47050003 .35300005 .4145 .348 .334 L .1535 .334 C .164 .437 .205 .47050003 .2625 .47050003 Z "/>
</symbol>
<symbol id="font_0_1f">
<path d="M 0 0 L .1525 0 L .1525 .37250004 C .17500001 .395 .21450001 .42350004 .277 .42350004 C .316 .42350004 .333 .41550002 .34250004 .41000004 L .34250004 .55850008 C .3345 .563 .316 .565 .296 .565 C .2265 .565 .1615 .523 .14 .47750003 L .132 .5565 L 0 .5565 L 0 0 Z "/>
</symbol>
<symbol id="font_0_1b">
<path d="M 0 0 L .15200001 0 L .15200001 .40100003 C .185 .42850004 .2295 .44250003 .2595 .44300003 C .3255 .446 .34300003 .41450004 .34300003 .328 L .34300003 0 L .496 0 L .496 .34950004 C .496 .51100006 .44300003 .56750008 .32700003 .565 C .2535 .56350007 .1785 .526 .141 .49400003 L .1385 .5565 L 0 .5565 L 0 0 Z "/>
</symbol>
<symbol id="font_0_17">
<path d="M .088000018 .637 C .14050001 .637 .18500002 .6775 .18500002 .7285 C .18500002 .77650007 .15150002 .8115 .09750001 .8115 C .0465 .8115 0 .77000007 0 .72 C 0 .671 .0385 .637 .088000018 .637 M .019499999 0 L .172 0 L .172 .5565 L .019499999 .5565 L .019499999 0 Z "/>
</symbol>
<symbol id="font_0_15">
<path d="M .252 .44099999 C .4065 .44099999 .49350003 .508 .49350003 .63 C .49350003 .656 .48900006 .68 .4805 .701 L .581 .701 L .581 .81100007 L .51600006 .81100007 C .47300003 .81100007 .4365 .79300007 .41650004 .777 C .37500004 .8035 .319 .81700006 .25300003 .8165 C .11050001 .8155 .0165 .7505 .0165 .6255 C .0165 .55200007 .0555 .4975 .11950001 .4675 C .0585 .4385 .039000006 .393 .038000004 .35500003 C .0375 .32050003 .052500003 .2955 .08850001 .2805 C .0365 .2595 0 .22049999 0 .16749999 C 0 .06099999 .0845 .0014999807 .26000003 .00049999359 C .41450004 0 .55500009 .069499988 .55500009 .2035 C .55500009 .282 .5115 .356 .33900003 .356 L .2385 .356 C .1885 .356 .17050001 .366 .17050001 .399 C .17050001 .41500003 .179 .43300004 .19500001 .445 C .213 .442 .23250002 .44099999 .252 .44099999 M .254 .5265 C .1885 .5265 .164 .5725 .164 .6285 C .164 .7045 .20150002 .725 .25750003 .725 C .32050003 .725 .3515 .6915 .3515 .627 C .3515 .54700008 .3125 .5265 .254 .5265 M .1465 .1925 C .1465 .22299999 .15750002 .243 .17 .257 C .17850001 .256 .187 .2555 .19700001 .2555 L .28950004 .2555 C .39000003 .2555 .40850003 .222 .40850003 .17199999 C .40850003 .11399999 .34600003 .08899999 .2675 .08899999 C .17400001 .08899999 .1465 .13549999 .1465 .1925 Z "/>
</symbol>
<symbol id="font_0_3">
<path d="M 0 0 L .48500005 0 L .48500005 .120500009 L .15600002 .120500009 L .15600002 .323 L .38150005 .323 L .38150005 .43850003 L .15600002 .43850003 L .15600002 .625 L .4535 .625 L .4535 .74300006 L 0 .74300006 L 0 0 Z "/>
</symbol>
<symbol id="font_0_1e">
<path d="M .22100002 .23900001 C .30150003 .23900001 .34800003 .2705 .37550003 .2955 L .37350003 .179 L .37350003 0 L .5255 0 L .5255 .804 L .41450004 .78700008 C .3855 .799 .33600004 .811 .2825 .811 C .113000009 .811 0 .69100007 0 .50600007 C 0 .3255 .10349999 .23900001 .22100002 .23900001 M .1595 .5165 C .16 .64100006 .21450001 .704 .287 .704 C .326 .704 .356 .699 .37350003 .68500009 L .37350003 .38850004 C .35300002 .37300004 .3125 .35500003 .27 .35500003 C .201 .35500003 .158 .40100003 .1595 .5165 Z "/>
</symbol>
<symbol id="font_0_22">
<path d="M .17950002 0 C .23450002 0 .30600003 .024 .34800003 .054000006 L .34800003 .034 C .34800003 .0045000005 .3625 0 .38900004 0 L .486 0 L .486 .56500008 L .3335 .56500008 L .3335 .1455 C .316 .13250001 .2735 .11450001 .23700002 .11450001 C .1785 .11450001 .15200001 .1315 .15200001 .23600002 L .15200001 .56500008 L 0 .56500008 L 0 .238 C 0 .098500009 .024000004 0 .17950002 0 Z "/>
</symbol>
<symbol id="font_0_f">
<path d="M .17750001 0 C .24850002 0 .30200003 .028 .33200003 .055000005 L .33200003 .008 L .47650004 .008 L .47650004 .37600003 C .47650004 .52750006 .405 .57400009 .2515 .57400009 C .1575 .57400009 .056000007 .53650006 .022499998 .51650008 L .055500006 .4205 C .096 .4415 .1735 .46 .23700002 .46 C .293 .46 .324 .44750003 .324 .391 L .324 .35 C .2565 .35 .1685 .343 .103 .3155 C .0395 .2885 0 .23850002 0 .171 C 0 .069000009 .0715 0 .17750001 0 M .15550001 .179 C .15550001 .2205 .179 .23700002 .2055 .24900002 C .23300001 .2615 .28750003 .269 .324 .2695 L .324 .1295 C .314 .11800001 .2725 .10000001 .236 .10000001 C .1885 .10000001 .15550001 .125 .15550001 .179 Z "/>
</symbol>
<symbol id="font_0_21">
<path d="M .21750002 0 C .2895 0 .3625 .028 .39000003 .052500003 L .37 .13800001 C .3525 .127 .3095 .116000007 .2835 .116000007 C .23300003 .116000007 .22000002 .125 .22000002 .231 L .22000002 .4605 L .3695 .4605 L .3695 .56500008 L .22000002 .56500008 L .22000002 .69200006 L .128 .69200006 C .1145 .65550008 .10100001 .61750009 .09150001 .595 C .07750001 .56350007 .049000004 .55600008 0 .54200008 L 0 .4605 L .0675 .4605 L .0675 .1665 C .0675 .047000003 .1155 0 .21750002 0 Z "/>
</symbol>
<use xlink:href="#font_0_5" transform="matrix(20.6625,0,0,-20.6625,16.971482,23.888308)" fill="#212121"/>
<use xlink:href="#font_0_1c" transform="matrix(20.6625,0,0,-20.6625,31.714179,23.888308)" fill="#212121"/>
<use xlink:href="#font_0_23" transform="matrix(20.6625,0,0,-20.6625,43.6571,23.888308)" fill="#212121"/>
<use xlink:href="#font_0_13" transform="matrix(20.6625,0,0,-20.6625,56.199239,23.888308)" fill="#212121"/>
<use xlink:href="#font_0_1f" transform="matrix(20.6625,0,0,-20.6625,68.73105,23.723008)" fill="#212121"/>
<use xlink:href="#font_0_1b" transform="matrix(20.6625,0,0,-20.6625,77.93619,23.723008)" fill="#212121"/>
<use xlink:href="#font_0_17" transform="matrix(20.6625,0,0,-20.6625,90.94324,23.723008)" fill="#212121"/>
<use xlink:href="#font_0_1b" transform="matrix(20.6625,0,0,-20.6625,97.792858,23.723008)" fill="#212121"/>
<use xlink:href="#font_0_15" transform="matrix(20.6625,0,0,-20.6625,110.38665,28.940289)" fill="#212121"/>
<use xlink:href="#font_0_3" transform="matrix(20.6625,0,0,-20.6625,128.07376,23.723008)" fill="#212121"/>
<use xlink:href="#font_0_1e" transform="matrix(20.6625,0,0,-20.6625,139.33481,28.826645)" fill="#212121"/>
<use xlink:href="#font_0_22" transform="matrix(20.6625,0,0,-20.6625,153.19934,23.888308)" fill="#212121"/>
<use xlink:href="#font_0_f" transform="matrix(20.6625,0,0,-20.6625,165.76215,23.888308)" fill="#212121"/>
<use xlink:href="#font_0_21" transform="matrix(20.6625,0,0,-20.6625,177.69474,23.888308)" fill="#212121"/>
<use xlink:href="#font_0_17" transform="matrix(20.6625,0,0,-20.6625,187.5404,23.723008)" fill="#212121"/>
<use xlink:href="#font_0_1c" transform="matrix(20.6625,0,0,-20.6625,193.50154,23.888308)" fill="#212121"/>
<use xlink:href="#font_0_1b" transform="matrix(20.6625,0,0,-20.6625,207.07682,23.723008)" fill="#212121"/>
<symbol id="font_1_2">
<path d="M .087 .605 L .559 .605 L .323 .08800001 L .087 .605 M 0 .65000006 C 0 .64800009 .0009999946 .646 .0019999967 .64400008 L .29200004 .008000001 C .29500003 .003000006 .3 0 .30600003 0 C .312 0 .317 .003000006 .32000003 .008000001 L .61 .64400008 C .611 .646 .61200007 .64800009 .61200007 .65000006 C .61200007 .65800008 .606 .665 .596 .665 L .015000001 .665 C .0059999974 .665 0 .65800008 0 .65000006 Z "/>
</symbol>
<symbol id="font_1_1">
<path d="M .054000006 .10800001 C .023000002 .10800001 0 .083000008 0 .05400002 C 0 .023000002 .024999999 0 .054000006 0 C .086 0 .108 .026000008 .108 .05400002 C .108 .085999999 .08300001 .10800001 .054000006 .10800001 Z "/>
</symbol>
<use xlink:href="#font_1_2" transform="matrix(10.9091,0,0,-10.9091,23.431729,126.55801)" fill="#212121"/>
<use xlink:href="#font_1_1" transform="matrix(10.9091,0,0,-10.9091,33.620828,123.525279)" fill="#212121"/>
<symbol id="font_2_4">
<path d="M .36200003 .073000017 C .36200003 .08099997 .35700003 .08700001 .349 .08899999 C .31800003 .09399998 .29200004 .116 .272 .14099998 C .26900003 .14499998 .264 .14700002 .26000003 .14700002 C .256 .14700002 .25300003 .14499998 .25 .143 C .24400002 .13699997 .243 .12799996 .248 .12099999 C .25800003 .10899997 .271 .09899998 .28300003 .088 L .015000001 .088 C .0069999995 .088 0 .08200002 0 .073000017 C 0 .065 .0069999995 .05799997 .015000001 .05799997 L .28300003 .05799997 C .271 .047999979 .25800003 .037999989 .248 .025999964 C .243 .018999994 .24400002 .009000003 .25 .004000008 C .25300003 .0009999871 .256 0 .26000003 0 C .264 0 .26900003 .0019999743 .272 .0059999825 C .29200004 .029999972 .31800003 .052999975 .349 .05799997 C .35700003 .060000004 .36200003 .065999988 .36200003 .073000017 Z "/>
</symbol>
<use xlink:href="#font_2_4" transform="matrix(10.9091,0,0,-10.9091,39.02573,120.013278)" fill="#212121"/>
<symbol id="font_3_1">
<path d="M .321 .067 C .33200003 .026 .367 0 .41 0 C .44500003 0 .468 .023000002 .484 .055000005 C .50100007 .091000009 .51400008 .15200001 .51400008 .15400002 C .51400008 .16400002 .50500008 .16400002 .50200006 .16400002 C .492 .16400002 .49100004 .16000001 .488 .14600002 C .474 .09 .455 .022000002 .41300003 .022000002 C .39200003 .022000002 .382 .035 .382 .068 C .382 .09 .394 .13700001 .402 .17200002 L .43 .28000004 C .433 .29500003 .44300003 .33300004 .447 .34800003 C .45200003 .37100003 .462 .40900005 .462 .41500003 C .462 .43300004 .448 .44200004 .433 .44200004 C .428 .44200004 .402 .441 .394 .40700004 C .375 .33400003 .331 .15900001 .319 .106000009 C .318 .102000009 .278 .022000002 .20500002 .022000002 C .15300001 .022000002 .143 .067 .143 .104 C .143 .16000001 .171 .23900002 .19700001 .30800004 C .209 .33800004 .21400002 .35200004 .21400002 .37100003 C .21400002 .41600005 .18200001 .45300005 .13200002 .45300005 C .037 .45300005 0 .30800004 0 .29900003 C 0 .28900004 .01 .28900004 .012 .28900004 C .022000002 .28900004 .023 .291 .028000003 .307 C .053000004 .39400003 .091000009 .43100003 .12900001 .43100003 C .13800001 .43100003 .15400002 .43000005 .15400002 .39800004 C .15400002 .374 .143 .34500004 .13700001 .33 C .10000001 .23100002 .079 .16900002 .079 .120000008 C .079 .025000003 .148 0 .202 0 C .268 0 .304 .045 .321 .067 Z "/>
</symbol>
<use xlink:href="#font_3_1" transform="matrix(10.9091,0,0,-10.9091,37.890367,125.838008)" fill="#212121"/>
<symbol id="font_4_3">
<path d="M .41000004 .22500003 L .023000002 .22500003 C .009999998 .22500003 0 .215 0 .20200002 C 0 .18900001 .009999998 .17900002 .023000002 .17900002 L .41000004 .17900002 C .42300005 .17900002 .43300004 .18900001 .43300004 .20200002 C .43300004 .215 .42300005 .22500003 .41000004 .22500003 M .41000004 .046000005 L .023000002 .046000005 C .009999998 .046000005 0 .036 0 .023000002 C 0 .010000005 .009999998 0 .023000002 0 L .41000004 0 C .42300005 0 .43300004 .010000005 .43300004 .023000002 C .43300004 .036 .42300005 .046000005 .41000004 .046000005 Z "/>
</symbol>
<use xlink:href="#font_4_3" transform="matrix(10.9091,0,0,-10.9091,47.12291,124.158008)" fill="#212121"/>
<symbol id="font_5_1">
<path d="M .421 .34200005 C .421 .42200003 .416 .50200006 .381 .57600006 C .335 .67200008 .25300003 .688 .211 .688 C .15100001 .688 .07800001 .66200008 .037000006 .56900009 C .0050000029 .5 0 .42200003 0 .34200005 C 0 .26700003 .0040000008 .177 .045000007 .101 C .088 .020000002 .161 0 .21000001 0 C .264 0 .34 .021000002 .384 .116000007 C .416 .185 .421 .263 .421 .34200005 M .21000001 .022000002 C .171 .022000002 .112 .047000003 .094 .143 C .083000008 .20300001 .083000008 .29500003 .083000008 .35400004 C .083000008 .41800005 .083000008 .48400004 .091000009 .53800007 C .11 .65700009 .185 .66600009 .21000001 .66600009 C .243 .66600009 .30900003 .64800009 .328 .549 C .338 .49300004 .338 .41700004 .338 .35400004 C .338 .279 .338 .21100001 .32700003 .147 C .312 .052 .255 .022000002 .21000001 .022000002 Z "/>
</symbol>
<use xlink:href="#font_5_1" transform="matrix(10.9091,0,0,-10.9091,55.574457,125.958)" fill="#212121"/>
<symbol id="font_6_2">
<path d="M 0 .15 L .30500005 .15 L .30500005 0 L .41100005 0 L .41100005 .15 L .52000007 .15 L .52000007 .231 L .41100005 .231 L .41100005 .651 L .30100004 .651 L .29000003 .64900007 L .263 .61300006 L .001000002 .231 L 0 .20400001 L 0 .15 M .108 .231 C .17700002 .33500005 .263 .44300006 .30400003 .558 C .30900003 .572 .31300003 .586 .31300003 .6010001 L .314 .231 L .108 .231 Z "/>
</symbol>
<use xlink:href="#font_6_2" transform="matrix(5.9776,0,0,-5.9776,440.67527,249.73902)" fill="#212121"/>
<path transform="matrix(1,0,0,-1,0,255.118)" d="M 0 0 L 0 2.98883 L 453.54914 2.98883 L 453.54914 0 Z M 453.54914 2.98883 " fill="#ffffff"/>
<path transform="matrix(1,0,0,-1,0,255.118)" d="M 0 0 L 0 2.98883 L 302.3643 2.98883 L 302.3643 0 Z M 302.3643 2.98883 " fill="#42a5f5"/>
</g>
</svg>
