<?xml version="1.0" encoding="UTF-8" standalone="no"?>
<!DOCTYPE svg PUBLIC "-//W3C//DTD SVG 1.1//EN" "http://www.w3.org/Graphics/SVG/1.1/DTD/svg11.dtd">
<svg xmlns="http://www.w3.org/2000/svg" xmlns:xlink="http://www.w3.org/1999/xlink" version="1.1" width="453.543pt" height="255.118pt" viewBox="0 0 453.543 255.118">
<g enable-background="new">
<path transform="matrix(1,0,0,-1,0,255.118)" d="M 0 0 L 453.543 0 L 453.543 255.118 L 0 255.118 Z " fill="#ffffff"/>
<path transform="matrix(1,0,0,-1,0,29.888)" d="M 0 0 L 453.543 0 L 453.543 24.907 L 0 24.907 Z " fill="#ffffff"/>
<path transform="matrix(1,0,0,-1,0,29.888)" d="M 0 0 L 0 29.8883 L 453.54914 29.8883 L 453.54914 0 Z M 453.54914 29.8883 " fill="#ffffff"/>
<path transform="matrix(1,0,0,-1,0,29.888)" d="M 4.98138 0 L 4.98138 24.90692 L 448.56776 24.90692 L 448.56776 0 Z M 448.56776 24.90692 " fill="#bbdefb"/>
<symbol id="font_0_c">
<path d="M .229 0 C .39150004 0 .49050004 .078 .49050004 .2125 C .49050004 .33 .40150003 .388 .286 .4425 C .1895 .48900003 .1505 .51400008 .1505 .57000008 C .1505 .61700007 .1965 .64300009 .2675 .64300009 C .33850003 .64300009 .39600004 .62100008 .4275 .5985001 L .454 .71750006 C .4275 .734 .361 .75900009 .2585 .75900009 C .116 .75900009 0 .69900009 0 .56000009 C 0 .445 .086500007 .377 .1795 .332 C .2885 .28 .3345 .257 .3345 .19950001 C .3345 .1445 .296 .12150001 .21700001 .12150001 C .1425 .12150001 .065500009 .14700002 .028 .1685 L .004499998 .044500006 C .032 .027000003 .1265 0 .229 0 Z "/>
</symbol>
<symbol id="font_0_22">
<path d="M .17950002 0 C .23450002 0 .30600003 .024 .34800003 .054000006 L .34800003 .034 C .34800003 .0045000005 .3625 0 .38900004 0 L .486 0 L .486 .56500008 L .3335 .56500008 L .3335 .1455 C .316 .13250001 .2735 .11450001 .23700002 .11450001 C .1785 .11450001 .15200001 .1315 .15200001 .23600002 L .15200001 .56500008 L 0 .56500008 L 0 .238 C 0 .098500009 .024000004 0 .17950002 0 Z "/>
</symbol>
<symbol id="font_0_1a">
<path d="M 0 0 L .15200001 0 L .15200001 .40100003 C .185 .42850004 .23050002 .44200004 .26000003 .44250003 C .32500003 .44450004 .342 .4135 .342 .328 L .342 0 L .49400003 0 L .49400003 .35050003 C .49400003 .36900003 .49300004 .386 .49150003 .402 C .5195 .423 .5605 .44200004 .597 .44250003 C .66300007 .44450004 .679 .41400004 .679 .3285 L .679 0 L .832 0 L .832 .35000003 C .832 .513 .77150008 .5665 .65650007 .565 C .5755 .565 .50200006 .52650007 .467 .499 C .44050003 .54800006 .39450003 .56700006 .3265 .565 C .254 .56350007 .1805 .52650007 .141 .497 L .1385 .5565 L 0 .5565 L 0 0 Z "/>
</symbol>
<symbol id="font_0_f">
<path d="M .17750001 0 C .24850002 0 .30200003 .028 .33200003 .055000005 L .33200003 .008 L .47650004 .008 L .47650004 .37600003 C .47650004 .52750006 .405 .57400009 .2515 .57400009 C .1575 .57400009 .056000007 .53650006 .022499998 .51650008 L .055500006 .4205 C .096 .4415 .1735 .46 .23700002 .46 C .293 .46 .324 .44750003 .324 .391 L .324 .35 C .2565 .35 .1685 .343 .103 .3155 C .0395 .2885 0 .23850002 0 .171 C 0 .069000009 .0715 0 .17750001 0 M .15550001 .179 C .15550001 .2205 .179 .23700002 .2055 .24900002 C .23300001 .2615 .28750003 .269 .324 .2695 L .324 .1295 C .314 .11800001 .2725 .10000001 .236 .10000001 C .1885 .10000001 .15550001 .125 .15550001 .179 Z "/>
</symbol>
<symbol id="font_0_1f">
<path d="M 0 0 L .1525 0 L .1525 .37250004 C .17500001 .395 .21450001 .42350004 .277 .42350004 C .316 .42350004 .333 .41550002 .34250004 .41000004 L .34250004 .55850008 C .3345 .563 .316 .565 .296 .565 C .2265 .565 .1615 .523 .14 .47750003 L .132 .5565 L 0 .5565 L 0 0 Z "/>
</symbol>
<symbol id="font_0_24">
<path d="M .054 .009000003 C .060000007 .004999995 .111 0 .12600002 0 C .149 0 .18450001 .004999995 .20500002 .012999997 C .27600003 .036500008 .34050004 .10000001 .38300003 .2335 L .562 .80500009 L .40050004 .80500009 L .32250003 .48250003 L .29200004 .35300002 L .25800003 .48250003 L .16250001 .80500009 L 0 .80500009 L .19500001 .24800001 L .25050003 .24800001 C .22300002 .13300002 .15550001 .120000008 .109500009 .120000008 C .095 .120000008 .065 .125 .054 .12900001 L .054 .009000003 Z "/>
</symbol>
<use xlink:href="#font_0_c" transform="matrix(20.6625,0,0,-20.6625,17.188439,23.392306)" fill="#212121"/>
<use xlink:href="#font_0_22" transform="matrix(20.6625,0,0,-20.6625,29.51362,23.392306)" fill="#212121"/>
<use xlink:href="#font_0_1a" transform="matrix(20.6625,0,0,-20.6625,42.78928,23.227005)" fill="#212121"/>
<use xlink:href="#font_0_1a" transform="matrix(20.6625,0,0,-20.6625,63.079858,23.227005)" fill="#212121"/>
<use xlink:href="#font_0_f" transform="matrix(20.6625,0,0,-20.6625,82.34764,23.392306)" fill="#212121"/>
<use xlink:href="#font_0_1f" transform="matrix(20.6625,0,0,-20.6625,95.158397,23.227005)" fill="#212121"/>
<use xlink:href="#font_0_24" transform="matrix(20.6625,0,0,-20.6625,102.94816,28.351305)" fill="#212121"/>
<symbol id="font_1_1">
<path d="M .54700008 .025000003 L .54700008 .522 C .54700008 .536 .53700008 .547 .522 .547 L .024999999 .547 C .011 .547 0 .536 0 .522 L 0 .025000003 C 0 .010000001 .011 0 .024999999 0 L .522 0 C .53700008 0 .54700008 .010000001 .54700008 .025000003 Z "/>
</symbol>
<use xlink:href="#font_1_1" transform="matrix(7.9701,0,0,-7.9701,34.158056,87.64739)" fill="#42a5f5"/>
<symbol id="font_2_f">
<path d="M 0 .68900009 L 0 .623 L .262 .623 L .262 0 L .344 0 L .344 .624 L .605 .624 L .605 .68900009 L 0 .68900009 Z "/>
</symbol>
<symbol id="font_2_20">
<path d="M 0 .73 L 0 0 L .078999999 0 L .078999999 .229 C .078999999 .29200004 .09 .39300005 .17800002 .39300005 C .20600002 .39300005 .237 .38700003 .25700004 .36500005 C .27500005 .34400005 .278 .31700004 .278 .29000003 C .278 .27700005 .277 .26500003 .277 .25300003 L .277 0 L .356 0 L .356 .293 C .356 .36600004 .34000004 .45500005 .22000002 .45500005 C .168 .45500005 .103 .42900003 .07700001 .38400004 L .076000008 .73 L 0 .73 Z "/>
</symbol>
<symbol id="font_2_18">
<path d="M .366 .119 C .321 .088 .276 .062000004 .21800001 .062000004 C .16000001 .062000004 .10700001 .098000008 .083000008 .15600002 C .072 .18100001 .069000009 .20700002 .066 .23400001 L .375 .23400001 C .375 .299 .365 .37 .321 .42000003 C .29 .455 .24500002 .472 .19900002 .472 C .072 .472 0 .345 0 .23200003 L 0 .22700002 C .0020000004 .113000009 .088 0 .21300002 0 C .264 0 .316 .016 .357 .042000005 C .365 .048000006 .372 .050000006 .372 .060000004 C .372 .079 .367 .099 .366 .119 M .073 .29 C .087 .349 .135 .41 .19900002 .41 L .202 .41 C .273 .41 .304 .349 .32 .29 L .073 .29 Z "/>
</symbol>
<use xlink:href="#font_2_f" transform="matrix(10.9091,0,0,-10.9091,44.88973,87.47708)" fill="#212121"/>
<use xlink:href="#font_2_20" transform="matrix(10.9091,0,0,-10.9091,52.74428,87.47708)" fill="#212121"/>
<use xlink:href="#font_2_18" transform="matrix(10.9091,0,0,-10.9091,57.87156,87.597087)" fill="#212121"/>
<symbol id="font_2_1c">
<path d="M .073 .44400005 L 0 .44400005 L 0 .38400004 L .073 .38400004 L .073 0 L .14900002 0 L .14900002 .38400004 L .26500003 .38400004 L .26500003 .44400005 L .14600002 .44400005 L .14600002 .58500006 C .14600002 .623 .15700002 .679 .20800002 .679 C .23100002 .679 .24800001 .67 .26500003 .65900006 L .26500003 .71900007 C .26500003 .74100008 .21800001 .74100008 .20400001 .74100008 C .11900001 .74100008 .078 .64400008 .073 .57000008 L .073 .44400005 M .34800003 .44400005 L .34800003 0 L .42400003 0 L .42400003 .44400005 L .34800003 .44400005 M .344 .73100009 L .344 .64800009 L .42700003 .64800009 L .42700003 .73100009 L .344 .73100009 Z "/>
</symbol>
<symbol id="font_2_30">
<path d="M .071 .36300005 L .071 .44900004 L 0 .44900004 L 0 0 L .076 0 L .076 .20300001 C .076 .27000005 .098 .34600003 .187 .37600003 C .20500002 .38300003 .22500003 .38600005 .24400002 .38600005 L .24400002 .45500005 C .17300001 .45500005 .11800001 .42100004 .071 .36300005 Z "/>
</symbol>
<symbol id="font_2_31">
<path d="M .011000002 .115 C .0090000019 .098000008 .005999999 .082 .0030000006 .065000008 C .0020000004 .061000006 0 .055000005 0 .050000006 C 0 .025000003 .104 .0060000007 .11500001 .0040000008 C .13200002 .0010000002 .15 0 .16800002 0 C .244 0 .329 .033000005 .329 .13800001 C .329 .202 .281 .25300003 .223 .271 C .17300001 .287 .07700001 .282 .07700001 .351 C .07700001 .39000003 .111 .412 .15400002 .412 C .187 .412 .22200002 .40800003 .254 .395 C .27 .389 .285 .379 .301 .373 L .313 .44 C .265 .462 .21900001 .472 .16700001 .472 C .09 .472 .0030000006 .43800003 .0030000006 .342 C .0030000006 .28100003 .049000004 .23700002 .103 .21700002 C .15 .20100002 .257 .20600002 .257 .13100001 C .257 .079 .20600002 .064 .16100002 .064 C .10200001 .064 .064 .087000008 .011000002 .115 Z "/>
</symbol>
<symbol id="font_2_34">
<path d="M .086 .582 L .086 .455 L 0 .455 L 0 .395 L .083000008 .395 L .083000008 .125 C .083000008 .075 .097 0 .164 0 C .21700001 0 .26700003 .015000001 .31300003 .039 L .29700003 .099 C .266 .079 .24400002 .065000008 .207 .065000008 C .161 .065000008 .157 .119 .157 .15300001 L .157 .395 L .296 .395 L .296 .455 L .157 .455 L .157 .582 L .086 .582 Z "/>
</symbol>
<symbol id="font_2_24">
<path d="M .074 .38200004 L .074 .44900004 L 0 .44900004 L 0 0 L .078999999 0 L .078999999 .229 C .078999999 .29200004 .09 .39300005 .17800002 .39300005 C .20600002 .39300005 .237 .38700003 .25700004 .36500005 C .27500005 .34400005 .278 .31700004 .278 .29000003 C .278 .27700005 .277 .26500003 .277 .25300003 L .277 0 L .356 0 L .356 .229 C .356 .29200004 .36700005 .39300005 .45499999 .39300005 C .48299999 .39300005 .514 .38700003 .534 .36500005 C .552 .34400005 .555 .31700004 .555 .29000003 C .555 .27700005 .554 .26500003 .554 .25300003 L .554 0 L .633 0 L .633 .29400004 C .633 .36800004 .614 .45500005 .49800004 .45500005 C .44 .45500005 .376 .42700006 .347 .37500004 C .334 .39800004 .328 .41400004 .31 .42900003 C .28400005 .44900004 .251 .45500005 .219 .45500005 C .15900001 .45500005 .112 .42600004 .074 .38200004 Z "/>
</symbol>
<symbol id="font_2_12">
<path d="M .036 .36 C .091000009 .39200003 .125 .412 .19100002 .412 L .19600001 .412 C .252 .405 .273 .349 .273 .29500003 L .273 .26 C .169 .26 0 .23600002 0 .125 C 0 .066 .038000004 0 .109 0 C .16600001 0 .23000002 .011000001 .27600003 .047000003 L .27600003 .011000001 L .35200004 .011000001 L .35200004 .292 C .35200004 .386 .296 .472 .18900001 .472 C .14 .472 .09200001 .462 .049000004 .439 C .042000005 .43600003 .030000002 .432 .030000002 .421 C .030000002 .40100003 .034999998 .38 .036 .36 M .273 .20800002 L .273 .15200001 C .273 .085 .224 .062000004 .16100002 .062000004 C .125 .062000004 .069 .079 .069 .128 C .069 .17800002 .149 .19500001 .186 .20000002 C .215 .20500002 .24400002 .20800002 .273 .20800002 Z "/>
</symbol>
<symbol id="font_2_21">
<path d="M .0069999995 .44400005 L .0069999995 0 L .083 0 L .083 .44400005 L .0069999995 .44400005 M 0 .68000009 L 0 .591 L .08900001 .591 L .08900001 .68000009 L 0 .68000009 Z "/>
</symbol>
<symbol id="font_2_25">
<path d="M .074 .38200004 L .074 .44900004 L 0 .44900004 L 0 0 L .078999999 0 L .078999999 .229 C .078999999 .29200004 .09 .39300005 .17800002 .39300005 C .20600002 .39300005 .237 .38700003 .25700004 .36500005 C .27500005 .34400005 .278 .31700004 .278 .29000003 C .278 .27700005 .277 .26500003 .277 .25300003 L .277 0 L .356 0 L .356 .23900001 C .356 .256 .357 .27400003 .357 .29200004 C .357 .36500005 .34000004 .45500005 .221 .45500005 C .16000001 .45500005 .113000009 .42700006 .074 .38200004 Z "/>
</symbol>
<symbol id="font_2_1f">
<path d="M .06300001 .23700002 C .028 .22100002 0 .17700002 0 .136 C 0 .040000008 .13000001 0 .22000002 0 C .30100004 0 .43100003 .033000009 .44000004 .127 L .44000004 .134 C .44000004 .19500001 .40500004 .24100001 .34800003 .26000003 C .30400003 .275 .25800003 .27600003 .21200001 .27600003 L .142 .27600003 C .10800001 .27600003 .09200001 .301 .09200001 .33 L .09200001 .338 C .09400001 .347 .098000008 .35500003 .10100001 .36400003 C .13200002 .347 .157 .33500005 .19100002 .33500005 L .20100002 .33500005 C .293 .34400005 .349 .41800005 .349 .499 L .349 .507 C .34700004 .54300007 .33400003 .57100006 .31500004 .6 C .319 .597 .323 .597 .328 .597 C .356 .597 .38200004 .6 .41000004 .6 C .425 .6 .439 .59800007 .45400004 .597 L .44300003 .661 C .39400003 .661 .35000003 .65200009 .30400003 .637 C .29900003 .635 .29200004 .63100007 .286 .63100007 C .28000004 .63100007 .268 .64100006 .261 .64500007 C .23900002 .65500006 .21600002 .661 .19200002 .661 C .10700001 .661 .035 .58800008 .035 .499 C .035 .469 .042 .44000004 .057 .41400004 C .060000007 .41000004 .065 .40400005 .065 .39900003 C .062000004 .38600005 .049000008 .37100003 .044000005 .35700003 C .039 .34300003 .037000006 .328 .037000006 .31300003 C .037000006 .286 .045000007 .259 .06300001 .23700002 M .12900001 .202 L .23400003 .202 C .28700004 .202 .36800004 .194 .36800004 .134 C .36800004 .091000009 .307 .068 .266 .061000006 C .25100003 .059 .23500002 .058000015 .21900001 .058000015 C .165 .058000015 .07100001 .076000008 .07100001 .13700001 C .07100001 .16800002 .098000008 .19800002 .12900001 .202 M .18200001 .60300007 L .19000001 .60300007 C .256 .60300007 .28300003 .551 .28300003 .5 C .28300003 .44900004 .261 .402 .202 .393 L .19400002 .393 C .128 .393 .10100001 .44500003 .10100001 .49600003 C .10100001 .54700008 .12300001 .59400007 .18200001 .60300007 Z "/>
</symbol>
<use xlink:href="#font_2_1c" transform="matrix(10.9091,0,0,-10.9091,66.206119,87.47708)" fill="#ff0000"/>
<use xlink:href="#font_2_30" transform="matrix(10.9091,0,0,-10.9091,72.56612,87.47708)" fill="#ff0000"/>
<use xlink:href="#font_2_31" transform="matrix(10.9091,0,0,-10.9091,75.70794,87.597087)" fill="#ff0000"/>
<use xlink:href="#font_2_34" transform="matrix(10.9091,0,0,-10.9091,79.74431,87.597087)" fill="#ff0000"/>
<use xlink:href="#font_2_24" transform="matrix(10.9091,0,0,-10.9091,87.91522,87.47708)" fill="#ff0000"/>
<use xlink:href="#font_2_12" transform="matrix(10.9091,0,0,-10.9091,96.1625,87.597087)" fill="#ff0000"/>
<use xlink:href="#font_2_21" transform="matrix(10.9091,0,0,-10.9091,101.63887,87.47708)" fill="#ff0000"/>
<use xlink:href="#font_2_25" transform="matrix(10.9091,0,0,-10.9091,104.25706,87.47708)" fill="#ff0000"/>
<use xlink:href="#font_2_24" transform="matrix(10.9091,0,0,-10.9091,113.45342,87.47708)" fill="#ff0000"/>
<use xlink:href="#font_2_18" transform="matrix(10.9091,0,0,-10.9091,121.59161,87.597087)" fill="#ff0000"/>
<use xlink:href="#font_2_31" transform="matrix(10.9091,0,0,-10.9091,126.33707,87.597087)" fill="#ff0000"/>
<use xlink:href="#font_2_31" transform="matrix(10.9091,0,0,-10.9091,130.49344,87.597087)" fill="#ff0000"/>
<use xlink:href="#font_2_12" transform="matrix(10.9091,0,0,-10.9091,134.82436,87.597087)" fill="#ff0000"/>
<use xlink:href="#font_2_1f" transform="matrix(10.9091,0,0,-10.9091,139.82073,89.72436)" fill="#ff0000"/>
<use xlink:href="#font_2_18" transform="matrix(10.9091,0,0,-10.9091,145.32984,87.597087)" fill="#ff0000"/>
<symbol id="font_2_27">
<path d="M .202 .472 C .07900001 .45900003 0 .34800003 0 .23300001 C 0 .142 .049 .045 .154 .010000001 C .17400001 .0030000006 .19500001 0 .21700001 0 C .335 0 .432 .105000007 .432 .23200003 C .432 .344 .35500003 .472 .214 .472 L .202 .472 M .074 .22600001 C .073 .23200003 .073 .23800002 .073 .24400002 C .073 .327 .126 .41 .216 .41 C .30600003 .41 .358 .329 .358 .24100001 C .358 .16400002 .31800003 .065000008 .21700001 .065000008 C .134 .065000008 .083000008 .134 .074 .22600001 Z "/>
</symbol>
<symbol id="font_2_1b">
<path d="M .073 .44400005 L 0 .44400005 L 0 .38400004 L .073 .38400004 L .073 0 L .14900002 0 L .14900002 .38400004 L .25800003 .38400004 L .25800003 .44400005 L .14600002 .44400005 L .14600002 .55600008 C .14600002 .56600007 .14500001 .57600006 .14500001 .587 C .14500001 .64000007 .18300002 .679 .23500003 .679 C .267 .679 .29 .67 .317 .6610001 L .317 .72 C .317 .74100008 .252 .74100008 .23800002 .74100008 C .13300002 .74100008 .073 .646 .073 .54800006 L .073 .44400005 Z "/>
</symbol>
<symbol id="font_2_3b">
<path d="M 0 .64900007 C .011 .61200007 .031000002 .57500007 .047000007 .53900006 C .076000008 .47000004 .105000007 .40100003 .135 .33200003 L .18200001 .22200002 C .18400002 .21700001 .187 .21200001 .18800001 .20700002 L .18800001 .20500002 C .18800001 .19600001 .179 .179 .17500001 .16800002 C .15900001 .128 .141 .059 .09900001 .059 C .072000008 .059 .046000005 .068 .020000002 .075 L .026000003 .008000001 C .049000004 .003000006 .07300001 0 .09600001 0 C .16200002 0 .19200002 .058 .21300002 .11100001 C .27800004 .26900003 .34 .42900003 .40300004 .58900007 C .411 .609 .42000003 .629 .42600004 .64900007 L .36 .64900007 C .34 .64900007 .32400004 .58500006 .31100003 .55200007 C .27400003 .45900006 .231 .35800005 .22000002 .25700004 C .21500002 .27600003 .21400002 .296 .209 .316 C .18200001 .42000003 .136 .521 .09300001 .62 C .086 .64000007 .08400001 .64900007 .069000009 .64900007 L 0 .64900007 Z "/>
</symbol>
<symbol id="font_2_37">
<path d="M 0 .455 L 0 .12900001 C 0 .096 .0009999946 .062000004 .022 .033000005 C .041999997 .0060000007 .074 0 .106000009 0 C .16700001 0 .23600002 .019000002 .28000004 .060000004 L .28000004 .011000001 L .356 .011000001 L .356 .455 L .277 .455 L .277 .17800002 C .277 .096 .228 .057000005 .149 .057000005 C .111 .057000005 .078999999 .069000009 .078999999 .123 L .078999999 .455 L 0 .455 Z "/>
</symbol>
<symbol id="font_2_23">
<path d="M 0 .73 L 0 0 L .076 0 L .076 .73 L 0 .73 Z "/>
</symbol>
<symbol id="font_2_22">
<path d="M 0 .73 L 0 0 L .072000008 0 L .072000008 .12900001 L .07400001 .14400001 L .14700002 .222 L .301 .0019999999 L .38500003 .0019999999 L .201 .26700003 L .19999999 .27300004 L .363 .44400005 L .27 .44400005 L .07400001 .24300002 L .07400001 .73 L 0 .73 Z "/>
</symbol>
<symbol id="font_2_39">
<path d="M 0 .44500003 C .0030000006 .43100003 .008000001 .418 .012 .40500004 C .052 .28300003 .086 .15900001 .12500002 .037 C .12900001 .023000002 .12900001 0 .14700002 0 C .15100001 0 .15500002 .001 .158 .001 L .216 .001 C .24600002 .11100001 .28500004 .22000002 .30900003 .333 C .314 .35300002 .31800003 .37300004 .31800003 .393 L .319 .393 C .32200004 .35300002 .33200003 .314 .342 .27600003 C .36200003 .19600001 .386 .116000007 .411 .037 C .416 .020000002 .41500003 .001 .43300004 .001 L .48900003 .001 C .49200005 .001 .49700005 0 .50100007 0 C .51500007 0 .517 .019000002 .52000007 .030000002 C .55700007 .155 .59800007 .27800004 .634 .40300004 C .63900008 .41700004 .64400008 .43100003 .647 .44500003 L .573 .44300003 L .563 .416 L .50100007 .209 L .46300004 .053000004 C .46300004 .085 .45000003 .119 .44300003 .15100001 C .41900004 .23700002 .39200003 .324 .367 .41000004 L .36 .43100003 C .358 .439 .35700003 .44500003 .34600003 .44500003 L .296 .44500003 C .28100003 .44500003 .282 .432 .27800004 .42100004 L .25700004 .35200004 C .22900002 .256 .18800001 .147 .18200001 .053000004 L .18100001 .053000004 C .18100001 .072000008 .17700002 .09200001 .172 .11100001 C .149 .22500001 .106000009 .33600004 .07800001 .44500003 L 0 .44500003 Z "/>
</symbol>
<symbol id="font_2_2c">
<path d="M 0 .083000008 L 0 0 L .083000008 0 L .083000008 .083000008 L 0 .083000008 Z "/>
</symbol>
<use xlink:href="#font_2_27" transform="matrix(10.9091,0,0,-10.9091,153.72985,87.597087)" fill="#212121"/>
<use xlink:href="#font_2_1b" transform="matrix(10.9091,0,0,-10.9091,159.09712,87.47708)" fill="#212121"/>
<use xlink:href="#font_2_3b" transform="matrix(10.9091,0,0,-10.9091,165.88259,89.71345)" fill="#212121"/>
<use xlink:href="#font_2_27" transform="matrix(10.9091,0,0,-10.9091,170.73714,87.597087)" fill="#212121"/>
<use xlink:href="#font_2_37" transform="matrix(10.9091,0,0,-10.9091,176.64987,87.597087)" fill="#212121"/>
<use xlink:href="#font_2_30" transform="matrix(10.9091,0,0,-10.9091,182.24625,87.47708)" fill="#212121"/>
<use xlink:href="#font_2_34" transform="matrix(10.9091,0,0,-10.9091,188.8899,87.597087)" fill="#212121"/>
<use xlink:href="#font_2_12" transform="matrix(10.9091,0,0,-10.9091,193.11171,87.597087)" fill="#212121"/>
<use xlink:href="#font_2_23" transform="matrix(10.9091,0,0,-10.9091,198.66445,87.47708)" fill="#212121"/>
<use xlink:href="#font_2_22" transform="matrix(10.9091,0,0,-10.9091,201.239,87.47708)" fill="#212121"/>
<use xlink:href="#font_2_21" transform="matrix(10.9091,0,0,-10.9091,210.03174,87.47708)" fill="#212121"/>
<use xlink:href="#font_2_25" transform="matrix(10.9091,0,0,-10.9091,212.64992,87.47708)" fill="#212121"/>
<use xlink:href="#font_2_27" transform="matrix(10.9091,0,0,-10.9091,221.34449,87.597087)" fill="#212121"/>
<use xlink:href="#font_2_25" transform="matrix(10.9091,0,0,-10.9091,227.25722,87.47708)" fill="#212121"/>
<use xlink:href="#font_2_18" transform="matrix(10.9091,0,0,-10.9091,232.3845,87.597087)" fill="#212121"/>
<use xlink:href="#font_2_27" transform="matrix(10.9091,0,0,-10.9091,240.7736,87.597087)" fill="#212121"/>
<use xlink:href="#font_2_30" transform="matrix(10.9091,0,0,-10.9091,246.41362,87.47708)" fill="#212121"/>
<use xlink:href="#font_2_34" transform="matrix(10.9091,0,0,-10.9091,253.04636,87.597087)" fill="#212121"/>
<use xlink:href="#font_2_39" transform="matrix(10.9091,0,0,-10.9091,256.61366,87.48799)" fill="#212121"/>
<use xlink:href="#font_2_27" transform="matrix(10.9091,0,0,-10.9091,263.88999,87.597087)" fill="#212121"/>
<use xlink:href="#font_2_23" transform="matrix(10.9091,0,0,-10.9091,273.43544,87.47708)" fill="#212121"/>
<use xlink:href="#font_2_21" transform="matrix(10.9091,0,0,-10.9091,275.9227,87.47708)" fill="#212121"/>
<use xlink:href="#font_2_25" transform="matrix(10.9091,0,0,-10.9091,278.54087,87.47708)" fill="#212121"/>
<use xlink:href="#font_2_18" transform="matrix(10.9091,0,0,-10.9091,283.66816,87.597087)" fill="#212121"/>
<use xlink:href="#font_2_31" transform="matrix(10.9091,0,0,-10.9091,288.4136,87.597087)" fill="#212121"/>
<use xlink:href="#font_2_2c" transform="matrix(10.9091,0,0,-10.9091,293.30088,87.47708)" fill="#212121"/>
<use xlink:href="#font_1_1" transform="matrix(7.9701,0,0,-7.9701,34.158056,104.18539)" fill="#42a5f5"/>
<use xlink:href="#font_2_f" transform="matrix(10.9091,0,0,-10.9091,44.88973,104.015079)" fill="#212121"/>
<use xlink:href="#font_2_20" transform="matrix(10.9091,0,0,-10.9091,52.74428,104.015079)" fill="#212121"/>
<use xlink:href="#font_2_18" transform="matrix(10.9091,0,0,-10.9091,57.87156,104.13508)" fill="#212121"/>
<symbol id="font_2_14">
<path d="M .37 .120000008 C .32400004 .089 .28 .065000008 .21700001 .065000008 C .12300001 .065000008 .07400001 .14900002 .07400001 .23600002 C .07400001 .322 .12200001 .407 .22300002 .407 C .252 .407 .28100003 .402 .30800004 .391 C .326 .382 .342 .37100003 .35900004 .361 C .363 .377 .365 .393 .36800004 .409 C .36900003 .412 .37 .417 .37 .42200003 C .37 .45700003 .243 .472 .21800003 .472 C .088 .472 .0050000029 .36200003 0 .24500002 L 0 .23500002 C 0 .122 .076000008 0 .215 0 C .26500003 0 .31800003 .014 .36100004 .041 C .367 .046000005 .37600003 .049000004 .37600003 .059000005 C .37600003 .078 .37100003 .1 .37 .120000008 Z "/>
</symbol>
<symbol id="font_2_17">
<path d="M .31800003 .741 L .31800003 .41300003 C .279 .447 .22500003 .467 .17300001 .467 C .064 .467 0 .34 0 .23900002 L 0 .23400001 C 0 .134 .049000004 0 .17500001 0 C .227 0 .27800004 .026 .31500004 .061000006 L .31500004 .011000001 L .39400003 .011000001 L .39400003 .741 L .31800003 .741 M .07400001 .21700002 C .07400001 .22300002 .07300001 .22900002 .07300001 .23500002 C .07300001 .315 .12200001 .404 .21900001 .404 C .25100003 .404 .30800004 .38300003 .31500004 .347 C .316 .34100003 .316 .335 .316 .329 C .316 .317 .31500004 .305 .31500004 .293 L .31500004 .14100002 C .31500004 .097 .25 .062000004 .21000001 .062000004 C .12300001 .062000004 .08100001 .14100002 .07400001 .21700002 Z "/>
</symbol>
<use xlink:href="#font_2_31" transform="matrix(10.9091,0,0,-10.9091,66.22793,104.13508)" fill="#ff0000"/>
<use xlink:href="#font_2_18" transform="matrix(10.9091,0,0,-10.9091,70.46066,104.13508)" fill="#ff0000"/>
<use xlink:href="#font_2_14" transform="matrix(10.9091,0,0,-10.9091,75.29339,104.13508)" fill="#ff0000"/>
<use xlink:href="#font_2_27" transform="matrix(10.9091,0,0,-10.9091,80.06067,104.13508)" fill="#ff0000"/>
<use xlink:href="#font_2_25" transform="matrix(10.9091,0,0,-10.9091,85.973407,104.015079)" fill="#ff0000"/>
<use xlink:href="#font_2_17" transform="matrix(10.9091,0,0,-10.9091,91.11158,104.13508)" fill="#ff0000"/>
<use xlink:href="#font_2_24" transform="matrix(10.9091,0,0,-10.9091,100.733409,104.015079)" fill="#ff0000"/>
<use xlink:href="#font_2_12" transform="matrix(10.9091,0,0,-10.9091,108.98068,104.13508)" fill="#ff0000"/>
<use xlink:href="#font_2_21" transform="matrix(10.9091,0,0,-10.9091,114.457057,104.015079)" fill="#ff0000"/>
<use xlink:href="#font_2_25" transform="matrix(10.9091,0,0,-10.9091,117.07524,104.015079)" fill="#ff0000"/>
<use xlink:href="#font_2_24" transform="matrix(10.9091,0,0,-10.9091,126.27161,104.015079)" fill="#ff0000"/>
<use xlink:href="#font_2_18" transform="matrix(10.9091,0,0,-10.9091,134.40979,104.13508)" fill="#ff0000"/>
<use xlink:href="#font_2_31" transform="matrix(10.9091,0,0,-10.9091,139.15525,104.13508)" fill="#ff0000"/>
<use xlink:href="#font_2_31" transform="matrix(10.9091,0,0,-10.9091,143.31162,104.13508)" fill="#ff0000"/>
<use xlink:href="#font_2_12" transform="matrix(10.9091,0,0,-10.9091,147.64253,104.13508)" fill="#ff0000"/>
<use xlink:href="#font_2_1f" transform="matrix(10.9091,0,0,-10.9091,152.6389,106.26235)" fill="#ff0000"/>
<use xlink:href="#font_2_18" transform="matrix(10.9091,0,0,-10.9091,158.14801,104.13508)" fill="#ff0000"/>
<use xlink:href="#font_2_27" transform="matrix(10.9091,0,0,-10.9091,166.54802,104.13508)" fill="#212121"/>
<use xlink:href="#font_2_1b" transform="matrix(10.9091,0,0,-10.9091,171.9153,104.015079)" fill="#212121"/>
<use xlink:href="#font_2_3b" transform="matrix(10.9091,0,0,-10.9091,178.70076,106.25144)" fill="#212121"/>
<use xlink:href="#font_2_27" transform="matrix(10.9091,0,0,-10.9091,183.55532,104.13508)" fill="#212121"/>
<use xlink:href="#font_2_37" transform="matrix(10.9091,0,0,-10.9091,189.46805,104.13508)" fill="#212121"/>
<use xlink:href="#font_2_30" transform="matrix(10.9091,0,0,-10.9091,195.06443,104.015079)" fill="#212121"/>
<use xlink:href="#font_2_34" transform="matrix(10.9091,0,0,-10.9091,201.70807,104.13508)" fill="#212121"/>
<use xlink:href="#font_2_12" transform="matrix(10.9091,0,0,-10.9091,205.92989,104.13508)" fill="#212121"/>
<use xlink:href="#font_2_23" transform="matrix(10.9091,0,0,-10.9091,211.48262,104.015079)" fill="#212121"/>
<use xlink:href="#font_2_22" transform="matrix(10.9091,0,0,-10.9091,214.05718,104.015079)" fill="#212121"/>
<use xlink:href="#font_2_21" transform="matrix(10.9091,0,0,-10.9091,222.84992,104.015079)" fill="#212121"/>
<use xlink:href="#font_2_25" transform="matrix(10.9091,0,0,-10.9091,225.4681,104.015079)" fill="#212121"/>
<use xlink:href="#font_2_27" transform="matrix(10.9091,0,0,-10.9091,234.16266,104.13508)" fill="#212121"/>
<use xlink:href="#font_2_25" transform="matrix(10.9091,0,0,-10.9091,240.0754,104.015079)" fill="#212121"/>
<use xlink:href="#font_2_18" transform="matrix(10.9091,0,0,-10.9091,245.20269,104.13508)" fill="#212121"/>
<use xlink:href="#font_2_27" transform="matrix(10.9091,0,0,-10.9091,253.59178,104.13508)" fill="#212121"/>
<use xlink:href="#font_2_30" transform="matrix(10.9091,0,0,-10.9091,259.23179,104.015079)" fill="#212121"/>
<use xlink:href="#font_2_34" transform="matrix(10.9091,0,0,-10.9091,265.8645,104.13508)" fill="#212121"/>
<use xlink:href="#font_2_39" transform="matrix(10.9091,0,0,-10.9091,269.43183,104.025989)" fill="#212121"/>
<use xlink:href="#font_2_27" transform="matrix(10.9091,0,0,-10.9091,276.70817,104.13508)" fill="#212121"/>
<use xlink:href="#font_2_23" transform="matrix(10.9091,0,0,-10.9091,286.2536,104.015079)" fill="#212121"/>
<use xlink:href="#font_2_21" transform="matrix(10.9091,0,0,-10.9091,288.74089,104.015079)" fill="#212121"/>
<use xlink:href="#font_2_25" transform="matrix(10.9091,0,0,-10.9091,291.35905,104.015079)" fill="#212121"/>
<use xlink:href="#font_2_18" transform="matrix(10.9091,0,0,-10.9091,296.48634,104.13508)" fill="#212121"/>
<use xlink:href="#font_2_31" transform="matrix(10.9091,0,0,-10.9091,301.23179,104.13508)" fill="#212121"/>
<use xlink:href="#font_2_2c" transform="matrix(10.9091,0,0,-10.9091,306.11906,104.015079)" fill="#212121"/>
<use xlink:href="#font_1_1" transform="matrix(7.9701,0,0,-7.9701,34.158056,120.72338)" fill="#42a5f5"/>
<symbol id="font_2_c">
<path d="M 0 .69400009 L 0 0 L .082 0 L .082 .28800003 L .26700003 .28800003 C .37700004 .29700003 .48000003 .37900005 .48000003 .49200005 L .48000003 .50100007 C .47500003 .60700008 .37600003 .68200007 .27400003 .693 C .259 .69400009 .24400002 .69400009 .23000002 .69400009 L 0 .69400009 M .07900001 .34700004 L .07900001 .637 L .23500002 .637 C .314 .632 .39800004 .587 .39800004 .49200005 C .39800004 .43400005 .36200003 .38400004 .307 .36200003 C .27 .34700004 .23200003 .34700004 .19300002 .34700004 L .07900001 .34700004 Z "/>
</symbol>
<symbol id="font_2_29">
<path d="M .076 .591 L .076 .638 L 0 .638 L 0 0 L .079 0 L .079 .238 C .117000009 .20400001 .162 .183 .21400002 .183 C .33 .183 .39400003 .31 .39400003 .418 C .39400003 .50200006 .35600005 .65000006 .23600003 .65000006 C .18200001 .65000006 .11800001 .629 .076 .591 M .31900005 .402 C .31200005 .325 .25900004 .245 .17300001 .245 C .136 .245 .079 .277 .079 .316 L .079 .52400007 C .084 .554 .14200002 .58400008 .18200001 .58400008 C .268 .58400008 .32000003 .496 .32000003 .41900004 C .32000003 .41300003 .32000003 .408 .31900005 .402 Z "/>
</symbol>
<use xlink:href="#font_2_c" transform="matrix(10.9091,0,0,-10.9091,45.555185,120.55307)" fill="#212121"/>
<use xlink:href="#font_2_18" transform="matrix(10.9091,0,0,-10.9091,51.489736,120.67307)" fill="#212121"/>
<use xlink:href="#font_2_30" transform="matrix(10.9091,0,0,-10.9091,56.78065,120.55307)" fill="#212121"/>
<use xlink:href="#font_2_20" transform="matrix(10.9091,0,0,-10.9091,60.446107,120.55307)" fill="#212121"/>
<use xlink:href="#font_2_12" transform="matrix(10.9091,0,0,-10.9091,65.68247,120.67307)" fill="#212121"/>
<use xlink:href="#font_2_29" transform="matrix(10.9091,0,0,-10.9091,71.23521,122.66943)" fill="#212121"/>
<use xlink:href="#font_2_31" transform="matrix(10.9091,0,0,-10.9091,76.2643,120.67307)" fill="#212121"/>
<use xlink:href="#font_2_12" transform="matrix(10.9091,0,0,-10.9091,84.227939,120.67307)" fill="#212121"/>
<use xlink:href="#font_2_34" transform="matrix(10.9091,0,0,-10.9091,92.72613,120.67307)" fill="#ff0000"/>
<use xlink:href="#font_2_20" transform="matrix(10.9091,0,0,-10.9091,97.28613,120.55307)" fill="#ff0000"/>
<use xlink:href="#font_2_21" transform="matrix(10.9091,0,0,-10.9091,102.80613,120.55307)" fill="#ff0000"/>
<use xlink:href="#font_2_30" transform="matrix(10.9091,0,0,-10.9091,105.44613,120.55307)" fill="#ff0000"/>
<use xlink:href="#font_2_17" transform="matrix(10.9091,0,0,-10.9091,108.675228,120.67307)" fill="#ff0000"/>
<use xlink:href="#font_2_24" transform="matrix(10.9091,0,0,-10.9091,118.29705,120.55307)" fill="#ff0000"/>
<use xlink:href="#font_2_18" transform="matrix(10.9091,0,0,-10.9091,126.43524,120.67307)" fill="#ff0000"/>
<use xlink:href="#font_2_31" transform="matrix(10.9091,0,0,-10.9091,131.1807,120.67307)" fill="#ff0000"/>
<use xlink:href="#font_2_31" transform="matrix(10.9091,0,0,-10.9091,135.33707,120.67307)" fill="#ff0000"/>
<use xlink:href="#font_2_12" transform="matrix(10.9091,0,0,-10.9091,139.6789,120.67307)" fill="#ff0000"/>
<use xlink:href="#font_2_1f" transform="matrix(10.9091,0,0,-10.9091,144.67527,122.80035)" fill="#ff0000"/>
<use xlink:href="#font_2_18" transform="matrix(10.9091,0,0,-10.9091,150.18437,120.67307)" fill="#ff0000"/>
<symbol id="font_2_16">
<path d="M 0 .208 L 0 .125 L .025000006 .125 L 0 0 L .04200001 0 L .082 .124000009 L .082 .208 L 0 .208 Z "/>
</symbol>
<symbol id="font_2_13">
<path d="M 0 .741 L 0 .011000001 L .079 .011000001 L .079 .055000005 C .11900001 .021000002 .16 0 .215 0 C .32900004 0 .39400003 .128 .39400003 .23400001 C .39400003 .321 .35300002 .46600003 .23300001 .46600003 C .178 .46600003 .11900001 .446 .076 .409 L .076 .741 L 0 .741 M .31900005 .21700002 C .31300003 .13900002 .263 .061000006 .17500001 .061000006 C .136 .061000006 .079 .094000007 .079 .134 L .079 .343 C .08100001 .356 .09600001 .368 .10500001 .375 C .127 .394 .155 .404 .18300003 .404 C .277 .404 .32000003 .314 .32000003 .23900002 C .32000003 .23200003 .32000003 .22400002 .31900005 .21700002 Z "/>
</symbol>
<use xlink:href="#font_2_16" transform="matrix(10.9091,0,0,-10.9091,155.66074,121.91671)" fill="#212121"/>
<use xlink:href="#font_2_13" transform="matrix(10.9091,0,0,-10.9091,162.0971,120.67307)" fill="#212121"/>
<use xlink:href="#font_2_37" transform="matrix(10.9091,0,0,-10.9091,167.64984,120.67307)" fill="#212121"/>
<use xlink:href="#font_2_34" transform="matrix(10.9091,0,0,-10.9091,172.58077,120.67307)" fill="#212121"/>
<use xlink:href="#font_2_25" transform="matrix(10.9091,0,0,-10.9091,180.75168,120.55307)" fill="#212121"/>
<use xlink:href="#font_2_27" transform="matrix(10.9091,0,0,-10.9091,185.83533,120.67307)" fill="#212121"/>
<use xlink:href="#font_2_34" transform="matrix(10.9091,0,0,-10.9091,191.10443,120.67307)" fill="#212121"/>
<use xlink:href="#font_2_24" transform="matrix(10.9091,0,0,-10.9091,199.28626,120.55307)" fill="#212121"/>
<use xlink:href="#font_2_27" transform="matrix(10.9091,0,0,-10.9091,207.38082,120.67307)" fill="#212121"/>
<use xlink:href="#font_2_30" transform="matrix(10.9091,0,0,-10.9091,213.00992,120.55307)" fill="#212121"/>
<use xlink:href="#font_2_18" transform="matrix(10.9091,0,0,-10.9091,216.2281,120.67307)" fill="#212121"/>
<use xlink:href="#font_2_34" transform="matrix(10.9091,0,0,-10.9091,224.46448,120.67307)" fill="#212121"/>
<use xlink:href="#font_2_20" transform="matrix(10.9091,0,0,-10.9091,229.02448,120.55307)" fill="#212121"/>
<use xlink:href="#font_2_12" transform="matrix(10.9091,0,0,-10.9091,234.26085,120.67307)" fill="#212121"/>
<use xlink:href="#font_2_25" transform="matrix(10.9091,0,0,-10.9091,239.79177,120.55307)" fill="#212121"/>
<use xlink:href="#font_2_34" transform="matrix(10.9091,0,0,-10.9091,248.3336,120.67307)" fill="#212121"/>
<use xlink:href="#font_2_20" transform="matrix(10.9091,0,0,-10.9091,252.8936,120.55307)" fill="#212121"/>
<use xlink:href="#font_2_12" transform="matrix(10.9091,0,0,-10.9091,258.12998,120.67307)" fill="#212121"/>
<use xlink:href="#font_2_34" transform="matrix(10.9091,0,0,-10.9091,263.0172,120.67307)" fill="#212121"/>
<use xlink:href="#font_2_2c" transform="matrix(10.9091,0,0,-10.9091,267.78453,120.55307)" fill="#212121"/>
<use xlink:href="#font_1_1" transform="matrix(7.9701,0,0,-7.9701,34.158056,157.83238)" fill="#42a5f5"/>
<symbol id="font_2_b">
<path d="M .29500003 .736 C .104 .718 0 .537 0 .36600004 C 0 .202 .097 .032 .272 .0030000006 C .285 .0010000002 .298 0 .31100003 0 C .50600007 0 .623 .192 .623 .36500005 C .623 .543 .50600007 .736 .30900003 .736 L .29500003 .736 M .089 .36 L .089 .374 C .089 .49400006 .136 .628 .269 .666 C .285 .67 .301 .671 .317 .671 C .459 .671 .53400006 .50600007 .53400006 .39000003 C .53400006 .26900003 .49400003 .10700001 .35000003 .071 C .33600004 .067 .321 .06600001 .307 .06600001 C .179 .069000009 .109 .205 .092999998 .31500004 C .091000009 .33 .091000009 .34500004 .089 .36 Z "/>
</symbol>
<use xlink:href="#font_2_b" transform="matrix(10.9091,0,0,-10.9091,45.097005,157.89116)" fill="#212121"/>
<use xlink:href="#font_2_37" transform="matrix(10.9091,0,0,-10.9091,53.34428,157.78206)" fill="#212121"/>
<use xlink:href="#font_2_34" transform="matrix(10.9091,0,0,-10.9091,58.275197,157.78206)" fill="#212121"/>
<use xlink:href="#font_2_23" transform="matrix(10.9091,0,0,-10.9091,62.857019,157.66207)" fill="#212121"/>
<use xlink:href="#font_2_27" transform="matrix(10.9091,0,0,-10.9091,64.90793,157.78206)" fill="#212121"/>
<use xlink:href="#font_2_27" transform="matrix(10.9091,0,0,-10.9091,70.63521,157.78206)" fill="#212121"/>
<use xlink:href="#font_2_22" transform="matrix(10.9091,0,0,-10.9091,76.580669,157.66207)" fill="#212121"/>
<symbol id="font_3_1">
<path d="M .6 .028 L .6 .57100006 C .6 .5870001 .588 .59900006 .572 .59900006 L .027999998 .59900006 C .012000002 .59900006 0 .5870001 0 .57100006 L 0 .028 C 0 .012000002 .012000002 0 .027999998 0 L .572 0 C .588 0 .6 .012000002 .6 .028 Z "/>
</symbol>
<use xlink:href="#font_3_1" transform="matrix(5.9776,0,0,-5.9776,56.84239,171.88898)" fill="#42a5f5"/>
<symbol id="font_4_1">
<path d="M .013 .15100001 C .010000002 .126 0 .10000001 0 .075 C 0 .057000005 .071 .030000002 .10800001 .018000002 C .14500001 .007000001 .18400002 0 .223 0 C .31600005 0 .431 .049000004 .453 .186 C .454 .193 .454 .201 .454 .208 C .454 .301 .393 .38000003 .30900003 .409 C .23300003 .43600003 .119 .428 .091000009 .53200009 C .09 .53900006 .089 .54700008 .089 .5540001 L .089 .56200006 C .097 .63000008 .163 .66800007 .223 .67200008 L .23800002 .67200008 C .291 .67200008 .342 .6560001 .385 .62200006 C .39200003 .61700007 .398 .61100009 .40500004 .60700008 C .408 .632 .41800005 .65800008 .41800005 .6830001 C .41800005 .68900009 .41500003 .69200006 .41000004 .69400009 L .39200003 .70300009 C .34500004 .72700008 .29400004 .73800006 .24100001 .73800006 C .14500001 .73800006 .010000002 .68500009 .010000002 .5400001 C .010000002 .44700004 .08400001 .377 .16800002 .35300002 C .24500002 .331 .375 .32700003 .375 .2 L .375 .193 C .36900003 .12400001 .30900003 .074 .24100001 .069000009 L .22900002 .069000009 C .15900001 .069000009 .091000009 .09400001 .035000005 .135 C .028000005 .14 .020999998 .147 .013 .15100001 Z "/>
</symbol>
<symbol id="font_4_b">
<path d="M .20500002 .472 C .080000009 .45700003 0 .349 0 .23200003 C 0 .12100001 .08100001 0 .22 0 L .23300001 0 C .356 .014 .432 .107 .439 .21900001 L .439 .23200003 C .439 .349 .35300002 .472 .21800001 .472 L .20500002 .472 M .078 .22500001 C .07700001 .23100002 .07700001 .23700002 .07700001 .24400002 C .07700001 .327 .13000001 .411 .22 .411 C .30900003 .411 .36100004 .329 .36100004 .24100001 C .36100004 .16400002 .324 .064 .22100002 .064 C .13700001 .064 .087000008 .135 .078 .22500001 Z "/>
</symbol>
<symbol id="font_4_9">
<path d="M .073000017 .37800003 L .073000017 .45000006 L 0 .45000006 L 0 0 L .07800001 0 L .07800001 .22800002 C .07800001 .29000003 .09 .39400003 .178 .39400003 C .243 .39400003 .27800004 .35700003 .27800004 .28900004 C .27800004 .27600003 .277 .26400004 .277 .25200004 L .277 0 L .35500003 0 L .35500003 .22800002 C .35500003 .29000003 .367 .39400003 .455 .39400003 C .52 .39400003 .55500009 .35700003 .55500009 .28900004 C .55500009 .27600003 .554 .26400004 .554 .25200004 L .554 0 L .6320001 0 L .6320001 .286 C .6320001 .32200004 .63 .35800005 .615 .39100004 C .594 .43700005 .544 .45500005 .49500004 .45500005 C .437 .45500005 .38000003 .42700006 .34600003 .37300004 C .32000003 .42400003 .291 .45500005 .21900001 .45500005 C .164 .45500005 .098000008 .42500005 .073000017 .37800003 Z "/>
</symbol>
<symbol id="font_4_4">
<path d="M .37 .117000009 C .321 .086 .28 .061000006 .22299999 .061000006 C .144 .061000006 .07 .13000001 .07 .23000002 L .38000003 .23000002 C .38000003 .298 .36900003 .374 .32 .425 C .289 .456 .24599999 .472 .20300001 .472 C .148 .472 .098 .446 .062 .407 C .019000002 .359 0 .296 0 .23300001 L 0 .22800002 C .0009999983 .111 .092 0 .218 0 C .269 0 .319 .015000001 .361 .042000005 C .368 .047000003 .37600003 .049000004 .37600003 .059000005 C .37600003 .078 .37100003 .098000008 .37 .117000009 M .075 .285 C .089 .34600003 .132 .41 .20300001 .41 C .273 .41 .315 .351 .323 .285 L .075 .285 Z "/>
</symbol>
<symbol id="font_4_f">
<path d="M .08800001 .582 L .08800001 .455 L 0 .455 L 0 .396 L .08500001 .396 L .08500001 .13200002 C .08500001 .077 .097 0 .168 0 C .22 0 .269 .014 .315 .038000004 L .299 .097 C .269 .077 .24400002 .064 .207 .064 C .163 .064 .157 .114 .157 .14800002 L .157 .396 L .298 .396 L .298 .455 L .157 .455 L .157 .582 L .08800001 .582 Z "/>
</symbol>
<symbol id="font_4_6">
<path d="M 0 .72200009 L 0 0 L .07800001 0 L .07800001 .22800002 C .07800001 .28800003 .089 .39400003 .178 .39400003 C .243 .39400003 .277 .35400004 .277 .28800003 C .277 .27500005 .27600003 .263 .27600003 .25100003 L .27600003 0 L .35400004 0 L .35400004 .237 C .35400004 .25500003 .35500003 .27400003 .35500003 .29200004 C .35500003 .36600004 .337 .45500005 .21900001 .45500005 C .157 .45500005 .113000009 .42600004 .075 .38300003 L .075 .72200009 L 0 .72200009 Z "/>
</symbol>
<symbol id="font_4_7">
<path d="M .0069999995 .44400005 L .0069999995 0 L .082 0 L .082 .44400005 L .0069999995 .44400005 M 0 .68000009 L 0 .591 L .089 .591 L .089 .68000009 L 0 .68000009 Z "/>
</symbol>
<symbol id="font_4_a">
<path d="M .07200001 .37900005 L .07200001 .45000006 L 0 .45000006 L 0 0 L .07800001 0 L .07800001 .22800002 C .07800001 .28800003 .089 .39400003 .178 .39400003 C .243 .39400003 .277 .35400004 .277 .28800003 C .277 .27500005 .27600003 .263 .27600003 .25100003 L .27600003 0 L .35400004 0 L .35400004 .237 C .35400004 .25500003 .35500003 .27400003 .35500003 .29200004 C .35500003 .36600004 .337 .45500005 .21900001 .45500005 C .15500002 .45500005 .110000018 .42400003 .07200001 .37900005 Z "/>
</symbol>
<symbol id="font_4_5">
<path d="M .06400001 .23900002 L .06400001 .238 C .028 .21700001 0 .17700002 0 .13500002 C 0 .040000008 .13200002 0 .22000002 0 C .314 0 .44300003 .036 .44300003 .14400001 C .42900003 .263 .319 .275 .231 .275 L .14100002 .275 C .110000018 .275 .09200001 .301 .09200001 .33 L .09200001 .337 C .09400001 .347 .098000008 .35500003 .10100001 .36400003 C .13800001 .347 .15900001 .33500005 .19500001 .33500005 C .28500004 .33500005 .35400004 .41300003 .35400004 .499 L .35400004 .507 C .35200004 .541 .33900003 .57000008 .321 .59800007 L .45700003 .6 L .44600005 .661 C .40000005 .661 .351 .653 .30800004 .637 C .30300004 .635 .29700003 .63100007 .291 .63100007 C .284 .63100007 .27300004 .64000007 .266 .64400008 C .24400002 .65500006 .22000002 .661 .19600001 .661 C .112 .661 .034 .59300008 .034 .499 C .034 .46800003 .043 .439 .058000003 .41200004 C .060000007 .40800003 .065 .40300004 .065 .398 C .065 .39000003 .051000004 .37300004 .046 .35800005 C .041000006 .34300003 .038 .328 .038 .31300003 C .038 .287 .047000003 .259 .06400001 .23900002 M .13000001 .20300001 L .22500003 .20300001 C .28000004 .20300001 .37300004 .19900002 .37300004 .13500002 C .37300004 .066 .25000004 .05700001 .222 .05700001 C .17100002 .05700001 .07000001 .07200001 .07000001 .13500002 C .07000001 .16900002 .096 .19900002 .13000001 .20300001 M .18400002 .60400006 L .19200002 .60400006 C .26000003 .60400006 .284 .5500001 .284 .499 C .284 .44700004 .261 .40000005 .20400001 .39200003 L .19600001 .39200003 C .128 .39200003 .104 .44600005 .104 .49700005 C .104 .549 .127 .5960001 .18400002 .60400006 Z "/>
</symbol>
<symbol id="font_4_12">
<path d="M 0 .64900007 C .012 .61300006 .031000002 .577 .047000007 .54200008 C .08900001 .44300003 .13200002 .34500004 .17600002 .24700001 L .187 .22200002 C .18900001 .21700001 .19200002 .21200001 .19300002 .20700002 L .19300002 .20500002 C .19300002 .201 .19100002 .19600001 .18900001 .193 L .179 .16800002 C .163 .127 .142 .05700001 .102000009 .05700001 C .075 .05700001 .048 .06400001 .022000002 .073 C .024000003 .038000004 .021 .010000005 .041 .004999995 C .060000004 .003000006 .080000009 0 .09900001 0 C .18400002 0 .21400002 .11100001 .24200002 .18100001 L .31100003 .352 C .34600003 .43800003 .38300003 .523 .416 .609 C .42100004 .62200006 .42800004 .63500007 .432 .64900007 L .36800004 .64900007 C .349 .64900007 .33100004 .58500006 .31800003 .55200007 C .286 .472 .256 .39200003 .23200001 .30900003 C .22800002 .291 .224 .273 .224 .25500003 C .22100002 .26500003 .22100002 .27600003 .21900001 .286 C .19500001 .40000005 .13700001 .521 .09200001 .619 L .08400001 .638 C .079 .646 .07800001 .64900007 .067 .64900007 L 0 .64900007 Z "/>
</symbol>
<symbol id="font_4_10">
<path d="M .0009999946 .45600004 L .0009999946 .16600001 C .0009999946 .15300001 0 .14000002 0 .126 C 0 .093 .0029999987 .058000003 .023999997 .033000005 C .044 .008000001 .076 0 .108 0 C .16999999 0 .232 .021000002 .28 .060000004 L .28 .012000001 L .35500003 .012000001 L .35500003 .45600004 L .277 .45600004 L .277 .17800002 C .277 .1 .23500002 .056 .14900002 .056 C .107 .056 .079 .07300001 .079 .123 L .079 .45600004 L .0009999946 .45600004 Z "/>
</symbol>
<symbol id="font_4_2">
<path d="M .038 .36200003 C .053 .37 .066 .38 .081 .388 C .11500001 .40600003 .15300001 .41300003 .19200002 .41300003 C .25300003 .41300003 .27800004 .345 .27800004 .294 C .27800004 .28100003 .277 .268 .277 .256 C .17600002 .256 0 .23300001 0 .125 C 0 .062000004 .043 0 .113000009 0 C .17000002 0 .23700002 .012000001 .28 .047000003 L .28 .011000001 L .35500003 .011000001 L .35500003 .29 C .35500003 .373 .312 .465 .20300001 .472 L .19200002 .472 C .142 .472 .097 .462 .051000004 .439 C .044000005 .43600003 .032 .432 .032 .421 C .032 .40100003 .036999998 .382 .038 .36200003 M .277 .20500002 L .277 .14000002 C .277 .082 .21700001 .060000004 .16600001 .060000004 C .12400001 .060000004 .072 .081 .072 .127 C .074 .17600002 .15200001 .19200002 .18900001 .19700001 C .21800003 .202 .24800003 .20500002 .277 .20500002 Z "/>
</symbol>
<symbol id="font_4_11">
<path d="M 0 .44400005 C .0040000008 .43000005 .01 .41700004 .015000001 .40400005 L .046000005 .32400004 C .08500001 .22500001 .12100001 .126 .16100002 .028 C .16700001 .011 .16800002 0 .18400002 0 L .25 0 C .27 0 .29500003 .089 .312 .134 C .33900003 .20300001 .36600004 .27300004 .393 .34200005 L .41700004 .40500004 C .42200003 .41800005 .42800004 .43100003 .432 .44400005 L .36800004 .44400005 C .35700003 .44400005 .356 .44000004 .35300002 .43200005 L .319 .34300003 C .28700004 .26000003 .25500003 .178 .22800002 .093 C .224 .079 .21900001 .065 .21800001 .050000006 L .21000001 .082 L .178 .179 L .08900001 .41500003 L .076000008 .44200004 L .055000009 .44400005 L 0 .44400005 Z "/>
</symbol>
<symbol id="font_4_d">
<path d="M .001000002 .20900005 L .001000002 .12500006 L .027000003 .12500006 L 0 0 L .043000014 0 L .08400001 .12400001 L .08400001 .20900005 L .001000002 .20900005 Z "/>
</symbol>
<symbol id="font_4_e">
<path d="M .011000002 .113000009 C .007000001 .093 0 .069000009 0 .051000004 C 0 .024 .105000007 .0060000007 .11600001 .0040000008 C .13200002 .0020000004 .15 0 .16800002 0 C .24200003 0 .331 .029000003 .331 .13900002 C .331 .20300001 .282 .254 .22400002 .271 C .17400001 .286 .076000008 .283 .076000008 .351 C .076000008 .393 .11400001 .41300003 .15500002 .41300003 C .18900001 .41300003 .22400002 .409 .257 .396 C .273 .39000003 .287 .38 .303 .374 L .314 .44 C .266 .462 .22000002 .472 .16800002 .472 C .09200001 .472 .003999999 .441 .003999999 .342 C .003999999 .264 .07300001 .22200002 .13900002 .20900002 C .18400002 .20100002 .26 .19400002 .26 .13000001 C .26 .083000008 .21200001 .063 .16900002 .063 C .111 .063 .067 .081 .011000002 .113000009 Z "/>
</symbol>
<symbol id="font_4_8">
<path d="M 0 .72200009 L 0 0 L .075 0 L .075 .72200009 L 0 .72200009 Z "/>
</symbol>
<symbol id="font_4_3">
<path d="M .323 .73300006 L .323 .411 C .282 .446 .22900002 .46600003 .17500001 .46600003 C .058000003 .46600003 0 .33200003 0 .23300001 C 0 .127 .056000007 0 .179 0 C .23200001 0 .282 .027000003 .32 .063 L .32 .011000001 L .398 .011000001 L .398 .73300006 L .323 .73300006 M .07800001 .21600002 C .07700001 .22200002 .07700001 .22900002 .07700001 .23500002 C .07700001 .315 .12400001 .405 .22200002 .405 C .262 .405 .321 .379 .321 .328 C .321 .316 .32 .304 .32 .293 L .32 .143 C .32 .094000007 .25 .061000006 .21300002 .061000006 C .127 .061000006 .08600001 .13800001 .07800001 .21600002 Z "/>
</symbol>
<symbol id="font_4_c">
<path d="M 0 .084 L 0 0 L .08400001 0 L .08400001 .084 L 0 .084 Z "/>
</symbol>
<use xlink:href="#font_4_1" transform="matrix(9.9626,0,0,-9.9626,66.76332,171.8292)" fill="#212121"/>
<use xlink:href="#font_4_b" transform="matrix(9.9626,0,0,-9.9626,72.14313,171.7196)" fill="#212121"/>
<use xlink:href="#font_4_9" transform="matrix(9.9626,0,0,-9.9626,77.632518,171.61002)" fill="#212121"/>
<use xlink:href="#font_4_4" transform="matrix(9.9626,0,0,-9.9626,85.07458,171.7196)" fill="#212121"/>
<use xlink:href="#font_4_f" transform="matrix(9.9626,0,0,-9.9626,89.33857,171.7196)" fill="#212121"/>
<use xlink:href="#font_4_6" transform="matrix(9.9626,0,0,-9.9626,93.562709,171.61002)" fill="#212121"/>
<use xlink:href="#font_4_7" transform="matrix(9.9626,0,0,-9.9626,98.64364,171.61002)" fill="#212121"/>
<use xlink:href="#font_4_a" transform="matrix(9.9626,0,0,-9.9626,101.09443,171.61002)" fill="#212121"/>
<use xlink:href="#font_4_5" transform="matrix(9.9626,0,0,-9.9626,105.71708,173.66231)" fill="#212121"/>
<use xlink:href="#font_4_12" transform="matrix(9.9626,0,0,-9.9626,113.87644,173.65235)" fill="#212121"/>
<use xlink:href="#font_4_b" transform="matrix(9.9626,0,0,-9.9626,118.35962,171.7196)" fill="#212121"/>
<use xlink:href="#font_4_10" transform="matrix(9.9626,0,0,-9.9626,123.83904,171.72957)" fill="#212121"/>
<use xlink:href="#font_4_6" transform="matrix(9.9626,0,0,-9.9626,132.31723,171.61002)" fill="#212121"/>
<use xlink:href="#font_4_2" transform="matrix(9.9626,0,0,-9.9626,137.09928,171.7196)" fill="#212121"/>
<use xlink:href="#font_4_11" transform="matrix(9.9626,0,0,-9.9626,141.58245,171.61002)" fill="#212121"/>
<use xlink:href="#font_4_4" transform="matrix(9.9626,0,0,-9.9626,146.37445,171.7196)" fill="#212121"/>
<use xlink:href="#font_4_a" transform="matrix(9.9626,0,0,-9.9626,151.2661,171.61002)" fill="#212121"/>
<use xlink:href="#font_4_d" transform="matrix(9.9626,0,0,-9.9626,156.5662,166.4992)" fill="#212121"/>
<use xlink:href="#font_4_f" transform="matrix(9.9626,0,0,-9.9626,158.55872,171.7196)" fill="#212121"/>
<use xlink:href="#font_4_e" transform="matrix(9.9626,0,0,-9.9626,165.58235,171.7196)" fill="#212121"/>
<use xlink:href="#font_4_b" transform="matrix(9.9626,0,0,-9.9626,169.40799,171.7196)" fill="#212121"/>
<use xlink:href="#font_4_8" transform="matrix(9.9626,0,0,-9.9626,174.89739,171.61002)" fill="#212121"/>
<use xlink:href="#font_4_11" transform="matrix(9.9626,0,0,-9.9626,176.61095,171.61002)" fill="#212121"/>
<use xlink:href="#font_4_4" transform="matrix(9.9626,0,0,-9.9626,181.40296,171.7196)" fill="#212121"/>
<use xlink:href="#font_4_3" transform="matrix(9.9626,0,0,-9.9626,185.84629,171.7196)" fill="#212121"/>
<use xlink:href="#font_4_c" transform="matrix(9.9626,0,0,-9.9626,191.60466,171.61002)" fill="#212121"/>
<use xlink:href="#font_3_1" transform="matrix(5.9776,0,0,-5.9776,56.84239,183.84499)" fill="#42a5f5"/>
<use xlink:href="#font_4_1" transform="matrix(9.9626,0,0,-9.9626,66.76332,183.7852)" fill="#212121"/>
<use xlink:href="#font_4_b" transform="matrix(9.9626,0,0,-9.9626,72.14313,183.67562)" fill="#212121"/>
<use xlink:href="#font_4_9" transform="matrix(9.9626,0,0,-9.9626,77.632518,183.56603)" fill="#212121"/>
<use xlink:href="#font_4_4" transform="matrix(9.9626,0,0,-9.9626,85.07458,183.67562)" fill="#212121"/>
<use xlink:href="#font_4_f" transform="matrix(9.9626,0,0,-9.9626,89.33857,183.67562)" fill="#212121"/>
<use xlink:href="#font_4_6" transform="matrix(9.9626,0,0,-9.9626,93.562709,183.56603)" fill="#212121"/>
<use xlink:href="#font_4_7" transform="matrix(9.9626,0,0,-9.9626,98.64364,183.56603)" fill="#212121"/>
<use xlink:href="#font_4_a" transform="matrix(9.9626,0,0,-9.9626,101.09443,183.56603)" fill="#212121"/>
<use xlink:href="#font_4_5" transform="matrix(9.9626,0,0,-9.9626,105.71708,185.61832)" fill="#212121"/>
<use xlink:href="#font_4_4" transform="matrix(9.9626,0,0,-9.9626,114.0757,183.67562)" fill="#212121"/>
<use xlink:href="#font_4_8" transform="matrix(9.9626,0,0,-9.9626,118.96733,183.56603)" fill="#212121"/>
<use xlink:href="#font_4_e" transform="matrix(9.9626,0,0,-9.9626,120.83034,183.67562)" fill="#212121"/>
<use xlink:href="#font_4_4" transform="matrix(9.9626,0,0,-9.9626,124.69582,183.67562)" fill="#212121"/>
<use xlink:href="#font_4_12" transform="matrix(9.9626,0,0,-9.9626,132.24748,185.60836)" fill="#212121"/>
<use xlink:href="#font_4_b" transform="matrix(9.9626,0,0,-9.9626,136.72069,183.67562)" fill="#212121"/>
<use xlink:href="#font_4_10" transform="matrix(9.9626,0,0,-9.9626,142.20012,183.68558)" fill="#212121"/>
<use xlink:href="#font_4_6" transform="matrix(9.9626,0,0,-9.9626,150.6783,183.56603)" fill="#212121"/>
<use xlink:href="#font_4_2" transform="matrix(9.9626,0,0,-9.9626,155.46035,183.67562)" fill="#212121"/>
<use xlink:href="#font_4_11" transform="matrix(9.9626,0,0,-9.9626,159.94351,183.56603)" fill="#212121"/>
<use xlink:href="#font_4_4" transform="matrix(9.9626,0,0,-9.9626,164.73552,183.67562)" fill="#212121"/>
<use xlink:href="#font_4_a" transform="matrix(9.9626,0,0,-9.9626,169.62717,183.56603)" fill="#212121"/>
<use xlink:href="#font_4_d" transform="matrix(9.9626,0,0,-9.9626,174.92726,178.45522)" fill="#212121"/>
<use xlink:href="#font_4_f" transform="matrix(9.9626,0,0,-9.9626,176.91979,183.67562)" fill="#212121"/>
<use xlink:href="#font_4_e" transform="matrix(9.9626,0,0,-9.9626,183.95339,183.67562)" fill="#212121"/>
<use xlink:href="#font_4_b" transform="matrix(9.9626,0,0,-9.9626,187.77902,183.67562)" fill="#212121"/>
<use xlink:href="#font_4_8" transform="matrix(9.9626,0,0,-9.9626,193.26842,183.56603)" fill="#212121"/>
<use xlink:href="#font_4_11" transform="matrix(9.9626,0,0,-9.9626,194.98198,183.56603)" fill="#212121"/>
<use xlink:href="#font_4_4" transform="matrix(9.9626,0,0,-9.9626,199.77399,183.67562)" fill="#212121"/>
<use xlink:href="#font_4_3" transform="matrix(9.9626,0,0,-9.9626,204.21732,183.67562)" fill="#212121"/>
<use xlink:href="#font_4_c" transform="matrix(9.9626,0,0,-9.9626,209.9757,183.56603)" fill="#212121"/>
<symbol id="font_5_1">
<path d="M .047000007 .669 L .047000007 .282 L .127 .282 C .143 .282 .15200001 .307 .16500002 .32 C .18900001 .343 .224 .358 .257 .358 C .34 .358 .361 .277 .361 .21900001 C .361 .12300001 .29500003 .081 .22299999 .081 C .15 .081 .091 .11600001 .049000004 .17000002 L .012000002 .119 C .009 .11400001 0 .105000007 0 .09900001 C 0 .09200001 .022 .075 .032000007 .067 C .087000008 .023000002 .155 0 .224 0 C .342 0 .486 .076000008 .486 .22000002 C .486 .342 .381 .43800003 .262 .43800003 C .22100002 .43800003 .18100003 .42700003 .148 .402 L .148 .58300009 L .44700004 .58300009 L .44700004 .669 L .047000007 .669 Z "/>
</symbol>
<use xlink:href="#font_5_1" transform="matrix(5.9776,0,0,-5.9776,440.72309,249.84662)" fill="#212121"/>
<path transform="matrix(1,0,0,-1,0,255.118)" d="M 0 0 L 0 2.98883 L 453.54914 2.98883 L 453.54914 0 Z M 453.54914 2.98883 " fill="#ffffff"/>
<path transform="matrix(1,0,0,-1,0,255.118)" d="M 0 0 L 0 2.98883 L 377.95616 2.98883 L 377.95616 0 Z M 377.95616 2.98883 " fill="#42a5f5"/>
</g>
</svg>
